SplineFontDB: 3.0
FontName: AV-Overlock-Regular
FullName: AV Overlock Regular
FamilyName: AV Overlock
Weight: Regular
Copyright: Copyright (c) 2011, Dario Manuel Muhafara (http://www.tipo.net.ar), with Reserved Font Name "Overlock".\n\n"AV Overlock" Copyright 2018, Michael Hart (http://bethelight.info). 
FontLog: "2018-10 Mapped Opentype smcp, c2sc. Generated sups for (0-9,a-z)"
Version: 2018.001
ItalicAngle: 0
UnderlinePosition: -133
UnderlineWidth: 20
Ascent: 800
Descent: 200
InvalidEm: 0
sfntRevision: 0x07e20000
LayerCount: 2
Layer: 0 0 "Back" 1
Layer: 1 0 "Fore" 0
XUID: [1021 894 1065283359 16256719]
StyleMap: 0x0040
FSType: 0
OS2Version: 3
OS2_WeightWidthSlopeOnly: 0
OS2_UseTypoMetrics: 0
CreationTime: 1324052811
ModificationTime: 1539373050
PfmFamily: 33
TTFWeight: 400
TTFWidth: 5
LineGap: 0
VLineGap: 0
Panose: 2 0 6 6 4 0 0 2 0 2
OS2TypoAscent: 966
OS2TypoAOffset: 0
OS2TypoDescent: -254
OS2TypoDOffset: 0
OS2TypoLinegap: 0
OS2WinAscent: 966
OS2WinAOffset: 0
OS2WinDescent: 254
OS2WinDOffset: 0
HheadAscent: 966
HheadAOffset: 0
HheadDescent: -254
HheadDOffset: 0
OS2SubXSize: 700
OS2SubYSize: 650
OS2SubXOff: 0
OS2SubYOff: 140
OS2SupXSize: 700
OS2SupYSize: 650
OS2SupXOff: 0
OS2SupYOff: 477
OS2StrikeYSize: 50
OS2StrikeYPos: 250
OS2CapHeight: 154
OS2XHeight: 125
OS2FamilyClass: 1295
OS2Vendor: 'pyrs'
OS2CodePages: 20000001.00000000
OS2UnicodeRanges: 800000af.4000204b.00000000.00000000
Lookup: 1 0 0 "'c2sc' Capitals to Small Capitals in Latin lookup 0" { "'c2sc' Capitals to Small Capitals in Latin lookup 0 subtable"  } ['c2sc' ('latn' <'dflt' > ) ]
Lookup: 1 0 0 "'smcp' Lowercase to Small Capitals in Latin lookup 0" { "'smcp' Lowercase to Small Capitals in Latin lookup 0 subtable"  } ['smcp' ('latn' <'dflt' > ) ]
Lookup: 1 0 0 "'sups' Superscript lookup 0" { "'sups' Superscript lookup 0 subtable" ("superior") } ['sups' ('latn' <'dflt' > 'DFLT' <'dflt' > ) ]

StartChar: exclam
Encoding: 33 33 2
Width: 311
GlyphClass: 2
Flags: W
LayerCount: 2
Fore
SplineSet
161 -10 m 0
 144.333007812 -10 130 -4 118 8 c 0
 106 20 100 35 100 53 c 0
 100 71 106 86.1669921875 118 98.5 c 0
 130 110.833007812 144.333007812 117 161 117 c 0
 177.666992188 117 191.833984375 110.833007812 203.500976562 98.5 c 0
 215.16796875 86.1669921875 221.000976562 71 221.000976562 53 c 0
 221.000976562 35 215.16796875 20 203.500976562 8 c 0
 191.833984375 -4 177.666992188 -10 161 -10 c 0
119 350 m 0
 119 518 113.000976562 627.331054688 101.000976562 677.998046875 c 1
 124.333984375 682.665039062 141.666992188 684.998046875 153 684.998046875 c 0
 184.333007812 684.998046875 200 668.665039062 200 635.998046875 c 0
 200 617.331054688 197 579.831054688 191 523.498046875 c 0
 185 467.165039062 182 414.998046875 182 366.998046875 c 2
 182 322.998046875 l 2
 182 269.665039062 187.333007812 228.33203125 198 198.999023438 c 1
 184.666992188 192.33203125 172.333984375 188.999023438 161.000976562 188.999023438 c 0
 134.333984375 188.999023438 120.666992188 204.999023438 120 236.999023438 c 0
 119.333007812 245.666015625 119 283.333007812 119 350 c 0
EndSplineSet
Validated: 1
Substitution2: "'c2sc' Capitals to Small Capitals in Latin lookup 0 subtable" exclamsmall
EndChar

StartChar: quotedbl
Encoding: 34 34 3
Width: 345
GlyphClass: 2
Flags: W
LayerCount: 2
Fore
SplineSet
57 637 m 0
 52.3330078125 671 50 692.666992188 50 702 c 0
 50 711.333007812 54.5 719.5 63.5 726.5 c 0
 72.5 733.5 83.3330078125 737 96 737 c 0
 108.666992188 737 119 733.333007812 127 726 c 0
 135 718.666992188 139 704 139 682 c 0
 139 660 132.666992188 607.333007812 120 524 c 0
 117.333007812 508 113.333007812 496.833007812 108 490.5 c 0
 102.666992188 484.166992188 95.5 481 86.5 481 c 0
 77.5 481 69 482.333007812 61 485 c 1
 63 497 64 516.833007812 64 544.5 c 0
 64 572.166992188 61.6669921875 603 57 637 c 0
223 637 m 0
 218.333007812 671 216 692.666992188 216 702 c 0
 216 711.333007812 220.5 719.5 229.5 726.5 c 0
 238.5 733.5 249.333007812 737 262 737 c 0
 274.666992188 737 285 733.333007812 293 726 c 0
 301 718.666992188 305 704 305 682 c 0
 305 660 298.666992188 607.333007812 286 524 c 0
 283.333007812 508 279.333007812 496.833007812 274 490.5 c 0
 268.666992188 484.166992188 261.5 481 252.5 481 c 0
 243.5 481 235 482.333007812 227 485 c 1
 229 497 230 516.833007812 230 544.5 c 0
 230 572.166992188 227.666992188 603 223 637 c 0
EndSplineSet
Validated: 1
EndChar

StartChar: numbersign
Encoding: 35 35 4
Width: 535
GlyphClass: 2
Flags: W
LayerCount: 2
Fore
SplineSet
206 272 m 1
 268 272 307.666015625 272.333007812 324.999023438 273 c 1
 328.999023438 297 333.999023438 335.666992188 339.999023438 389 c 1
 322.666015625 389.666992188 294.333007812 390 255 390 c 2
 224 390 l 1
 215.333007812 341.333007812 209.333007812 302 206 272 c 1
489.499023438 218 m 0
 482.499023438 214.666992188 474.6640625 213.001953125 465.997070312 213.001953125 c 0
 457.330078125 213.001953125 422.997070312 214.668945312 362.997070312 218.001953125 c 1
 356.330078125 160.001953125 352.997070312 123.334960938 352.997070312 108.001953125 c 0
 352.997070312 92.6689453125 354.330078125 73.001953125 356.997070312 49.001953125 c 1
 347.6640625 43.6689453125 336.997070312 41.001953125 324.997070312 41.001953125 c 0
 304.997070312 41.001953125 294.997070312 52.001953125 294.997070312 74.001953125 c 0
 294.997070312 84.001953125 301.997070312 132.668945312 315.997070312 220.001953125 c 1
 298.6640625 220.668945312 270.331054688 221.001953125 230.998046875 221.001953125 c 2
 198.998046875 221.001953125 l 1
 191.665039062 155.001953125 187.998046875 115.834960938 187.998046875 103.501953125 c 0
 187.998046875 91.1689453125 189.331054688 73.001953125 191.998046875 49.001953125 c 1
 182.665039062 43.6689453125 171.998046875 41.001953125 159.998046875 41.001953125 c 0
 139.998046875 41.001953125 129.998046875 52.001953125 129.998046875 74.001953125 c 0
 129.998046875 84.001953125 136.998046875 132.668945312 150.998046875 220.001953125 c 1
 95.6650390625 217.334960938 50.998046875 211.334960938 16.998046875 202.001953125 c 1
 14.998046875 208.668945312 13.998046875 219.3359375 13.998046875 234.002929688 c 0
 13.998046875 260.669921875 33.1650390625 274.002929688 71.498046875 274.002929688 c 0
 109.831054688 274.002929688 139.331054688 273.669921875 159.998046875 273.002929688 c 1
 174.998046875 389.002929688 l 1
 119.665039062 386.3359375 74.998046875 380.3359375 40.998046875 371.002929688 c 1
 38.998046875 377.669921875 37.998046875 388.669921875 37.998046875 404.002929688 c 0
 37.998046875 430.669921875 58.998046875 444.002929688 100.998046875 444.002929688 c 2
 181.998046875 443.002929688 l 1
 191.998046875 516.3359375 197.998046875 572.002929688 199.998046875 610.002929688 c 1
 209.331054688 612.002929688 218.331054688 613.002929688 226.998046875 613.002929688 c 0
 247.665039062 613.002929688 257.998046875 602.3359375 257.998046875 581.002929688 c 0
 257.998046875 576.3359375 249.665039062 530.002929688 232.998046875 442.002929688 c 1
 346.998046875 442.002929688 l 1
 347.665039062 448.002929688 350.665039062 473.502929688 355.998046875 518.502929688 c 0
 361.331054688 563.502929688 364.331054688 594.002929688 364.998046875 610.002929688 c 1
 374.331054688 612.002929688 383.331054688 613.002929688 391.998046875 613.002929688 c 0
 412.665039062 613.002929688 422.998046875 602.3359375 422.998046875 581.002929688 c 0
 422.998046875 579.669921875 414.998046875 534.002929688 398.998046875 444.002929688 c 1
 477.665039062 447.3359375 522.998046875 449.3359375 534.998046875 450.002929688 c 1
 534.331054688 435.3359375 533.498046875 424.168945312 532.498046875 416.501953125 c 0
 531.498046875 408.834960938 527.165039062 401.16796875 519.498046875 393.500976562 c 0
 511.831054688 385.833984375 502.998046875 382.000976562 492.998046875 382.000976562 c 0
 482.998046875 382.000976562 447.998046875 383.66796875 387.998046875 387.000976562 c 1
 381.998046875 351.000976562 376.331054688 313.000976562 370.998046875 273.000976562 c 1
 431.665039062 275.66796875 478.33203125 278.000976562 510.999023438 280.000976562 c 1
 509.666015625 259.333984375 507.499023438 244.666992188 504.499023438 236 c 0
 501.499023438 227.333007812 496.499023438 221.333007812 489.499023438 218 c 0
EndSplineSet
Validated: 1
EndChar

StartChar: dollar
Encoding: 36 36 5
Width: 535
GlyphClass: 2
Flags: W
LayerCount: 2
Fore
SplineSet
237 385 m 1
 237 609.999023438 l 1
 209.666992188 606.666015625 187.5 595.833007812 170.5 577.5 c 0
 153.5 559.166992188 145 534 145 502 c 0
 145 470 152.833007812 445.5 168.5 428.5 c 0
 184.166992188 411.5 207 397 237 385 c 1
276 289.999023438 m 1
 276 48.9990234375 l 1
 308.666992188 50.9990234375 335.5 62.33203125 356.5 82.9990234375 c 0
 377.5 103.666015625 388 132.333007812 388 169 c 0
 388 205.666992188 378.5 232.166992188 359.5 248.5 c 0
 340.5 264.833007812 312.666992188 278.666015625 276 289.999023438 c 1
392 531.999023438 m 1
 382.666992188 551.999023438 367.330078125 568.997070312 345.997070312 582.997070312 c 0
 324.6640625 596.997070312 301.331054688 605.6640625 275.998046875 608.997070312 c 1
 275.998046875 370.997070312 l 1
 345.331054688 351.6640625 393.331054688 327.997070312 419.998046875 299.997070312 c 0
 446.665039062 271.997070312 459.998046875 232.830078125 459.998046875 182.497070312 c 0
 459.998046875 132.1640625 443.498046875 88.3310546875 410.498046875 50.998046875 c 0
 377.498046875 13.6650390625 332.998046875 -6.3349609375 276.998046875 -9.001953125 c 1
 278.331054688 -38.3349609375 279.6640625 -60.66796875 280.997070312 -76.0009765625 c 1
 265.997070312 -78.0009765625 l 2
 246.6640625 -78.0009765625 236.997070312 -69.0009765625 236.997070312 -51.0009765625 c 2
 236.997070312 -10.0009765625 l 1
 190.330078125 -8.66796875 149.330078125 0.9990234375 113.997070312 18.9990234375 c 0
 78.6640625 36.9990234375 60.9970703125 57.9990234375 60.9970703125 81.9990234375 c 0
 60.9970703125 95.33203125 64.830078125 105.499023438 72.4970703125 112.499023438 c 0
 80.1640625 119.499023438 91.9970703125 126.999023438 107.997070312 134.999023438 c 1
 117.997070312 113.666015625 134.997070312 95.4990234375 158.997070312 80.4990234375 c 0
 182.997070312 65.4990234375 208.997070312 55.666015625 236.997070312 50.9990234375 c 1
 236.997070312 300.999023438 l 1
 211.6640625 308.999023438 191.331054688 316.499023438 175.998046875 323.499023438 c 0
 160.665039062 330.499023438 143.998046875 340.999023438 125.998046875 354.999023438 c 0
 90.6650390625 382.33203125 72.998046875 427.999023438 72.998046875 491.999023438 c 0
 72.998046875 541.999023438 88.1650390625 581.999023438 118.498046875 611.999023438 c 0
 148.831054688 641.999023438 187.998046875 660.33203125 235.998046875 666.999023438 c 1
 234.665039062 698.33203125 233.33203125 721.33203125 231.999023438 735.999023438 c 1
 238.666015625 737.999023438 244.333007812 738.999023438 249 738.999023438 c 0
 267 738.999023438 276 729.999023438 276 711.999023438 c 2
 276 670.999023438 l 1
 318 670.999023438 356.666992188 662.83203125 392 646.499023438 c 0
 427.333007812 630.166015625 445 607.999023438 445 579.999023438 c 0
 445 554.666015625 427.333007812 538.666015625 392 531.999023438 c 1
EndSplineSet
Validated: 1
Substitution2: "'onum' Oldstyle Figures Lookup 0" dollaroldstyle
EndChar

StartChar: percent
Encoding: 37 37 6
Width: 752
GlyphClass: 2
Flags: W
LayerCount: 2
Fore
SplineSet
663.5 35 m 0
 637.833007812 5 603.166015625 -10 559.499023438 -10 c 0
 515.83203125 -10 481.165039062 5 455.498046875 35 c 0
 429.831054688 65 416.998046875 105.5 416.998046875 156.5 c 0
 416.998046875 207.5 429.831054688 247.833007812 455.498046875 277.5 c 0
 481.165039062 307.166992188 515.83203125 322 559.499023438 322 c 0
 603.166015625 322 637.833007812 307 663.5 277 c 0
 689.166992188 247 702 206.666992188 702 156 c 0
 702 105.333007812 689.166992188 65 663.5 35 c 0
615 71 m 0
 629 91.6669921875 635.999023438 117.833007812 635.999023438 149.5 c 0
 635.999023438 181.166992188 629.33203125 209.666992188 615.999023438 235 c 0
 602.666015625 260.333007812 584.333007812 273 561 273 c 0
 537.666992188 273 518.5 263 503.5 243 c 0
 488.5 223 481 197.166992188 481 165.5 c 0
 481 133.833007812 487.833007812 105 501.5 79 c 0
 515.166992188 53 534 40 558 40 c 0
 582 40 601 50.3330078125 615 71 c 0
150.999023438 24.9990234375 m 2
 447 491.999023438 l 2
 497.666992188 572.666015625 537.666992188 639.333007812 567 692 c 1
 578.333007812 691.333007812 588.666015625 688 597.999023438 682 c 0
 607.33203125 676 611.999023438 669.166992188 611.999023438 661.5 c 0
 611.999023438 653.833007812 609.666015625 646.333007812 604.999023438 639 c 2
 308.999023438 171 l 2
 261.666015625 96.3330078125 221.666015625 29.666015625 188.999023438 -29.0009765625 c 1
 160.33203125 -23.0009765625 144.999023438 -13.0009765625 142.999023438 0.9990234375 c 0
 142.999023438 8.9990234375 145.666015625 16.9990234375 150.999023438 24.9990234375 c 2
296.5 377.999023438 m 0
 270.833007812 347.999023438 236.166015625 332.999023438 192.499023438 332.999023438 c 0
 148.83203125 332.999023438 114.165039062 347.999023438 88.498046875 377.999023438 c 0
 62.8310546875 407.999023438 49.998046875 448.499023438 49.998046875 499.499023438 c 0
 49.998046875 550.499023438 62.8310546875 590.83203125 88.498046875 620.499023438 c 0
 114.165039062 650.166015625 148.83203125 664.999023438 192.499023438 664.999023438 c 0
 236.166015625 664.999023438 270.833007812 649.999023438 296.5 619.999023438 c 0
 322.166992188 589.999023438 335 549.666015625 335 498.999023438 c 0
 335 448.33203125 322.166992188 407.999023438 296.5 377.999023438 c 0
248 413.999023438 m 0
 262 434.666015625 268.999023438 460.83203125 268.999023438 492.499023438 c 0
 268.999023438 524.166015625 262.33203125 552.666015625 248.999023438 577.999023438 c 0
 235.666015625 603.33203125 217.333007812 615.999023438 194 615.999023438 c 0
 170.666992188 615.999023438 151.5 605.999023438 136.5 585.999023438 c 0
 121.5 565.999023438 114 540.166015625 114 508.499023438 c 0
 114 476.83203125 120.833007812 447.999023438 134.5 421.999023438 c 0
 148.166992188 395.999023438 167 382.999023438 191 382.999023438 c 0
 215 382.999023438 234 393.33203125 248 413.999023438 c 0
EndSplineSet
Validated: 1
Substitution2: "'onum' Oldstyle Figures Lookup 0" percentoldstyle
EndChar

StartChar: ampersand
Encoding: 38 38 7
Width: 616
GlyphClass: 2
Flags: W
LayerCount: 2
Fore
SplineSet
316 472.5 m 0
 328.666992188 492.166992188 335 513.500976562 335 536.500976562 c 0
 335 559.500976562 328 579.333984375 314 596.000976562 c 0
 300 612.66796875 278.666992188 621.000976562 250 621.000976562 c 0
 187.333007812 621.000976562 156 589.66796875 156 527.000976562 c 0
 156 497.66796875 175.666992188 449.66796875 215 383.000976562 c 1
 241 400.333984375 261.166992188 414.666992188 275.5 426 c 0
 289.833007812 437.333007812 303.333007812 452.833007812 316 472.5 c 0
189 299.000976562 m 1
 146.333007812 263.000976562 125 224.168945312 125 182.501953125 c 0
 125 140.834960938 139 107.66796875 167 83.0009765625 c 0
 195 58.333984375 229.833007812 46.0009765625 271.5 46.0009765625 c 0
 313.166992188 46.0009765625 348.666992188 56.66796875 378 78.0009765625 c 1
 309.333007812 143.333984375 246.333007812 217.000976562 189 299.000976562 c 1
158 346.001953125 m 1
 110.666992188 416.668945312 87.0048828125 474.834960938 87.0048828125 520.501953125 c 0
 87.0048828125 566.168945312 103.171875 603.001953125 135.504882812 631.001953125 c 0
 167.837890625 659.001953125 207.837890625 673.001953125 255.504882812 673.001953125 c 0
 303.171875 673.001953125 340.004882812 660.501953125 366.004882812 635.501953125 c 0
 392.004882812 610.501953125 405.004882812 580.668945312 405.004882812 546.001953125 c 0
 405.004882812 524.668945312 400.671875 503.8359375 392.004882812 483.502929688 c 0
 383.337890625 463.169921875 373.837890625 446.502929688 363.504882812 433.502929688 c 0
 353.171875 420.502929688 338.671875 406.669921875 320.004882812 392.002929688 c 0
 299.337890625 375.3359375 273.670898438 357.668945312 243.00390625 339.001953125 c 1
 300.336914062 255.668945312 360.336914062 187.3359375 423.00390625 134.002929688 c 1
 435.00390625 160.002929688 441.00390625 188.502929688 441.00390625 219.502929688 c 0
 441.00390625 250.502929688 438.00390625 272.669921875 432.00390625 286.002929688 c 1
 446.670898438 294.002929688 458.670898438 298.002929688 468.00390625 298.002929688 c 0
 496.670898438 298.002929688 511.00390625 278.3359375 511.00390625 239.002929688 c 0
 511.00390625 184.3359375 498.00390625 137.002929688 472.00390625 97.0029296875 c 1
 513.336914062 69.669921875 550.669921875 56.0029296875 584.002929688 56.0029296875 c 1
 585.3359375 49.3359375 586.002929688 41.1689453125 586.002929688 31.501953125 c 0
 586.002929688 21.8349609375 582.002929688 12.501953125 574.002929688 3.501953125 c 0
 566.002929688 -5.498046875 553.669921875 -9.998046875 537.002929688 -9.998046875 c 0
 504.3359375 -9.998046875 465.668945312 7.001953125 421.001953125 41.001953125 c 1
 376.334960938 7.001953125 324.66796875 -9.998046875 266.000976562 -9.998046875 c 0
 207.333984375 -9.998046875 156.666992188 6.001953125 114 38.001953125 c 0
 71.3330078125 70.001953125 50 114.334960938 50 171.001953125 c 0
 50 209.668945312 59.5 242.501953125 78.5 269.501953125 c 0
 97.5 296.501953125 124 322.001953125 158 346.001953125 c 1
EndSplineSet
Validated: 1
Substitution2: "'c2sc' Capitals to Small Capitals in Latin lookup 0 subtable" ampersandsmall
EndChar

StartChar: quotesingle
Encoding: 39 39 8
Width: 239
GlyphClass: 2
Flags: W
LayerCount: 2
Fore
SplineSet
67 637 m 0
 62.3330078125 671 60 692.666992188 60 702 c 0
 60 711.333007812 64.5 719.5 73.5 726.5 c 0
 82.5 733.5 93.3330078125 737 106 737 c 0
 118.666992188 737 129 733.333007812 137 726 c 0
 145 718.666992188 149 704 149 682 c 0
 149 660 142.666992188 607.333007812 130 524 c 0
 127.333007812 508 123.333007812 496.833007812 118 490.5 c 0
 112.666992188 484.166992188 105.5 481 96.5 481 c 0
 87.5 481 79 482.333007812 71 485 c 1
 73 497 74 516.833007812 74 544.5 c 0
 74 572.166992188 71.6669921875 603 67 637 c 0
EndSplineSet
Validated: 1
EndChar

StartChar: parenleft
Encoding: 40 40 9
Width: 343
GlyphClass: 2
Flags: W
LayerCount: 2
Fore
SplineSet
110.5 89.5 m 0
 96.8330078125 149.166992188 89.998046875 207.33203125 89.998046875 263.999023438 c 0
 89.998046875 320.666015625 96.8310546875 378.333007812 110.498046875 437 c 0
 124.165039062 495.666992188 140.33203125 545.833984375 158.999023438 587.500976562 c 0
 177.666015625 629.16796875 196.999023438 663.500976562 216.999023438 690.500976562 c 0
 236.999023438 717.500976562 253.166015625 731.000976562 265.499023438 731.000976562 c 0
 277.83203125 731.000976562 289.33203125 723.333984375 299.999023438 708.000976562 c 1
 258.666015625 661.333984375 225.333007812 596.500976562 200 513.500976562 c 0
 174.666992188 430.500976562 162 346.000976562 162 260.000976562 c 0
 162 174.000976562 175 90.66796875 201 10.0009765625 c 0
 227 -70.666015625 260 -133.999023438 300 -179.999023438 c 1
 289.333007812 -195.33203125 278 -202.999023438 266 -202.999023438 c 0
 254 -202.999023438 238.166992188 -189.83203125 218.5 -163.499023438 c 0
 198.833007812 -137.166015625 179.333007812 -103.333007812 160 -62 c 0
 140.666992188 -20.6669921875 124.166992188 29.8330078125 110.5 89.5 c 0
EndSplineSet
Validated: 1
Substitution2: "'sups' Superscript lookup 0 subtable" parenleft.superior
EndChar

StartChar: parenright
Encoding: 41 41 10
Width: 320
GlyphClass: 2
Flags: W
LayerCount: 2
Fore
SplineSet
209.5 437 m 0
 223.166992188 378.333007812 229.998046875 320.66796875 229.998046875 264.000976562 c 0
 229.998046875 207.333984375 223.165039062 149.166992188 209.498046875 89.5 c 0
 195.831054688 29.8330078125 179.331054688 -20.6669921875 159.998046875 -62 c 0
 140.665039062 -103.333007812 121.165039062 -137.166015625 101.498046875 -163.499023438 c 0
 81.8310546875 -189.83203125 65.998046875 -202.999023438 53.998046875 -202.999023438 c 0
 41.998046875 -202.999023438 30.6650390625 -195.33203125 19.998046875 -179.999023438 c 1
 59.998046875 -133.999023438 92.998046875 -70.666015625 118.998046875 10.0009765625 c 0
 144.998046875 90.66796875 157.998046875 174.000976562 157.998046875 260.000976562 c 0
 157.998046875 346.000976562 145.331054688 430.500976562 119.998046875 513.500976562 c 0
 94.6650390625 596.500976562 61.33203125 661.333984375 19.9990234375 708.000976562 c 1
 30.666015625 723.333984375 42.166015625 731.000976562 54.4990234375 731.000976562 c 0
 66.83203125 731.000976562 82.9990234375 717.500976562 102.999023438 690.500976562 c 0
 122.999023438 663.500976562 142.33203125 629.16796875 160.999023438 587.500976562 c 0
 179.666015625 545.833984375 195.833007812 495.666992188 209.5 437 c 0
EndSplineSet
Validated: 1
Substitution2: "'sups' Superscript lookup 0 subtable" parenright.superior
EndChar

StartChar: asterisk
Encoding: 42 42 11
Width: 406
GlyphClass: 2
Flags: W
LayerCount: 2
Fore
SplineSet
201 530 m 1
 190.333007812 515.333007812 165 473.666992188 125 405 c 1
 112.333007812 409.666992188 100.833007812 416.666992188 90.5 426 c 0
 80.1669921875 435.333007812 75 444.833007812 75 454.5 c 0
 75 464.166992188 79.8330078125 474.5 89.5 485.5 c 0
 99.1669921875 496.5 112.166992188 509.833007812 128.5 525.5 c 0
 144.833007812 541.166992188 155.333007812 551.333984375 160 556.000976562 c 1
 138.666992188 565.333984375 97 580.666992188 35 602 c 1
 37.6669921875 617.333007812 43 631.166015625 51 643.499023438 c 0
 59 655.83203125 67.6669921875 661.999023438 77 661.999023438 c 0
 86.3330078125 661.999023438 94.666015625 660.166015625 101.999023438 656.499023438 c 0
 109.33203125 652.83203125 121.83203125 644.999023438 139.499023438 632.999023438 c 0
 157.166015625 620.999023438 169.666015625 612.666015625 176.999023438 607.999023438 c 1
 175.666015625 625.999023438 170.666015625 669.33203125 161.999023438 737.999023438 c 1
 173.33203125 741.33203125 183.999023438 742.999023438 193.999023438 742.999023438 c 0
 225.33203125 742.999023438 240.999023438 729.999023438 240.999023438 703.999023438 c 0
 240.999023438 697.33203125 236.666015625 664.33203125 227.999023438 604.999023438 c 1
 241.33203125 613.666015625 275.999023438 638.333007812 331.999023438 679 c 1
 351.33203125 662.333007812 360.999023438 644.333007812 360.999023438 625 c 0
 360.999023438 611 353.33203125 600 337.999023438 592 c 0
 319.33203125 582 287.665039062 569 242.998046875 553 c 1
 257.665039062 537.666992188 292.33203125 506 346.999023438 458 c 1
 331.666015625 430.666992188 313.333007812 417 292 417 c 0
 283.333007812 417 275 421.5 267 430.5 c 0
 259 439.5 247.5 456 232.5 480 c 0
 217.5 504 207 520.666992188 201 530 c 1
EndSplineSet
Validated: 1
EndChar

StartChar: plus
Encoding: 43 43 12
Width: 535
GlyphClass: 2
Flags: W
LayerCount: 2
Fore
SplineSet
303 445 m 2
 296.000976562 280.00390625 l 1
 374.66796875 280.00390625 437.000976562 282.670898438 483.000976562 288.00390625 c 1
 485.000976562 282.00390625 486.000976562 272.50390625 486.000976562 259.50390625 c 0
 486.000976562 246.50390625 482.66796875 236.00390625 476.000976562 228.00390625 c 0
 469.333984375 220.00390625 460.666992188 216.00390625 450 216.00390625 c 2
 295 223.00390625 l 1
 295 150.336914062 297.666992188 84.669921875 303 26.0029296875 c 1
 293 24.0029296875 282.666992188 23.0029296875 272 23.0029296875 c 0
 261.333007812 23.0029296875 251.833007812 26.169921875 243.5 32.5029296875 c 0
 235.166992188 38.8359375 231 47.6689453125 231 59.001953125 c 2
 238 224.001953125 l 1
 172 223.334960938 110 220.66796875 52 216.000976562 c 1
 50 226.000976562 49 236.16796875 49 246.500976562 c 0
 49 256.833984375 52 266.333984375 58 275.000976562 c 0
 64 283.66796875 73 288.000976562 85 288.000976562 c 2
 239 281.000976562 l 1
 239 366.333984375 236.333007812 432.000976562 231 478.000976562 c 1
 237 480.000976562 246.5 481.000976562 259.5 481.000976562 c 0
 272.5 481.000976562 283 477.66796875 291 471.000976562 c 0
 299 464.333984375 303 455.666992188 303 445 c 2
EndSplineSet
Validated: 1
Substitution2: "'sups' Superscript lookup 0 subtable" plus.superior
EndChar

StartChar: comma
Encoding: 44 44 13
Width: 227
GlyphClass: 2
Flags: W
LayerCount: 2
Fore
SplineSet
107 -22 m 0
 107 10.6669921875 90.6669921875 30.3310546875 58 36.998046875 c 1
 51.3330078125 47.6650390625 48 59.33203125 48 71.9990234375 c 0
 48 84.666015625 53.6669921875 95.8330078125 65 105.5 c 0
 76.3330078125 115.166992188 90.3330078125 120 107 120 c 0
 123.666992188 120 138.166992188 112.333007812 150.5 97 c 0
 162.833007812 81.6669921875 169 55.5 169 18.5 c 0
 169 -18.5 157.5 -54.6669921875 134.5 -90 c 0
 111.5 -125.333007812 84.3330078125 -143 53 -143 c 0
 35.6669921875 -143 27 -133 27 -113 c 0
 27 -107.666992188 27.3330078125 -103.666992188 28 -101 c 2
 33 -101 l 2
 54.3330078125 -101 72 -93 86 -77 c 0
 100 -61 107 -42.6669921875 107 -22 c 0
EndSplineSet
Validated: 1
EndChar

StartChar: hyphen
Encoding: 45 45 14
Width: 230
GlyphClass: 2
Flags: W
LayerCount: 2
Fore
SplineSet
61 294 m 2
 144 290 l 2
 175.333007812 290 201.333007812 292.333007812 222 297 c 1
 224 291 225 281.666992188 225 269 c 0
 225 256.333007812 221.666992188 246.333007812 215 239 c 0
 208.333007812 231.666992188 199.666015625 228 188.999023438 228 c 2
 111.999023438 233 l 2
 80.666015625 233 52.666015625 230.333007812 27.9990234375 225 c 1
 25.9990234375 235 24.9990234375 245.166992188 24.9990234375 255.5 c 0
 24.9990234375 265.833007812 27.83203125 274.833007812 33.4990234375 282.5 c 0
 39.166015625 290.166992188 48.3330078125 294 61 294 c 2
EndSplineSet
Validated: 1
Substitution2: "'sups' Superscript lookup 0 subtable" hyphen.superior
EndChar

StartChar: period
Encoding: 46 46 15
Width: 231
GlyphClass: 2
Flags: W
LayerCount: 2
Fore
SplineSet
111 -10 m 0
 94.3330078125 -10 80 -4 68 8 c 0
 56 20 50 35 50 53 c 0
 50 71 56 86.1669921875 68 98.5 c 0
 80 110.833007812 94.3330078125 117 111 117 c 0
 127.666992188 117 141.833984375 110.833007812 153.500976562 98.5 c 0
 165.16796875 86.1669921875 171.000976562 71 171.000976562 53 c 0
 171.000976562 35 165.16796875 20 153.500976562 8 c 0
 141.833984375 -4 127.666992188 -10 111 -10 c 0
EndSplineSet
Validated: 1
EndChar

StartChar: slash
Encoding: 47 47 16
Width: 258
GlyphClass: 2
Flags: W
LayerCount: 2
Fore
SplineSet
129 113 m 2
 114.333007812 15.6669921875 104.333007812 -61.666015625 99 -118.999023438 c 1
 90.3330078125 -120.999023438 82.3330078125 -121.999023438 75 -121.999023438 c 0
 53 -121.999023438 42 -112.666015625 42 -93.9990234375 c 0
 42 -89.33203125 73.3330078125 111.000976562 136 507.000976562 c 0
 150.666992188 604.333984375 160.666992188 681.666992188 166 739 c 1
 187 742 l 2
 211 742 223 733 223 715 c 2
 129 113 l 2
EndSplineSet
Validated: 1
EndChar

StartChar: zero
Encoding: 48 48 17
Width: 535
GlyphClass: 2
Flags: W
LayerCount: 2
Fore
SplineSet
267 -10 m 0
 194.333007812 -10 136.666015625 20.8330078125 93.9990234375 82.5 c 0
 51.33203125 144.166992188 29.9990234375 227.166992188 29.9990234375 331.5 c 0
 29.9990234375 435.833007812 51.33203125 518.833007812 93.9990234375 580.5 c 0
 136.666015625 642.166992188 194.333007812 673 267 673 c 0
 339.666992188 673 397.5 642.166992188 440.5 580.5 c 0
 483.5 518.833007812 505 436 505 332 c 0
 505 228 483.5 145 440.5 83 c 0
 397.5 21 339.666992188 -10 267 -10 c 0
428 314 m 0
 428 422 404.000976562 506.000976562 356.000976562 566.000976562 c 0
 331.333984375 598.000976562 301.666992188 614.000976562 267 614.000976562 c 0
 220.333007812 614.000976562 181.666015625 589.66796875 150.999023438 541.000976562 c 0
 120.33203125 492.333984375 104.999023438 432.666992188 104.999023438 362 c 0
 104.999023438 247.333007812 128.666015625 159.333007812 175.999023438 98 c 0
 201.33203125 65.3330078125 231.33203125 49 265.999023438 49 c 0
 314.666015625 49 353.833007812 74.3330078125 383.5 125 c 0
 413.166992188 175.666992188 428 238.666992188 428 314 c 0
EndSplineSet
Validated: 1
Substitution2: "'onum' Oldstyle Figures Lookup 0" zerooldstyle
Substitution2: "'sups' Superscript lookup 0 subtable" zero.superior
EndChar

StartChar: one
Encoding: 49 49 18
Width: 535
GlyphClass: 2
Flags: W
LayerCount: 2
Fore
SplineSet
245 57 m 1
 247.000976562 354 l 2
 247.000976562 448 246.000976562 532 244.000976562 606 c 1
 172.000976562 598.666992188 130.333984375 594 119.000976562 592 c 1
 117.000976562 600 116.000976562 607.333007812 116.000976562 614 c 0
 116.000976562 639.333007812 129.000976562 653.666015625 155.000976562 656.999023438 c 0
 226.333984375 667.666015625 268.000976562 672.999023438 280.000976562 672.999023438 c 0
 308.66796875 672.999023438 323.000976562 660.33203125 323.000976562 634.999023438 c 0
 323.000976562 629.666015625 322.333984375 610.333007812 321.000976562 577 c 0
 317.000976562 477 315.000976562 388.333007812 315.000976562 311 c 2
 315.000976562 249 l 2
 315.000976562 161.666992188 317.333984375 96.6669921875 322.000976562 54 c 1
 368.000976562 54 402.66796875 55.3330078125 426.000976562 58 c 1
 428.66796875 50 430.000976562 42.6669921875 430.000976562 36 c 0
 430.000976562 10.6669921875 417.000976562 -2 391.000976562 -2 c 2
 231.000976562 0 l 2
 180.333984375 0 144.666992188 -0.3330078125 124 -1 c 1
 120.666992188 9 119 17 119 23 c 0
 119 45.6669921875 138.333007812 57 177 57 c 2
 245 57 l 1
EndSplineSet
Validated: 1
Substitution2: "'onum' Oldstyle Figures Lookup 0" oneoldstyle
Substitution2: "'sups' Superscript lookup 0 subtable" one.superior
EndChar

StartChar: two
Encoding: 50 50 19
Width: 535
GlyphClass: 2
Flags: W
LayerCount: 2
Fore
SplineSet
95 528 m 1
 69.6669921875 531.333007812 56.9990234375 542.333984375 56.9990234375 561.000976562 c 0
 56.9990234375 587.000976562 77.83203125 612.16796875 119.499023438 636.500976562 c 0
 161.166015625 660.833984375 207.166015625 673.000976562 257.499023438 673.000976562 c 0
 307.83203125 673.000976562 351.83203125 657.000976562 389.499023438 625.000976562 c 0
 427.166015625 593.000976562 445.999023438 548.000976562 445.999023438 490.000976562 c 0
 445.999023438 455.333984375 440.666015625 423.333984375 429.999023438 394.000976562 c 0
 419.33203125 364.66796875 399.83203125 332.66796875 371.499023438 298.000976562 c 0
 343.166015625 263.333984375 310.999023438 229.166992188 274.999023438 195.5 c 0
 238.999023438 161.833007812 188.33203125 117.666015625 122.999023438 62.9990234375 c 1
 145.666015625 61.666015625 183.666015625 60.9990234375 236.999023438 60.9990234375 c 0
 290.33203125 60.9990234375 333.33203125 62.666015625 365.999023438 65.9990234375 c 0
 398.666015625 69.33203125 431.333007812 76.9990234375 464 88.9990234375 c 1
 473.333007812 72.33203125 478 56.83203125 478 42.4990234375 c 0
 478 28.166015625 469.666992188 17.9990234375 453 11.9990234375 c 0
 427.666992188 2.666015625 370.166992188 -2.0009765625 280.5 -2.0009765625 c 0
 190.833007812 -2.0009765625 126.333007812 -1.333984375 87 -0.0009765625 c 0
 56.3330078125 -0.0009765625 41 15.666015625 41 46.9990234375 c 0
 41 52.9990234375 41.3330078125 57.33203125 42 59.9990234375 c 0
 178 185.999023438 266.833007812 273.999023438 308.5 323.999023438 c 0
 350.166992188 373.999023438 371 421.83203125 371 467.499023438 c 0
 371 513.166015625 359 548.833007812 335 574.5 c 0
 311 600.166992188 283.333007812 613 252 613 c 0
 220.666992188 613 191 605.166992188 163 589.5 c 0
 135 573.833007812 112.333007812 553.333007812 95 528 c 1
EndSplineSet
Validated: 1
Substitution2: "'onum' Oldstyle Figures Lookup 0" twooldstyle
Substitution2: "'sups' Superscript lookup 0 subtable" two.superior
EndChar

StartChar: three
Encoding: 51 51 20
Width: 535
GlyphClass: 2
Flags: W
LayerCount: 2
Fore
SplineSet
325 364 m 1
 373.666992188 342.666992188 407.000976562 317.999023438 425.000976562 289.999023438 c 0
 443.000976562 261.999023438 452.000976562 228.666015625 452.000976562 189.999023438 c 0
 452.000976562 135.999023438 431.000976562 89.166015625 389.000976562 49.4990234375 c 0
 347.000976562 9.83203125 289.333984375 -10.0009765625 216.000976562 -10.0009765625 c 0
 166.000976562 -10.0009765625 128.333984375 -3.66796875 103.000976562 8.9990234375 c 0
 77.66796875 21.666015625 65.0009765625 35.9990234375 65.0009765625 51.9990234375 c 0
 65.0009765625 73.33203125 77.333984375 85.6650390625 102.000976562 88.998046875 c 1
 124.66796875 62.3310546875 162.16796875 48.998046875 214.500976562 48.998046875 c 0
 266.833984375 48.998046875 306.666992188 62.8310546875 334 90.498046875 c 0
 361.333007812 118.165039062 375 150.665039062 375 187.998046875 c 0
 375 225.331054688 359 257.6640625 327 284.997070312 c 0
 295 312.330078125 250.666992188 325.997070312 194 325.997070312 c 0
 184 325.997070312 176.666992188 326.6640625 172 327.997070312 c 0
 160.666992188 329.997070312 155 340.997070312 155 360.997070312 c 0
 155 366.330078125 155.333007812 370.997070312 156 374.997070312 c 1
 222 374.997070312 271.5 388.1640625 304.5 414.497070312 c 0
 337.5 440.830078125 354 470.163085938 354 502.49609375 c 0
 354 534.829101562 344.333007812 561.49609375 325 582.49609375 c 0
 305.666992188 603.49609375 282.166992188 613.99609375 254.5 613.99609375 c 0
 226.833007812 613.99609375 201.333007812 607.329101562 178 593.99609375 c 0
 154.666992188 580.663085938 135.666992188 561.330078125 121 535.997070312 c 1
 108.333007812 535.997070312 98 539.330078125 90 545.997070312 c 0
 82 552.6640625 78 560.331054688 78 568.998046875 c 0
 78 592.331054688 96.3330078125 615.498046875 133 638.498046875 c 0
 169.666992188 661.498046875 213.166992188 672.998046875 263.5 672.998046875 c 0
 313.833007812 672.998046875 354.333007812 657.831054688 385 627.498046875 c 0
 415.666992188 597.165039062 431 560.998046875 431 518.998046875 c 0
 431 487.665039062 422.166992188 458.33203125 404.5 430.999023438 c 0
 386.833007812 403.666015625 360.333007812 381.333007812 325 364 c 1
EndSplineSet
Validated: 1
Substitution2: "'onum' Oldstyle Figures Lookup 0" threeoldstyle
Substitution2: "'sups' Superscript lookup 0 subtable" three.superior
EndChar

StartChar: four
Encoding: 52 52 21
Width: 535
GlyphClass: 2
Flags: W
LayerCount: 2
Fore
SplineSet
115 273 m 1
 149.666992188 271 186.166992188 270 224.5 270 c 0
 262.833007812 270 300 271 336 273 c 1
 336 363 337 465 339 579 c 1
 311 548.333007812 275.666992188 503.833007812 233 445.5 c 0
 190.333007812 387.166992188 151 329.666992188 115 273 c 1
331 661 m 0
 340.333007812 669 353.33203125 673 369.999023438 673 c 0
 386.666015625 673 400.999023438 672.333007812 412.999023438 671 c 0
 412.999023438 669 411.999023438 654.333007812 409.999023438 627 c 0
 405.999023438 555.666992188 403.999023438 468.333984375 403.999023438 365.000976562 c 2
 403.999023438 276.000976562 l 1
 453.33203125 280.000976562 485.999023438 285.66796875 501.999023438 293.000976562 c 1
 507.33203125 281.000976562 509.999023438 266.66796875 509.999023438 250.000976562 c 0
 509.999023438 233.333984375 502.83203125 222.500976562 488.499023438 217.500976562 c 0
 474.166015625 212.500976562 446.333007812 209.66796875 405 209.000976562 c 1
 405 110.333984375 411.333007812 40.0009765625 424 -1.9990234375 c 1
 412 -7.33203125 397.333007812 -9.9990234375 380 -9.9990234375 c 0
 362.666992188 -9.9990234375 350.666992188 -5.666015625 344 3.0009765625 c 0
 337.333007812 11.66796875 334 28.0009765625 334 52.0009765625 c 0
 334 76.0009765625 334.666992188 128.000976562 336 208.000976562 c 1
 194.666992188 208.000976562 105 210.333984375 67 215.000976562 c 0
 51.6669921875 217.000976562 44 230.66796875 44 256.000976562 c 0
 44 265.333984375 44.6669921875 274.666992188 46 284 c 0
 74.6669921875 333.333007812 122 402 188 490 c 0
 254 578 301.666992188 635 331 661 c 0
EndSplineSet
Validated: 1
Substitution2: "'onum' Oldstyle Figures Lookup 0" fouroldstyle
Substitution2: "'sups' Superscript lookup 0 subtable" four.superior
EndChar

StartChar: five
Encoding: 53 53 22
Width: 535
GlyphClass: 2
Flags: W
LayerCount: 2
Fore
SplineSet
432 636 m 0
 432 606.666992188 406.16796875 592.001953125 354.500976562 592.001953125 c 0
 302.833984375 592.001953125 241.000976562 594.001953125 169.000976562 598.001953125 c 1
 155.000976562 423.001953125 l 1
 180.333984375 427.001953125 204.000976562 429.001953125 226.000976562 429.001953125 c 0
 299.333984375 429.001953125 354.833984375 410.168945312 392.500976562 372.501953125 c 0
 430.16796875 334.834960938 449.000976562 284.001953125 449.000976562 220.001953125 c 0
 449.000976562 156.001953125 428.000976562 101.668945312 386.000976562 57.001953125 c 0
 344.000976562 12.3349609375 286.000976562 -9.998046875 212.000976562 -9.998046875 c 0
 162.000976562 -9.998046875 124.333984375 -3.6650390625 99.0009765625 9.001953125 c 0
 73.66796875 21.6689453125 61.0009765625 36.001953125 61.0009765625 52.001953125 c 0
 61.0009765625 73.3349609375 73.333984375 85.66796875 98.0009765625 89.0009765625 c 1
 120.66796875 62.333984375 158.16796875 49.0009765625 210.500976562 49.0009765625 c 0
 262.833984375 49.0009765625 302.833984375 65.16796875 330.500976562 97.5009765625 c 0
 358.16796875 129.833984375 372.000976562 167.666992188 372.000976562 211 c 0
 372.000976562 254.333007812 356.000976562 292 324.000976562 324 c 0
 292.000976562 356 248.333984375 372 193.000976562 372 c 0
 164.333984375 372 136.666992188 370.333007812 110 367 c 1
 103.333007812 373.666992188 100 385.666992188 100 403 c 0
 100 420.333007812 104.333007812 507.333007812 113 664 c 1
 132.333007812 662.666992188 182 662 262 662 c 0
 342 662 395.333007812 664.666992188 422 670 c 1
 428.666992188 660 432 648.666992188 432 636 c 0
EndSplineSet
Validated: 1
Substitution2: "'onum' Oldstyle Figures Lookup 0" fiveoldstyle
Substitution2: "'sups' Superscript lookup 0 subtable" five.superior
EndChar

StartChar: six
Encoding: 54 54 23
Width: 535
GlyphClass: 2
Flags: W
LayerCount: 2
Fore
SplineSet
363.5 294.5 m 0
 339.166992188 320.833007812 305.833007812 334.000976562 263.5 334.000976562 c 0
 221.166992188 334.000976562 178 314.000976562 134 274.000976562 c 1
 136 165.333984375 159.333007812 96.6669921875 204 68 c 0
 223.333007812 55.3330078125 247 49 275 49 c 0
 314.333007812 49 345 62.8330078125 367 90.5 c 0
 389 118.166992188 400 152.5 400 193.5 c 0
 400 234.5 387.833007812 268.166992188 363.5 294.5 c 0
266.999023438 -9.9990234375 m 0
 227.666015625 -9.9990234375 193.998046875 -2 165.998046875 14 c 0
 137.998046875 30 116.665039062 52 101.998046875 80 c 0
 73.3310546875 132.666992188 58.998046875 197.666992188 58.998046875 275 c 0
 58.998046875 377.666992188 86.3310546875 468.666992188 140.998046875 548 c 0
 166.998046875 585.333007812 200.665039062 615.5 241.998046875 638.5 c 0
 283.331054688 661.5 328.6640625 673 377.997070312 673 c 0
 405.330078125 673 418.997070312 661.333007812 418.997070312 638 c 0
 418.997070312 630.666992188 417.6640625 621 414.997070312 609 c 1
 396.330078125 611.666992188 382.997070312 613 374.997070312 613 c 0
 303.6640625 613 247.331054688 585.666992188 205.998046875 531 c 0
 164.665039062 476.333007812 140.998046875 409.333007812 134.998046875 330 c 1
 182.331054688 370.666992188 232.998046875 391 286.998046875 391 c 0
 340.998046875 391 386.165039062 374 422.498046875 340 c 0
 458.831054688 306 476.998046875 260.833007812 476.998046875 204.5 c 0
 476.998046875 148.166992188 457.831054688 98.333984375 419.498046875 55.0009765625 c 0
 381.165039062 11.66796875 330.33203125 -9.9990234375 266.999023438 -9.9990234375 c 0
EndSplineSet
Validated: 1
Substitution2: "'onum' Oldstyle Figures Lookup 0" sixoldstyle
Substitution2: "'sups' Superscript lookup 0 subtable" six.superior
EndChar

StartChar: seven
Encoding: 55 55 24
Width: 535
GlyphClass: 2
Flags: W
LayerCount: 2
Fore
SplineSet
411 597 m 1
 309 593.666992188 214.99609375 592.00390625 128.99609375 592.00390625 c 0
 78.3291015625 592.00390625 52.99609375 606.670898438 52.99609375 636.00390625 c 0
 52.99609375 645.336914062 56.3291015625 656.669921875 62.99609375 670.002929688 c 1
 95.6630859375 664.669921875 132.99609375 662.002929688 174.99609375 662.002929688 c 0
 342.99609375 662.002929688 443.99609375 662.669921875 477.99609375 664.002929688 c 1
 483.329101562 653.3359375 485.99609375 641.168945312 485.99609375 627.501953125 c 0
 485.99609375 613.834960938 483.99609375 601.001953125 479.99609375 589.001953125 c 0
 458.663085938 522.334960938 369.663085938 345.66796875 212.99609375 59.0009765625 c 0
 199.663085938 34.333984375 187.830078125 16.6669921875 177.497070312 6 c 0
 167.1640625 -4.6669921875 156.331054688 -10 144.998046875 -10 c 0
 125.665039062 -10 104.33203125 3 80.9990234375 29 c 1
 137.666015625 88.3330078125 199.833007812 178.5 267.5 299.5 c 0
 335.166992188 420.5 383 519.666992188 411 597 c 1
EndSplineSet
Validated: 1
Substitution2: "'onum' Oldstyle Figures Lookup 0" sevenoldstyle
Substitution2: "'sups' Superscript lookup 0 subtable" seven.superior
EndChar

StartChar: eight
Encoding: 56 56 25
Width: 535
GlyphClass: 2
Flags: W
LayerCount: 2
Fore
SplineSet
278 398 m 1
 343.333007812 426 375.999023438 469.333007812 375.999023438 528 c 0
 375.999023438 555.333007812 364.83203125 576.5 342.499023438 591.5 c 0
 320.166015625 606.5 293.333007812 614 262 614 c 0
 230.666992188 614 204 606.5 182 591.5 c 0
 160 576.5 149 555.333007812 149 528 c 0
 149 476 192 432.666992188 278 398 c 1
162.499023438 86.5 m 0
 187.499023438 61.5 220.831054688 49.0009765625 262.498046875 49.0009765625 c 0
 304.165039062 49.0009765625 337.33203125 61.5009765625 361.999023438 86.5009765625 c 0
 386.666015625 111.500976562 398.999023438 142.16796875 398.999023438 178.500976562 c 0
 398.999023438 214.833984375 386.666015625 244.666992188 361.999023438 268 c 0
 337.33203125 291.333007812 298.999023438 314.333007812 246.999023438 337 c 1
 206.33203125 319 175.83203125 297.5 155.499023438 272.5 c 0
 135.166015625 247.5 124.999023438 216.5 124.999023438 179.5 c 0
 124.999023438 142.5 137.499023438 111.5 162.499023438 86.5 c 0
262.998046875 -9.9990234375 m 0
 194.998046875 -9.9990234375 142.499023438 7.6669921875 105.499023438 43 c 0
 68.4990234375 78.3330078125 49.9990234375 120.833007812 49.9990234375 170.5 c 0
 49.9990234375 220.166992188 62.4990234375 259.833984375 87.4990234375 289.500976562 c 0
 112.499023438 319.16796875 147.33203125 343.66796875 191.999023438 363.000976562 c 1
 151.999023438 385.000976562 122.666015625 408.333984375 103.999023438 433.000976562 c 0
 85.33203125 457.66796875 75.9990234375 490.66796875 75.9990234375 532.000976562 c 0
 75.9990234375 573.333984375 94.166015625 607.166992188 130.499023438 633.5 c 0
 166.83203125 659.833007812 210.665039062 673 261.998046875 673 c 0
 313.331054688 673 357.331054688 659.833007812 393.998046875 633.5 c 0
 430.665039062 607.166992188 448.998046875 573 448.998046875 531 c 0
 448.998046875 459 408.665039062 406 327.998046875 372 c 1
 377.331054688 348.666992188 414.331054688 321.833984375 438.998046875 291.500976562 c 0
 463.665039062 261.16796875 475.998046875 221.000976562 475.998046875 171.000976562 c 0
 475.998046875 121.000976562 457.498046875 78.333984375 420.498046875 43.0009765625 c 0
 383.498046875 7.66796875 330.998046875 -9.9990234375 262.998046875 -9.9990234375 c 0
EndSplineSet
Validated: 1
Substitution2: "'onum' Oldstyle Figures Lookup 0" eightoldstyle
Substitution2: "'sups' Superscript lookup 0 subtable" eight.superior
EndChar

StartChar: nine
Encoding: 57 57 26
Width: 535
GlyphClass: 2
Flags: W
LayerCount: 2
Fore
SplineSet
157.5 369.5 m 0
 181.833007812 343.166992188 215.166992188 329.999023438 257.5 329.999023438 c 0
 299.833007812 329.999023438 343 349.999023438 387 389.999023438 c 1
 385 498.666015625 361.333007812 567.333007812 316 596 c 0
 297.333007812 608.666992188 274 615 246 615 c 0
 206.666992188 615 176 601.166992188 154 573.5 c 0
 132 545.833007812 121 511.5 121 470.5 c 0
 121 429.5 133.166992188 395.833007812 157.5 369.5 c 0
254.000976562 673.999023438 m 0
 293.333984375 673.999023438 327.001953125 666 355.001953125 650 c 0
 383.001953125 634 404.668945312 612 420.001953125 584 c 0
 448.001953125 531.333007812 462.001953125 466.333007812 462.001953125 389 c 0
 462.001953125 286.333007812 434.668945312 195.333007812 380.001953125 116 c 0
 354.001953125 78.6669921875 320.334960938 48.5 279.001953125 25.5 c 0
 237.668945312 2.5 192.3359375 -9 143.002929688 -9 c 0
 115.669921875 -9 102.002929688 2.6669921875 102.002929688 26 c 0
 102.002929688 33.3330078125 103.3359375 43 106.002929688 55 c 1
 124.669921875 52.3330078125 138.002929688 51 146.002929688 51 c 0
 217.3359375 51 273.668945312 78.3330078125 315.001953125 133 c 0
 356.334960938 187.666992188 380.001953125 254.666992188 386.001953125 334 c 1
 338.668945312 293.333007812 288.001953125 273 234.001953125 273 c 0
 180.001953125 273 134.834960938 290 98.501953125 324 c 0
 62.1689453125 358 44.001953125 403.166992188 44.001953125 459.5 c 0
 44.001953125 515.833007812 63.1689453125 565.666015625 101.501953125 608.999023438 c 0
 139.834960938 652.33203125 190.66796875 673.999023438 254.000976562 673.999023438 c 0
EndSplineSet
Validated: 1
Substitution2: "'onum' Oldstyle Figures Lookup 0" nineoldstyle
Substitution2: "'sups' Superscript lookup 0 subtable" nine.superior
EndChar

StartChar: colon
Encoding: 58 58 27
Width: 231
GlyphClass: 2
Flags: W
LayerCount: 2
Fore
SplineSet
111 -10 m 0
 94.3330078125 -10 80 -4 68 8 c 0
 56 20 50 35 50 53 c 0
 50 71 56 86.1669921875 68 98.5 c 0
 80 110.833007812 94.3330078125 117 111 117 c 0
 127.666992188 117 141.833984375 110.833007812 153.500976562 98.5 c 0
 165.16796875 86.1669921875 171.000976562 71 171.000976562 53 c 0
 171.000976562 35 165.16796875 20 153.500976562 8 c 0
 141.833984375 -4 127.666992188 -10 111 -10 c 0
111 351 m 0
 94.3330078125 351 80 357 68 369 c 0
 56 381 50 396 50 414 c 0
 50 432 56 447.166992188 68 459.5 c 0
 80 471.833007812 94.3330078125 478 111 478 c 0
 127.666992188 478 141.833984375 471.833007812 153.500976562 459.5 c 0
 165.16796875 447.166992188 171.000976562 432 171.000976562 414 c 0
 171.000976562 396 165.16796875 381 153.500976562 369 c 0
 141.833984375 357 127.666992188 351 111 351 c 0
EndSplineSet
Validated: 1
EndChar

StartChar: semicolon
Encoding: 59 59 28
Width: 246
GlyphClass: 2
Flags: W
LayerCount: 2
Fore
SplineSet
108 351 m 0
 91.3330078125 351 77 357 65 369 c 0
 53 381 47 396 47 414 c 0
 47 432 53 447.166992188 65 459.5 c 0
 77 471.833007812 91.3330078125 478 108 478 c 0
 124.666992188 478 138.833984375 471.833007812 150.500976562 459.5 c 0
 162.16796875 447.166992188 168.000976562 432 168.000976562 414 c 0
 168.000976562 396 162.16796875 381 150.500976562 369 c 0
 138.833984375 357 124.666992188 351 108 351 c 0
107 -22 m 0
 107 10.6669921875 90.6669921875 30.3310546875 58 36.998046875 c 1
 51.3330078125 47.6650390625 48 59.33203125 48 71.9990234375 c 0
 48 84.666015625 53.6669921875 95.8330078125 65 105.5 c 0
 76.3330078125 115.166992188 90.3330078125 120 107 120 c 0
 123.666992188 120 138.166992188 112.333007812 150.5 97 c 0
 162.833007812 81.6669921875 169 55.5 169 18.5 c 0
 169 -18.5 157.5 -54.6669921875 134.5 -90 c 0
 111.5 -125.333007812 84.3330078125 -143 53 -143 c 0
 35.6669921875 -143 27 -133 27 -113 c 0
 27 -107.666992188 27.3330078125 -103.666992188 28 -101 c 2
 33 -101 l 2
 54.3330078125 -101 72 -93 86 -77 c 0
 100 -61 107 -42.6669921875 107 -22 c 0
EndSplineSet
Validated: 1
EndChar

StartChar: less
Encoding: 60 60 29
Width: 535
GlyphClass: 2
Flags: W
LayerCount: 2
Fore
SplineSet
399 438 m 1
 181.999023438 251 l 1
 206.666015625 226.333007812 278.999023438 160 398.999023438 52 c 1
 386.999023438 29.3330078125 370.666015625 18 349.999023438 18 c 0
 340.666015625 18 332.333007812 21.6669921875 325 29 c 2
 106 251 l 1
 325 461 l 2
 333.666992188 468.333007812 342.5 472 351.5 472 c 0
 360.5 472 369.5 468.5 378.5 461.5 c 0
 387.5 454.5 394.333007812 446.666992188 399 438 c 1
EndSplineSet
Validated: 1
EndChar

StartChar: equal
Encoding: 61 61 30
Width: 535
GlyphClass: 2
Flags: W
LayerCount: 2
Fore
SplineSet
430 116 m 2
 274.000976562 124 l 2
 198.000976562 124 130.66796875 121.333007812 72.0009765625 116 c 1
 70.0009765625 126 69.0009765625 136.166992188 69.0009765625 146.5 c 0
 69.0009765625 156.833007812 72.0009765625 166.333007812 78.0009765625 175 c 0
 84.0009765625 183.666992188 93.0009765625 188 105.000976562 188 c 0
 107.000976562 188 128.000976562 186.833007812 168.000976562 184.5 c 0
 208.000976562 182.166992188 257.000976562 181 315.000976562 181 c 0
 373.000976562 181 422.333984375 183.333007812 463.000976562 188 c 1
 465.000976562 182 466.000976562 172.5 466.000976562 159.5 c 0
 466.000976562 146.5 462.66796875 136 456.000976562 128 c 0
 449.333984375 120 440.666992188 116 430 116 c 2
430.000976562 316 m 2
 274.001953125 324 l 2
 198.001953125 324 130.668945312 321.333007812 72.001953125 316 c 1
 70.001953125 326 69.001953125 336.166992188 69.001953125 346.5 c 0
 69.001953125 356.833007812 72.001953125 366.333007812 78.001953125 375 c 0
 84.001953125 383.666992188 93.001953125 388 105.001953125 388 c 0
 107.001953125 388 128.001953125 386.833007812 168.001953125 384.5 c 0
 208.001953125 382.166992188 257.001953125 381 315.001953125 381 c 0
 373.001953125 381 422.334960938 383.333007812 463.001953125 388 c 1
 465.001953125 382 466.001953125 372.5 466.001953125 359.5 c 0
 466.001953125 346.5 462.668945312 336 456.001953125 328 c 0
 449.334960938 320 440.66796875 316 430.000976562 316 c 2
EndSplineSet
Validated: 1
EndChar

StartChar: greater
Encoding: 62 62 31
Width: 535
GlyphClass: 2
Flags: W
LayerCount: 2
Fore
SplineSet
337 251 m 1
 119.999023438 438 l 1
 124.666015625 446.666992188 131.499023438 454.5 140.499023438 461.5 c 0
 149.499023438 468.5 158.499023438 472 167.499023438 472 c 0
 176.499023438 472 185.33203125 468.333007812 193.999023438 461 c 2
 412.999023438 251 l 1
 193.999023438 29 l 2
 186.666015625 21.6669921875 178.333007812 18 169 18 c 0
 148.333007812 18 132 29.3330078125 120 52 c 1
 240 160 312.333007812 226.333007812 337 251 c 1
EndSplineSet
Validated: 1
EndChar

StartChar: question
Encoding: 63 63 32
Width: 382
GlyphClass: 2
Flags: W
LayerCount: 2
Fore
SplineSet
219 199 m 1
 205 192.333007812 192.333007812 188.99609375 181 188.99609375 c 0
 150.333007812 188.99609375 135 211.663085938 135 256.99609375 c 0
 135 296.99609375 153 337.329101562 189 377.99609375 c 0
 203.666992188 394.663085938 218.666992188 411.330078125 234 427.997070312 c 0
 270 468.6640625 288 510.331054688 288 552.998046875 c 0
 288 580.998046875 276.333007812 601.998046875 253 615.998046875 c 0
 239 623.998046875 220.666992188 627.998046875 198 627.998046875 c 0
 175.333007812 627.998046875 152.5 621.165039062 129.5 607.498046875 c 0
 106.5 593.831054688 92 575.6640625 86 552.997070312 c 1
 55.3330078125 557.6640625 40 572.331054688 40 596.998046875 c 0
 40 623.665039062 54.6669921875 644.83203125 84 660.499023438 c 0
 113.333007812 676.166015625 149.5 683.999023438 192.5 683.999023438 c 0
 235.5 683.999023438 272 674.999023438 302 656.999023438 c 0
 342 633.666015625 362 598.333007812 362 551 c 0
 362 521 356.666992188 494 346 470 c 0
 335.333007812 446 322.5 426.333007812 307.5 411 c 0
 292.5 395.666992188 277.333007812 381 262 367 c 0
 226 333 208 298 208 262 c 0
 208 242 211.666992188 221 219 199 c 1
182 -10.00390625 m 0
 165.333007812 -10.00390625 151 -4.00390625 139 7.99609375 c 0
 127 19.99609375 121 34.99609375 121 52.99609375 c 0
 121 70.99609375 127 86.1630859375 139 98.49609375 c 0
 151 110.829101562 165.333007812 116.99609375 182 116.99609375 c 0
 198.666992188 116.99609375 212.833984375 110.829101562 224.500976562 98.49609375 c 0
 236.16796875 86.1630859375 242.000976562 70.99609375 242.000976562 52.99609375 c 0
 242.000976562 34.99609375 236.16796875 19.99609375 224.500976562 7.99609375 c 0
 212.833984375 -4.00390625 198.666992188 -10.00390625 182 -10.00390625 c 0
EndSplineSet
Validated: 1
Substitution2: "'c2sc' Capitals to Small Capitals in Latin lookup 0 subtable" questionsmall
EndChar

StartChar: at
Encoding: 64 64 33
Width: 861
GlyphClass: 2
Flags: W
LayerCount: 2
Fore
SplineSet
363 54 m 0
 330.333007812 54 303.668945312 66.166015625 283.001953125 90.4990234375 c 0
 262.334960938 114.83203125 252.001953125 149.999023438 252.001953125 195.999023438 c 0
 252.001953125 263.999023438 269.668945312 322.166015625 305.001953125 370.499023438 c 0
 340.334960938 418.83203125 385.501953125 442.999023438 440.501953125 442.999023438 c 0
 495.501953125 442.999023438 544.001953125 427.666015625 586.001953125 396.999023438 c 1
 561.334960938 298.33203125 549.001953125 223.33203125 549.001953125 171.999023438 c 0
 549.001953125 135.33203125 562.168945312 116.999023438 588.501953125 116.999023438 c 0
 614.834960938 116.999023438 640.16796875 134.666015625 664.500976562 169.999023438 c 0
 688.833984375 205.33203125 701.000976562 255.33203125 701.000976562 319.999023438 c 0
 701.000976562 384.666015625 682.500976562 436.499023438 645.500976562 475.499023438 c 0
 608.500976562 514.499023438 551.66796875 533.999023438 475.000976562 533.999023438 c 0
 413.000976562 533.999023438 357.000976562 515.83203125 307.000976562 479.499023438 c 0
 257.000976562 443.166015625 219.500976562 398.499023438 194.500976562 345.499023438 c 0
 169.500976562 292.499023438 157.000976562 235.499023438 157.000976562 174.499023438 c 0
 157.000976562 113.499023438 176.500976562 61.166015625 215.500976562 17.4990234375 c 0
 254.500976562 -26.16796875 312.000976562 -48.0009765625 388.000976562 -48.0009765625 c 0
 424.66796875 -48.0009765625 458.16796875 -40.66796875 488.500976562 -26.0009765625 c 0
 518.833984375 -11.333984375 539.333984375 7.9990234375 550.000976562 31.9990234375 c 1
 578.66796875 19.9990234375 593.000976562 3.9990234375 593.000976562 -16.0009765625 c 0
 593.000976562 -42.0009765625 572.833984375 -64.0009765625 532.500976562 -82.0009765625 c 0
 492.16796875 -100.000976562 445.000976562 -109.000976562 391.000976562 -109.000976562 c 0
 292.333984375 -109.000976562 217.333984375 -81.333984375 166.000976562 -26.0009765625 c 0
 114.66796875 29.33203125 89.0009765625 97.9990234375 89.0009765625 179.999023438 c 0
 89.0009765625 228.666015625 98.333984375 276.999023438 117.000976562 324.999023438 c 0
 135.66796875 372.999023438 161.500976562 416.83203125 194.500976562 456.499023438 c 0
 227.500976562 496.166015625 269.833984375 528.333007812 321.500976562 553 c 0
 373.16796875 577.666992188 429.334960938 590 490.001953125 590 c 0
 576.001953125 590 644.334960938 566.166992188 695.001953125 518.5 c 0
 745.668945312 470.833007812 771.001953125 410.5 771.001953125 337.5 c 0
 771.001953125 264.5 749.168945312 201.5 705.501953125 148.5 c 0
 661.834960938 95.5 617.66796875 69 573.000976562 69 c 0
 528.333984375 69 499.666992188 94.6669921875 487 146 c 1
 453 84.6669921875 411.666992188 54 363 54 c 0
481.002929688 203.999023438 m 1
 483.669921875 221.33203125 487.171875 248.330078125 491.504882812 284.997070312 c 0
 495.837890625 321.6640625 498.670898438 345.331054688 500.00390625 355.998046875 c 1
 477.336914062 374.665039062 452.169921875 383.998046875 424.502929688 383.998046875 c 0
 396.8359375 383.998046875 372.8359375 368.665039062 352.502929688 337.998046875 c 0
 332.169921875 307.331054688 322.002929688 266.998046875 322.002929688 216.998046875 c 0
 322.002929688 187.665039062 327.002929688 163.33203125 337.002929688 143.999023438 c 0
 347.002929688 124.666015625 360.669921875 114.999023438 378.002929688 114.999023438 c 0
 395.3359375 114.999023438 413.3359375 122.666015625 432.002929688 137.999023438 c 0
 450.669921875 153.33203125 467.002929688 175.33203125 481.002929688 203.999023438 c 1
EndSplineSet
Validated: 1
EndChar

StartChar: A
Encoding: 65 65 34
Width: 551
GlyphClass: 2
Flags: W
LayerCount: 2
Fore
SplineSet
388 268 m 1
 365.333007812 327.333007812 331.000976562 427.666992188 285.000976562 569 c 1
 279.000976562 553.666992188 263.66796875 511 239.000976562 441 c 0
 214.333984375 371 192.666992188 313.333007812 174 268 c 1
 226 266.666992188 269.666992188 266 305 266 c 0
 340.333007812 266 368 266.666992188 388 268 c 1
409.000976562 209.000976562 m 1
 334.333984375 207.66796875 289 207.000976562 273 207.000976562 c 0
 257 207.000976562 215.666992188 207.66796875 149 209.000976562 c 1
 104.333007812 96.333984375 76.3330078125 19.6669921875 65 -21 c 1
 43 -16.3330078125 27.5 -11 18.5 -5 c 0
 9.5 1 5 8.5 5 17.5 c 0
 5 26.5 19.3330078125 64.3330078125 48 131 c 0
 144 357 210.333007812 533.333007812 247 660 c 1
 259.666992188 662 274 663 290 663 c 0
 306 663 317.333007812 660.166992188 324 654.5 c 0
 330.666992188 648.833007812 337.666992188 634 345 610 c 0
 387 474.666992188 429.166992188 351.833984375 471.5 241.500976562 c 0
 513.833007812 131.16796875 546.333007812 54.0009765625 569 10.0009765625 c 1
 550.333007812 -3.33203125 534.333007812 -9.9990234375 521 -9.9990234375 c 0
 499.666992188 -9.9990234375 485.333984375 -0.9990234375 478.000976562 17.0009765625 c 0
 465.333984375 49.66796875 442.333984375 113.66796875 409.000976562 209.000976562 c 1
EndSplineSet
Validated: 1
Substitution2: "'c2sc' Capitals to Small Capitals in Latin lookup 0 subtable" Asmall
EndChar

StartChar: B
Encoding: 66 66 35
Width: 547
GlyphClass: 2
Flags: W
LayerCount: 2
Fore
SplineSet
224 612 m 0
 208 612 185.333984375 610.666992188 156.000976562 608 c 1
 158.66796875 552 160.000976562 477 160.000976562 383 c 1
 181.333984375 381.666992188 199.666992188 381 215 381 c 0
 339 381 401 419 401 495 c 0
 401 573 342 612 224 612 c 0
272.000976562 51 m 0
 315.333984375 51 351.66796875 63.16796875 381.000976562 87.5009765625 c 0
 410.333984375 111.833984375 425.000976562 146.166992188 425.000976562 190.5 c 0
 425.000976562 234.833007812 408.500976562 269.333007812 375.500976562 294 c 0
 342.500976562 318.666992188 303.16796875 331 257.500976562 331 c 0
 211.833984375 331 179.000976562 329.333007812 159.000976562 326 c 1
 159.000976562 272.666992188 154.66796875 193 146.000976562 87 c 1
 158.66796875 77 177.16796875 68.5 201.500976562 61.5 c 0
 225.833984375 54.5 249.333984375 51 272.000976562 51 c 0
69.001953125 53.0009765625 m 1
 79.6689453125 129.000976562 85.0029296875 234.666992188 85.0029296875 370 c 0
 85.0029296875 505.333007812 80.669921875 602.333007812 72.0029296875 661 c 1
 121.3359375 669 178.3359375 673 243.002929688 673 c 0
 307.669921875 673 363.002929688 659.666992188 409.002929688 633 c 0
 455.002929688 606.333007812 478.002929688 561 478.002929688 497 c 0
 478.002929688 433 449.002929688 388 391.002929688 362 c 1
 465.002929688 330.666992188 502.002929688 273.666992188 502.002929688 191 c 0
 502.002929688 127.666992188 481.502929688 78.333984375 440.502929688 43.0009765625 c 0
 399.502929688 7.66796875 349.3359375 -9.9990234375 290.002929688 -9.9990234375 c 0
 193.3359375 -9.9990234375 119.668945312 11.0009765625 69.001953125 53.0009765625 c 1
EndSplineSet
Validated: 1
Substitution2: "'c2sc' Capitals to Small Capitals in Latin lookup 0 subtable" Bsmall
EndChar

StartChar: C
Encoding: 67 67 36
Width: 602
GlyphClass: 2
Flags: W
LayerCount: 2
Fore
SplineSet
514 134 m 1
 543.333007812 122 558 104.8359375 558 82.5029296875 c 0
 558 60.169921875 539 39.169921875 501 19.5029296875 c 0
 463 -0.1640625 416 -9.9970703125 360 -9.9970703125 c 0
 266 -9.9970703125 190.666992188 21.5029296875 134 84.5029296875 c 0
 77.3330078125 147.502929688 49 231.169921875 49 335.502929688 c 0
 49 439.8359375 77.3330078125 522.168945312 134 582.501953125 c 0
 190.666992188 642.834960938 267.333984375 673.001953125 364.000976562 673.001953125 c 0
 416.000976562 673.001953125 459.66796875 662.501953125 495.000976562 641.501953125 c 0
 530.333984375 620.501953125 548.000976562 594.668945312 548.000976562 564.001953125 c 0
 548.000976562 536.668945312 529.000976562 520.001953125 491.000976562 514.001953125 c 1
 478.333984375 546.668945312 458.333984375 571.168945312 431.000976562 587.501953125 c 0
 403.66796875 603.834960938 374.66796875 612.001953125 344.000976562 612.001953125 c 0
 281.333984375 612.001953125 230.166992188 587.168945312 190.5 537.501953125 c 0
 150.833007812 487.834960938 131 423.16796875 131 343.500976562 c 0
 131 263.833984375 151 195.166992188 191 137.5 c 0
 231 79.8330078125 287 51 359 51 c 0
 391 51 420.833007812 58 448.5 72 c 0
 476.166992188 86 498 106.666992188 514 134 c 1
EndSplineSet
Validated: 1
Substitution2: "'c2sc' Capitals to Small Capitals in Latin lookup 0 subtable" Csmall
EndChar

StartChar: D
Encoding: 68 68 37
Width: 635
GlyphClass: 2
Flags: W
HStem: -10 60.998<168.151 379.344> 611.999 61<154.331 345.432>
VStem: 81.0734 75.9266<138.772 609.875> 502.001 84<192.335 451.836>
LayerCount: 2
Fore
SplineSet
66 53 m 1
 75.3330078125 113.666992188 80.3349609375 213.999023438 81.001953125 353.999023438 c 0
 81.0496153623 364.003208413 81.0734464809 373.815053972 81.0734464809 383.434560468 c 0
 81.0734464809 508.431808139 77.0496153623 600.953035191 69.001953125 660.999023438 c 1
 109.001953125 668.999023438 157.834960938 672.999023438 215.501953125 672.999023438 c 0
 273.168945312 672.999023438 322.668945312 667.33203125 364.001953125 655.999023438 c 0
 405.334960938 644.666015625 443.16796875 626.499023438 477.500976562 601.499023438 c 0
 511.833984375 576.499023438 538.500976562 541.33203125 557.500976562 495.999023438 c 0
 576.500976562 450.666015625 586.000976562 396.333007812 586.000976562 333 c 0
 586.000976562 233 559.333984375 150.833007812 506.000976562 86.5 c 0
 452.66796875 22.1669921875 378.66796875 -10 284.000976562 -10 c 0
 189.333984375 -10 116.666992188 11 66 53 c 1
153.001953125 607.999023438 m 1
 155.668945312 561.999023438 157 486.331054688 157 380.998046875 c 0
 157 275.665039062 152.333007812 177.665039062 143 86.998046875 c 1
 179 62.998046875 220.666992188 50.998046875 268 50.998046875 c 0
 315.333007812 50.998046875 354.333007812 58.998046875 385 74.998046875 c 0
 415.666992188 90.998046875 439.333984375 112.665039062 456.000976562 139.998046875 c 0
 486.66796875 190.665039062 502.000976562 248.33203125 502.000976562 312.999023438 c 0
 502.000976562 412.33203125 477.333984375 486.999023438 428.000976562 536.999023438 c 0
 378.66796875 586.999023438 308.334960938 611.999023438 217.001953125 611.999023438 c 0
 202.334960938 611.999023438 181.001953125 610.666015625 153.001953125 607.999023438 c 1
EndSplineSet
Validated: 1
Substitution2: "'c2sc' Capitals to Small Capitals in Latin lookup 0 subtable" Dsmall
EndChar

StartChar: E
Encoding: 69 69 38
Width: 486
GlyphClass: 2
Flags: W
LayerCount: 2
Fore
SplineSet
78 57 m 2
 80.001953125 223.999023438 l 1
 80.001953125 423.999023438 l 2
 80.001953125 519.33203125 75.3349609375 596.999023438 66.001953125 656.999023438 c 1
 137.334960938 662.999023438 215.501953125 665.999023438 300.501953125 665.999023438 c 0
 385.501953125 665.999023438 434.001953125 660.999023438 446.001953125 650.999023438 c 0
 452.001953125 645.666015625 455.001953125 635.999023438 455.001953125 621.999023438 c 0
 455.001953125 607.999023438 452.334960938 594.33203125 447.001953125 580.999023438 c 1
 409.001953125 594.999023438 347.001953125 601.999023438 261.001953125 601.999023438 c 0
 225.668945312 601.999023438 189.001953125 600.999023438 151.001953125 598.999023438 c 1
 153.668945312 569.666015625 155.001953125 498.999023438 155.001953125 386.999023438 c 1
 234.001953125 386.999023438 l 2
 290.001953125 386.999023438 330.001953125 388.33203125 354.001953125 390.999023438 c 1
 356.668945312 385.666015625 358.001953125 376.166015625 358.001953125 362.499023438 c 0
 358.001953125 348.83203125 354.501953125 339.33203125 347.501953125 333.999023438 c 0
 340.501953125 328.666015625 328.834960938 325.666015625 312.501953125 324.999023438 c 0
 296.168945312 324.33203125 273.001953125 323.999023438 243.001953125 323.999023438 c 2
 155.001953125 323.999023438 l 1
 155.001953125 178.666015625 157.334960938 91.3330078125 162.001953125 62 c 1
 191.334960938 60.6669921875 215.001953125 60 233.001953125 60 c 0
 345.001953125 60 416.668945312 67.6669921875 448.001953125 83 c 1
 453.334960938 69.6669921875 456.001953125 56 456.001953125 42 c 0
 456.001953125 28 453.001953125 18.3330078125 447.001953125 13 c 0
 435.001953125 3 383.668945312 -2 293.001953125 -2 c 0
 202.334960938 -2 147.16796875 -1.5 127.500976562 -0.5 c 0
 107.833984375 0.5 94.6669921875 5.3330078125 88 14 c 0
 81.3330078125 22.6669921875 78 37 78 57 c 2
EndSplineSet
Validated: 1
Substitution2: "'c2sc' Capitals to Small Capitals in Latin lookup 0 subtable" Esmall
EndChar

StartChar: F
Encoding: 70 70 39
Width: 455
GlyphClass: 2
Flags: W
LayerCount: 2
Fore
SplineSet
78 54 m 2
 80.0009765625 230.999023438 l 1
 80.0009765625 423.999023438 l 2
 80.0009765625 519.33203125 75.333984375 596.999023438 66.0009765625 656.999023438 c 1
 137.333984375 662.999023438 215.500976562 665.999023438 300.500976562 665.999023438 c 0
 385.500976562 665.999023438 434.000976562 660.999023438 446.000976562 650.999023438 c 0
 452.000976562 645.666015625 455.000976562 635.999023438 455.000976562 621.999023438 c 0
 455.000976562 607.999023438 452.333984375 594.33203125 447.000976562 580.999023438 c 1
 409.000976562 594.999023438 347.000976562 601.999023438 261.000976562 601.999023438 c 0
 225.66796875 601.999023438 189.000976562 600.999023438 151.000976562 598.999023438 c 1
 153.66796875 569.666015625 155.000976562 529.999023438 155.000976562 479.999023438 c 2
 155.000976562 376.999023438 l 1
 234.000976562 376.999023438 l 2
 289.333984375 376.999023438 329.333984375 378.33203125 354.000976562 380.999023438 c 1
 356.66796875 375.666015625 358.000976562 365.166015625 358.000976562 349.499023438 c 0
 358.000976562 333.83203125 352.66796875 323.999023438 342.000976562 319.999023438 c 0
 331.333984375 315.999023438 306.666992188 313.999023438 268 313.999023438 c 2
 155 313.999023438 l 1
 155 202.999023438 l 2
 155 112.999023438 161.333007812 46.9990234375 174 4.9990234375 c 1
 162 -0.333984375 146.333007812 -3.0009765625 127 -3.0009765625 c 0
 107.666992188 -3.0009765625 94.6669921875 1.33203125 88 9.9990234375 c 0
 81.3330078125 18.666015625 78 33.3330078125 78 54 c 2
EndSplineSet
Validated: 1
Substitution2: "'c2sc' Capitals to Small Capitals in Latin lookup 0 subtable" Fsmall
EndChar

StartChar: G
Encoding: 71 71 40
Width: 615
GlyphClass: 2
Flags: W
LayerCount: 2
Fore
SplineSet
558 85 m 0
 558 61 538.999023438 39.1708984375 500.999023438 19.50390625 c 0
 462.999023438 -0.1630859375 415.999023438 -9.99609375 359.999023438 -9.99609375 c 0
 265.999023438 -9.99609375 190.666015625 21.50390625 133.999023438 84.50390625 c 0
 77.33203125 147.50390625 48.9990234375 231.170898438 48.9990234375 335.50390625 c 0
 48.9990234375 439.836914062 77.33203125 522.169921875 133.999023438 582.502929688 c 0
 190.666015625 642.8359375 267.333007812 673.002929688 364 673.002929688 c 0
 416 673.002929688 459.666992188 662.502929688 495 641.502929688 c 0
 530.333007812 620.502929688 548 594.669921875 548 564.002929688 c 0
 548 536.669921875 529 520.002929688 491 514.002929688 c 1
 478.333007812 546.669921875 458.333007812 571.169921875 431 587.502929688 c 0
 403.666992188 603.8359375 374.666992188 612.002929688 344 612.002929688 c 0
 281.333007812 612.002929688 230.166015625 587.169921875 190.499023438 537.502929688 c 0
 150.83203125 487.8359375 130.999023438 423.168945312 130.999023438 343.501953125 c 0
 130.999023438 263.834960938 150.999023438 195.16796875 190.999023438 137.500976562 c 0
 230.999023438 79.833984375 286.666015625 51.0009765625 357.999023438 51.0009765625 c 0
 411.33203125 51.0009765625 454.33203125 67.0009765625 486.999023438 99.0009765625 c 1
 485.666015625 182.333984375 483.333007812 249.666992188 480 301 c 1
 491.333007812 303 503.333007812 304 516 304 c 0
 548.666992188 304 565 291.333007812 565 266 c 2
 562 202 l 2
 559.333007812 159.333007812 558 120.333007812 558 85 c 0
EndSplineSet
Validated: 1
Substitution2: "'c2sc' Capitals to Small Capitals in Latin lookup 0 subtable" Gsmall
EndChar

StartChar: H
Encoding: 72 72 41
Width: 627
GlyphClass: 2
Flags: W
HStem: -3.00098 21G<110.333 129.667 504.333 523.667> 331.999 58.998<148 467> 645.996 20G<99 123.333 493 517.333>
VStem: 73 75<10.4097 331.999 390.997 627.833> 467 75<10.4087 331.999 390.997 627.803>
LayerCount: 2
Fore
SplineSet
71 54 m 2
 73 230.99609375 l 1
 73 430.99609375 l 2
 73 524.99609375 70.6669921875 602.329101562 66 662.99609375 c 1
 77.3330078125 664.99609375 91 665.99609375 107 665.99609375 c 0
 139.666992188 665.99609375 156 653.329101562 156 627.99609375 c 0
 156 624.663085938 155.333007812 611.330078125 154 587.997070312 c 0
 150 516.6640625 148 450.997070312 148 390.997070312 c 1
 180 389.6640625 233.166992188 388.997070312 307.5 388.997070312 c 0
 381.833007812 388.997070312 435 389.6640625 467 390.997070312 c 1
 467 441.997070312 l 2
 466.333007812 537.997070312 464 611.6640625 460 662.997070312 c 1
 471.333007812 664.997070312 485 665.997070312 501 665.997070312 c 0
 533.666992188 665.997070312 550 653.330078125 550 627.997070312 c 0
 550 623.997070312 549.333007812 610.6640625 548 587.997070312 c 0
 544 518.6640625 542 457.331054688 542 403.998046875 c 2
 542 202.998046875 l 2
 542 112.998046875 548.333007812 46.998046875 561 4.998046875 c 1
 549 -0.3349609375 533.333007812 -3.001953125 514 -3.001953125 c 0
 494.666992188 -3.001953125 481.666992188 1.3310546875 475 9.998046875 c 0
 468.333007812 18.6650390625 465 33.33203125 465 53.9990234375 c 2
 467 230.999023438 l 1
 467 331.999023438 l 1
 433 330.666015625 379.333007812 329.999023438 306 329.999023438 c 0
 232.666992188 329.999023438 180 330.666015625 148 331.999023438 c 1
 148 202.999023438 l 2
 148 112.999023438 154.333007812 46.9990234375 167 4.9990234375 c 1
 155 -0.333984375 139.333007812 -3.0009765625 120 -3.0009765625 c 0
 100.666992188 -3.0009765625 87.6669921875 1.33203125 81 9.9990234375 c 0
 74.3330078125 18.666015625 71 33.3330078125 71 54 c 2
EndSplineSet
Validated: 1
Substitution2: "'c2sc' Capitals to Small Capitals in Latin lookup 0 subtable" Hsmall
EndChar

StartChar: I
Encoding: 73 73 42
Width: 221
GlyphClass: 2
Flags: W
HStem: -3.00098 21G<110.333 129.667> 645.998 20G<99 123.333>
VStem: 73 75<10.4097 627.804>
LayerCount: 2
Fore
SplineSet
71 54 m 2
 73 230.998046875 l 1
 73 430.998046875 l 2
 73 524.998046875 70.6669921875 602.331054688 66 662.998046875 c 1
 77.3330078125 664.998046875 91 665.998046875 107 665.998046875 c 0
 139.666992188 665.998046875 156 653.331054688 156 627.998046875 c 0
 156 623.998046875 155.333007812 610.665039062 154 587.998046875 c 0
 150 518.665039062 148 457.33203125 148 403.999023438 c 2
 148 202.999023438 l 2
 148 112.999023438 154.333007812 46.9990234375 167 4.9990234375 c 1
 155 -0.333984375 139.333007812 -3.0009765625 120 -3.0009765625 c 0
 100.666992188 -3.0009765625 87.6669921875 1.33203125 81 9.9990234375 c 0
 74.3330078125 18.666015625 71 33.3330078125 71 54 c 2
EndSplineSet
Validated: 1
Substitution2: "'c2sc' Capitals to Small Capitals in Latin lookup 0 subtable" Ismall
EndChar

StartChar: J
Encoding: 74 74 43
Width: 222
GlyphClass: 2
Flags: W
LayerCount: 2
Fore
SplineSet
74 136 m 2
 73.0009765625 430.999023438 l 2
 73.0009765625 524.999023438 70.66796875 602.33203125 66.0009765625 662.999023438 c 1
 77.333984375 664.999023438 91.0009765625 665.999023438 107.000976562 665.999023438 c 0
 139.66796875 665.999023438 156.000976562 653.33203125 156.000976562 627.999023438 c 0
 156.000976562 624.666015625 155.333984375 612.333007812 154.000976562 591 c 0
 150.000976562 527 148.000976562 470.333007812 148.000976562 421 c 2
 148.000976562 111 l 2
 148.000976562 74.3330078125 144.000976562 41.666015625 136.000976562 12.9990234375 c 0
 128.000976562 -15.66796875 118.16796875 -38.0009765625 106.500976562 -54.0009765625 c 0
 94.833984375 -70.0009765625 82.0009765625 -83.333984375 68.0009765625 -94.0009765625 c 0
 44.0009765625 -110.66796875 22.333984375 -119.000976562 3.0009765625 -119.000976562 c 0
 -21.666015625 -119.000976562 -35.3330078125 -100.000976562 -38 -62.0009765625 c 1
 0.6669921875 -54.0009765625 29.6669921875 -40.0009765625 49 -20.0009765625 c 0
 63 -5.333984375 71 24.3330078125 73 69 c 0
 73.6669921875 83.6669921875 74 106 74 136 c 2
EndSplineSet
Validated: 1
Substitution2: "'c2sc' Capitals to Small Capitals in Latin lookup 0 subtable" Jsmall
EndChar

StartChar: K
Encoding: 75 75 44
Width: 515
GlyphClass: 2
Flags: W
LayerCount: 2
Fore
SplineSet
71 54 m 2
 73.001953125 230.999023438 l 1
 73.001953125 430.999023438 l 2
 73.001953125 524.999023438 70.6689453125 602.33203125 66.001953125 662.999023438 c 1
 79.3349609375 664.999023438 90.66796875 665.999023438 100.000976562 665.999023438 c 0
 137.333984375 665.999023438 156.000976562 653.33203125 156.000976562 627.999023438 c 0
 156.000976562 624.666015625 155.333984375 610.333007812 154.000976562 585 c 0
 150.000976562 509 148.000976562 438.666992188 148.000976562 374 c 1
 205.333984375 420 261.333984375 470.833007812 316.000976562 526.5 c 0
 370.66796875 582.166992188 404.000976562 628 416.000976562 664 c 1
 450.66796875 658 468.000976562 645.333007812 468.000976562 626 c 0
 468.000976562 606.666992188 444.66796875 572.333984375 398.000976562 523.000976562 c 0
 351.333984375 473.66796875 296.666992188 422.66796875 234 370.000976562 c 1
 308 246.66796875 369 155.66796875 417 97.0009765625 c 0
 425 87.0009765625 431.333007812 80.0009765625 436 76.0009765625 c 0
 450.666992188 62.0009765625 468 55.0009765625 488 55.0009765625 c 0
 496 55.0009765625 503.666992188 56.0009765625 511 58.0009765625 c 1
 513.666992188 48.66796875 515 38.66796875 515 28.0009765625 c 0
 515 17.333984375 509.333007812 8.333984375 498 1.0009765625 c 0
 486.666992188 -6.33203125 472.666992188 -9.9990234375 456 -9.9990234375 c 0
 427.333007812 -9.9990234375 397.333007812 7.0009765625 366 41.0009765625 c 0
 338 71.0009765625 311 105.66796875 285 145.000976562 c 0
 259 184.333984375 235.333007812 220.666992188 214 254 c 0
 192.666992188 287.333007812 178.666992188 309 172 319 c 1
 160.666992188 310.333007812 152.666992188 304.333007812 148 301 c 1
 148 203 l 2
 148 113 154.333007812 47 167 5 c 1
 156.333007812 -0.3330078125 141 -3 121 -3 c 0
 101 -3 87.6669921875 1.5 81 10.5 c 0
 74.3330078125 19.5 71 34 71 54 c 2
EndSplineSet
Validated: 1
Substitution2: "'c2sc' Capitals to Small Capitals in Latin lookup 0 subtable" Ksmall
EndChar

StartChar: L
Encoding: 76 76 45
Width: 429
GlyphClass: 2
Flags: W
HStem: -2 62<152.799 419.078> 645.999 20G<98.999 123.333>
VStem: 72.999 75<73.5868 627.805>
LayerCount: 2
Fore
SplineSet
71 57 m 2
 72.9990234375 223.999023438 l 1
 72.9990234375 430.999023438 l 2
 72.9990234375 524.999023438 70.666015625 602.33203125 65.9990234375 662.999023438 c 1
 77.33203125 664.999023438 90.9990234375 665.999023438 106.999023438 665.999023438 c 0
 139.666015625 665.999023438 155.999023438 653.33203125 155.999023438 627.999023438 c 0
 155.999023438 623.999023438 155.33203125 610.666015625 153.999023438 587.999023438 c 0
 149.999023438 518.666015625 147.999023438 457.333007812 147.999023438 404 c 2
 147.999023438 314 l 2
 147.999023438 175.333007812 150.33203125 91.3330078125 154.999023438 62 c 1
 182.999023438 60.6669921875 204.999023438 60 220.999023438 60 c 0
 324.999023438 60 391.999023438 67.6669921875 421.999023438 83 c 1
 426.666015625 69 428.999023438 55.1669921875 428.999023438 41.5 c 0
 428.999023438 27.8330078125 425.999023438 18.3330078125 419.999023438 13 c 0
 408.666015625 3 360.333007812 -2 275 -2 c 0
 189.666992188 -2 137.5 -1.5 118.5 -0.5 c 0
 99.5 0.5 86.8330078125 5.3330078125 80.5 14 c 0
 74.1669921875 22.6669921875 71 37 71 57 c 2
EndSplineSet
Validated: 1
Substitution2: "'c2sc' Capitals to Small Capitals in Latin lookup 0 subtable" Lsmall
EndChar

StartChar: M
Encoding: 77 77 46
Width: 797
GlyphClass: 2
Flags: W
LayerCount: 2
Fore
SplineSet
83 54 m 2
 85 230.995117188 l 1
 85 482.995117188 l 2
 85 557.662109375 78.6669921875 616.329101562 66 658.99609375 c 1
 87.3330078125 664.329101562 106.666015625 666.99609375 123.999023438 666.99609375 c 0
 151.999023438 666.99609375 175.666015625 650.99609375 194.999023438 618.99609375 c 0
 220.999023438 573.663085938 247.33203125 518.330078125 273.999023438 452.997070312 c 0
 300.666015625 387.6640625 321.499023438 332.497070312 336.499023438 287.497070312 c 0
 351.499023438 242.497070312 372.666015625 177.330078125 399.999023438 91.9970703125 c 1
 420.666015625 174.6640625 448.499023438 263.997070312 483.499023438 359.997070312 c 0
 518.499023438 455.997070312 557.666015625 542.330078125 600.999023438 618.997070312 c 0
 618.999023438 650.997070312 643.33203125 666.997070312 673.999023438 666.997070312 c 0
 696.666015625 666.997070312 715.333007812 664.330078125 730 658.997070312 c 1
 718 618.997070312 712 544.6640625 712 435.997070312 c 2
 712 202.997070312 l 2
 712 112.997070312 718.333007812 46.9970703125 731 4.9970703125 c 1
 719 -0.3359375 703.333007812 -3.0029296875 684 -3.0029296875 c 0
 664.666992188 -3.0029296875 651.666992188 1.330078125 645 9.9970703125 c 0
 638.333007812 18.6640625 635 29.3310546875 635 41.998046875 c 0
 635 54.6650390625 635.333007812 81.998046875 636 123.998046875 c 0
 636.666992188 249.998046875 637 394.665039062 637 557.998046875 c 1
 575.666992188 434.665039062 508.666992188 249.33203125 436 1.9990234375 c 1
 428 -0.66796875 419 -2.0009765625 409 -2.0009765625 c 0
 383 -2.0009765625 366.333007812 6.666015625 359 23.9990234375 c 0
 343 59.9990234375 312.833007812 140.166015625 268.5 264.499023438 c 0
 224.166992188 388.83203125 184.666992188 485.999023438 150 555.999023438 c 1
 150 202.999023438 l 2
 150 112.999023438 156.333007812 46.9990234375 169 4.9990234375 c 1
 157 -0.333984375 143 -3.0009765625 127 -3.0009765625 c 0
 111 -3.0009765625 99.6669921875 1.33203125 93 9.9990234375 c 0
 86.3330078125 18.666015625 83 33.3330078125 83 54 c 2
EndSplineSet
Validated: 1
Substitution2: "'c2sc' Capitals to Small Capitals in Latin lookup 0 subtable" Msmall
EndChar

StartChar: N
Encoding: 78 78 47
Width: 629
GlyphClass: 2
Flags: W
LayerCount: 2
Fore
SplineSet
485 119 m 1
 481 167 479 250.997070312 479 370.997070312 c 2
 479 430.997070312 l 2
 479 524.997070312 476.666992188 602.330078125 472 662.997070312 c 1
 483.333007812 664.997070312 493.666015625 665.997070312 502.999023438 665.997070312 c 0
 535.666015625 665.997070312 551.999023438 653.330078125 551.999023438 627.997070312 c 0
 551.999023438 623.997070312 551.33203125 610.6640625 549.999023438 587.997070312 c 0
 545.999023438 518.6640625 543.999023438 457.331054688 543.999023438 403.998046875 c 2
 543.999023438 232.998046875 l 2
 543.999023438 138.998046875 546.33203125 61.6650390625 550.999023438 0.998046875 c 1
 540.33203125 -1.6689453125 529.33203125 -3.001953125 517.999023438 -3.001953125 c 0
 495.33203125 -3.001953125 477.999023438 5.998046875 465.999023438 23.998046875 c 0
 438.666015625 65.998046875 391.333007812 146.498046875 324 265.498046875 c 0
 256.666992188 384.498046875 199 479.998046875 151 551.998046875 c 1
 150.333007812 526.665039062 150 410.33203125 150 202.999023438 c 0
 150 112.999023438 156.333007812 46.9990234375 169 4.9990234375 c 1
 157 -0.333984375 143 -3.0009765625 127 -3.0009765625 c 0
 111 -3.0009765625 99.6669921875 1.33203125 93 9.9990234375 c 0
 86.3330078125 18.666015625 83 33.3330078125 83 54 c 2
 85 231 l 1
 85 431 l 2
 85 542.333007812 78.6669921875 618.333007812 66 659 c 1
 78.6669921875 664.333007812 93 667 109 667 c 0
 125 667 136.666992188 664.666992188 144 660 c 0
 172.666992188 642.666992188 223.666992188 573.166992188 297 451.5 c 0
 370.333007812 329.833007812 433 219 485 119 c 1
EndSplineSet
Validated: 1
Substitution2: "'c2sc' Capitals to Small Capitals in Latin lookup 0 subtable" Nsmall
EndChar

StartChar: O
Encoding: 79 79 48
Width: 712
GlyphClass: 2
Flags: W
LayerCount: 2
Fore
SplineSet
579.5 83 m 0
 523.833007812 21 449.166015625 -10 355.499023438 -10 c 0
 261.83203125 -10 187.33203125 21 131.999023438 83 c 0
 76.666015625 145 48.9990234375 228 48.9990234375 332 c 0
 48.9990234375 436 76.666015625 518.833007812 131.999023438 580.5 c 0
 187.33203125 642.166992188 261.83203125 673 355.499023438 673 c 0
 449.166015625 673 523.833007812 642.166992188 579.5 580.5 c 0
 635.166992188 518.833007812 663 436 663 332 c 0
 663 228 635.166992188 145 579.5 83 c 0
529 515 m 0
 512.333007812 544.333007812 489 567.83203125 459 585.499023438 c 0
 429 603.166015625 394.666992188 611.999023438 356 611.999023438 c 0
 287.333007812 611.999023438 232.666015625 588.499023438 191.999023438 541.499023438 c 0
 151.33203125 494.499023438 130.999023438 434.666015625 130.999023438 361.999023438 c 0
 130.999023438 282.666015625 147.666015625 212.333007812 180.999023438 151 c 0
 197.666015625 120.333007812 220.833007812 96 250.5 78 c 0
 280.166992188 60 314.666992188 51 354 51 c 0
 426 51 481.5 75.1669921875 520.5 123.5 c 0
 559.5 171.833007812 579 234.5 579 311.5 c 0
 579 388.5 562.333007812 456.333007812 529 515 c 0
EndSplineSet
Validated: 1
Substitution2: "'c2sc' Capitals to Small Capitals in Latin lookup 0 subtable" Osmall
EndChar

StartChar: P
Encoding: 80 80 49
Width: 504
GlyphClass: 2
Flags: W
LayerCount: 2
Fore
SplineSet
154 329 m 1
 183.333007812 312.333007812 218.66796875 304.000976562 260.000976562 304.000976562 c 0
 301.333984375 304.000976562 334.833984375 317.16796875 360.500976562 343.500976562 c 0
 386.16796875 369.833984375 399.000976562 405.333984375 399.000976562 450.000976562 c 0
 399.000976562 511.333984375 384.66796875 553.666992188 356.000976562 577 c 0
 327.333984375 600.333007812 282.666992188 612 222 612 c 0
 204.666992188 612 180.666992188 610.666992188 150 608 c 1
 152.666992188 569.333007812 154 501.333007812 154 404 c 2
 154 329 l 1
77.001953125 54.0009765625 m 2
 79.00390625 231 l 1
 79.00390625 431 l 2
 79.00390625 523 74.6708984375 599.666992188 66.00390625 661 c 1
 115.336914062 669 165.00390625 673 215.00390625 673 c 0
 393.670898438 673 483.00390625 601 483.00390625 457 c 0
 483.00390625 387.666992188 462.170898438 334.666992188 420.50390625 298 c 0
 378.836914062 261.333007812 332.169921875 243 280.502929688 243 c 0
 228.8359375 243 186.668945312 253.666992188 154.001953125 275 c 1
 154.001953125 203 l 2
 154.001953125 113 160.334960938 47 173.001953125 5 c 1
 161.001953125 -0.3330078125 145.334960938 -3 126.001953125 -3 c 0
 106.668945312 -3 93.6689453125 1.3330078125 87.001953125 10 c 0
 80.3349609375 18.6669921875 77.001953125 33.333984375 77.001953125 54.0009765625 c 2
EndSplineSet
Validated: 1
Substitution2: "'c2sc' Capitals to Small Capitals in Latin lookup 0 subtable" Psmall
EndChar

StartChar: Q
Encoding: 81 81 50
Width: 712
GlyphClass: 2
Flags: W
LayerCount: 2
Fore
SplineSet
529 515 m 0
 512.333007812 544.333007812 489 567.83203125 459 585.499023438 c 0
 429 603.166015625 394.666992188 611.999023438 356 611.999023438 c 0
 287.333007812 611.999023438 232.666015625 588.499023438 191.999023438 541.499023438 c 0
 151.33203125 494.499023438 130.999023438 434.666015625 130.999023438 361.999023438 c 0
 130.999023438 282.666015625 147.666015625 212.333007812 180.999023438 151 c 0
 197.666015625 120.333007812 220.833007812 96 250.5 78 c 0
 280.166992188 60 314.666992188 51 354 51 c 0
 426 51 481.5 75.1669921875 520.5 123.5 c 0
 559.5 171.833007812 579 234.5 579 311.5 c 0
 579 388.5 562.333007812 456.333007812 529 515 c 0
325 -9.0009765625 m 1
 240.333007812 -2.333984375 173.166992188 31.4990234375 123.5 92.4990234375 c 0
 73.8330078125 153.499023438 49 234.666015625 49 335.999023438 c 0
 49 437.33203125 76.6669921875 518.83203125 132 580.499023438 c 0
 187.333007812 642.166015625 261.833007812 672.999023438 355.5 672.999023438 c 0
 449.166992188 672.999023438 523.833984375 642.166015625 579.500976562 580.499023438 c 0
 635.16796875 518.83203125 663.000976562 437.499023438 663.000976562 336.499023438 c 0
 663.000976562 235.499023438 638.16796875 154.666015625 588.500976562 93.9990234375 c 0
 538.833984375 33.33203125 471.666992188 -0.66796875 387 -8.0009765625 c 1
 395 -37.333984375 409.166992188 -59.333984375 429.5 -74.0009765625 c 0
 449.833007812 -88.66796875 473.5 -96.0009765625 500.5 -96.0009765625 c 0
 527.5 -96.0009765625 548 -93.333984375 562 -88.0009765625 c 0
 576 -82.66796875 592.333007812 -72.66796875 611 -58.0009765625 c 1
 617.666992188 -62.0009765625 624.166992188 -69.0009765625 630.5 -79.0009765625 c 0
 636.833007812 -89.0009765625 640 -97.333984375 640 -104.000976562 c 0
 640 -120.66796875 626.5 -133.66796875 599.5 -143.000976562 c 0
 572.5 -152.333984375 542 -157.000976562 508 -157.000976562 c 0
 459.333007812 -157.000976562 418.833007812 -143.66796875 386.5 -117.000976562 c 0
 354.166992188 -90.333984375 333.666992188 -54.333984375 325 -9.0009765625 c 1
EndSplineSet
Validated: 1
Substitution2: "'c2sc' Capitals to Small Capitals in Latin lookup 0 subtable" Qsmall
EndChar

StartChar: R
Encoding: 82 82 51
Width: 530
GlyphClass: 2
Flags: W
LayerCount: 2
Fore
SplineSet
77 54 m 2
 79.0009765625 231.000976562 l 1
 79.0009765625 431.000976562 l 2
 79.0009765625 523.000976562 74.66796875 599.66796875 66.0009765625 661.000976562 c 1
 115.333984375 669.000976562 165.000976562 673.000976562 215.000976562 673.000976562 c 0
 393.66796875 673.000976562 483.000976562 606.66796875 483.000976562 474.000976562 c 0
 483.000976562 419.333984375 468.000976562 375.166992188 438.000976562 341.5 c 0
 408.000976562 307.833007812 368.333984375 286.333007812 319.000976562 277 c 0
 319.000976562 276.333007812 324.66796875 264 336.000976562 240 c 0
 347.333984375 216 355.166992188 200 359.5 192 c 0
 363.833007812 184 370.666015625 171 379.999023438 153 c 0
 397.33203125 119.666992188 412.33203125 96.6669921875 424.999023438 84 c 0
 442.33203125 64.6669921875 463.665039062 55 488.998046875 55 c 0
 496.998046875 55 505.998046875 56 515.998046875 58 c 1
 521.998046875 46 524.998046875 36 524.998046875 28 c 0
 524.998046875 2.6669921875 499.998046875 -10 449.998046875 -10 c 0
 422.665039062 -10 397.33203125 3.3330078125 373.999023438 30 c 0
 361.33203125 44.6669921875 350.499023438 57.6669921875 341.499023438 69 c 0
 332.499023438 80.3330078125 321.499023438 98 308.499023438 122 c 0
 295.499023438 146 286.33203125 163.166992188 280.999023438 173.5 c 0
 275.666015625 183.833007812 266.666015625 202.833007812 253.999023438 230.5 c 0
 241.33203125 258.166992188 233.999023438 274 231.999023438 278 c 0
 213.33203125 280.666992188 203.999023438 288 203.999023438 300 c 0
 203.999023438 306 205.666015625 315 208.999023438 327 c 1
 227.666015625 323.666992188 243.333007812 322 256 322 c 0
 300.666992188 322 335.666992188 335.166992188 361 361.5 c 0
 386.333007812 387.833007812 399 425.666015625 399 474.999023438 c 0
 399 524.33203125 385 559.499023438 357 580.499023438 c 0
 329 601.499023438 286 611.999023438 228 611.999023438 c 0
 206.666992188 611.999023438 180.666992188 610.666015625 150 607.999023438 c 1
 152.666992188 569.33203125 154 501.33203125 154 403.999023438 c 2
 154 202.999023438 l 2
 154 112.999023438 160.333007812 46.9990234375 173 4.9990234375 c 1
 161 -0.333984375 145.333007812 -3.0009765625 126 -3.0009765625 c 0
 106.666992188 -3.0009765625 93.6669921875 1.33203125 87 9.9990234375 c 0
 80.3330078125 18.666015625 77 33.3330078125 77 54 c 2
EndSplineSet
Validated: 1
Substitution2: "'c2sc' Capitals to Small Capitals in Latin lookup 0 subtable" Rsmall
EndChar

StartChar: S
Encoding: 83 83 52
Width: 518
GlyphClass: 2
Flags: W
LayerCount: 2
Fore
SplineSet
401 533 m 1
 389.666992188 555 369.334960938 573.172851562 340.001953125 587.505859375 c 0
 310.668945312 601.838867188 279.668945312 609.005859375 247.001953125 609.005859375 c 0
 214.334960938 609.005859375 186.501953125 599.672851562 163.501953125 581.005859375 c 0
 140.501953125 562.338867188 129.001953125 537.171875 129.001953125 505.504882812 c 0
 129.001953125 473.837890625 137.501953125 449.170898438 154.501953125 431.50390625 c 0
 171.501953125 413.836914062 192.668945312 401.50390625 218.001953125 394.50390625 c 0
 243.334960938 387.50390625 271.001953125 379.00390625 301.001953125 369.00390625 c 0
 331.001953125 359.00390625 358.668945312 348.670898438 384.001953125 338.00390625 c 0
 409.334960938 327.336914062 430.501953125 309.00390625 447.501953125 283.00390625 c 0
 464.501953125 257.00390625 473.001953125 225.670898438 473.001953125 189.00390625 c 0
 473.001953125 152.336914062 466.334960938 120.836914062 453.001953125 94.50390625 c 0
 439.668945312 68.1708984375 421.668945312 47.6708984375 399.001953125 33.00390625 c 0
 355.001953125 4.3369140625 304.834960938 -9.99609375 248.501953125 -9.99609375 c 0
 192.168945312 -9.99609375 144.168945312 -0.8291015625 104.501953125 17.50390625 c 0
 64.8349609375 35.8369140625 45.001953125 58.00390625 45.001953125 84.00390625 c 0
 45.001953125 99.3369140625 53.3349609375 112.336914062 70.001953125 123.00390625 c 0
 75.3349609375 126.336914062 84.001953125 131.00390625 96.001953125 137.00390625 c 1
 108.668945312 112.336914062 131.501953125 92.169921875 164.501953125 76.5029296875 c 0
 197.501953125 60.8359375 231.834960938 53.0029296875 267.501953125 53.0029296875 c 0
 303.168945312 53.0029296875 334.3359375 63.169921875 361.002929688 83.5029296875 c 0
 387.669921875 103.8359375 401.002929688 131.3359375 401.002929688 166.002929688 c 0
 401.002929688 200.669921875 389.169921875 227.169921875 365.502929688 245.502929688 c 0
 341.8359375 263.8359375 313.168945312 277.668945312 279.501953125 287.001953125 c 0
 245.834960938 296.334960938 212.16796875 306.66796875 178.500976562 318.000976562 c 0
 144.833984375 329.333984375 116.166992188 348.500976562 92.5 375.500976562 c 0
 68.8330078125 402.500976562 57 438.333984375 57 483.000976562 c 0
 57 544.333984375 77.1669921875 591.333984375 117.5 624.000976562 c 0
 157.833007812 656.66796875 209.333007812 673.000976562 272 673.000976562 c 0
 318 673.000976562 360.5 665.000976562 399.5 649.000976562 c 0
 438.5 633.000976562 458 611.000976562 458 583.000976562 c 0
 458 556.333984375 439 539.666992188 401 533 c 1
EndSplineSet
Validated: 1
Substitution2: "'c2sc' Capitals to Small Capitals in Latin lookup 0 subtable" Ssmall
EndChar

StartChar: T
Encoding: 84 84 53
Width: 465
GlyphClass: 2
Flags: W
HStem: -3.00098 21G<233.333 252.667> 601.998 59.002<10.8324 193.001 278 454.168>
VStem: 193.001 84.999<405.739 601.998> 196.001 74.999<10.4097 597.552>
LayerCount: 2
Fore
SplineSet
194 54 m 2xd0
 196.000976562 230.998046875 l 1
 196.000976562 430.998046875 l 2xd0
 196.000976562 492.998046875 195.000976562 549.998046875 193.000976562 601.998046875 c 1
 98.333984375 601.998046875 35.0009765625 600.665039062 3.0009765625 597.998046875 c 1
 1.0009765625 603.998046875 0.0009765625 613.331054688 0.0009765625 625.998046875 c 0
 0.0009765625 638.665039062 3.5009765625 647.33203125 10.5009765625 651.999023438 c 0
 17.5009765625 656.666015625 29.0009765625 659.333007812 45.0009765625 660 c 0
 61.0009765625 660.666992188 96.333984375 661 151.000976562 661 c 2
 269.000976562 661 l 2
 374.333984375 661 438.666992188 662 462 664 c 1
 464 658 465 648.833007812 465 636.5 c 0
 465 624.166992188 461.5 615.666992188 454.5 611 c 0
 447.5 606.333007812 435 603.666015625 417 602.999023438 c 0
 399 602.33203125 352.666992188 601.999023438 278 601.999023438 c 1xe0
 273.333007812 506.666015625 271 440.666015625 271 403.999023438 c 2
 271 202.999023438 l 2
 271 112.999023438 277.333007812 46.9990234375 290 4.9990234375 c 1
 278 -0.333984375 262.333007812 -3.0009765625 243 -3.0009765625 c 0
 223.666992188 -3.0009765625 210.666992188 1.33203125 204 9.9990234375 c 0
 197.333007812 18.666015625 194 33.3330078125 194 54 c 2xd0
EndSplineSet
Validated: 1
Substitution2: "'c2sc' Capitals to Small Capitals in Latin lookup 0 subtable" Tsmall
EndChar

StartChar: U
Encoding: 85 85 54
Width: 644
GlyphClass: 2
Flags: W
LayerCount: 2
Fore
SplineSet
80 192 m 2
 88.9990234375 501.001953125 l 2
 88.9990234375 564.334960938 83.33203125 616.66796875 71.9990234375 658.000976562 c 1
 85.33203125 663.333984375 100.999023438 666.000976562 118.999023438 666.000976562 c 0
 136.999023438 666.000976562 150.499023438 662.16796875 159.499023438 654.500976562 c 0
 168.499023438 646.833984375 172.999023438 631.166992188 172.999023438 607.5 c 0
 172.999023438 583.833007812 170.499023438 523.166015625 165.499023438 425.499023438 c 0
 160.499023438 327.83203125 157.999023438 253.83203125 157.999023438 203.499023438 c 0
 157.999023438 153.166015625 171.499023438 115.666015625 198.499023438 90.9990234375 c 0
 225.499023438 66.33203125 255.999023438 53.9990234375 289.999023438 53.9990234375 c 0
 323.999023438 53.9990234375 358.999023438 61.9990234375 394.999023438 77.9990234375 c 0
 430.999023438 93.9990234375 460.33203125 112.666015625 482.999023438 133.999023438 c 1
 483.999023438 261.999023438 l 1
 483.999023438 430.999023438 l 2
 483.999023438 524.999023438 481.666015625 602.33203125 476.999023438 662.999023438 c 1
 488.33203125 664.999023438 501.999023438 665.999023438 517.999023438 665.999023438 c 0
 550.666015625 665.999023438 566.999023438 653.33203125 566.999023438 627.999023438 c 0
 566.999023438 626.666015625 566.33203125 614.333007812 564.999023438 591 c 0
 560.999023438 521 558.999023438 430.666992188 558.999023438 320 c 0
 558.999023438 209.333007812 559.999023438 136.5 561.999023438 101.5 c 0
 563.999023438 66.5 569.33203125 34.3330078125 577.999023438 5 c 1
 565.999023438 -0.3330078125 550.499023438 -3 531.499023438 -3 c 0
 512.499023438 -3 499.499023438 1.1669921875 492.499023438 9.5 c 0
 485.499023438 17.8330078125 481.999023438 33.3330078125 481.999023438 56 c 2
 481.999023438 67 l 1
 455.33203125 44.3330078125 423.33203125 25.8330078125 385.999023438 11.5 c 0
 348.666015625 -2.8330078125 314.333007812 -10 283 -10 c 0
 220.333007812 -10 170.833007812 4.8330078125 134.5 34.5 c 0
 98.1669921875 64.1669921875 80 116.666992188 80 192 c 2
EndSplineSet
Validated: 1
Substitution2: "'c2sc' Capitals to Small Capitals in Latin lookup 0 subtable" Usmall
EndChar

StartChar: V
Encoding: 86 86 55
Width: 558
GlyphClass: 2
Flags: W
LayerCount: 2
Fore
SplineSet
463 667 m 1
 481.666992188 671 497.33203125 672.999023438 509.999023438 672.999023438 c 0
 535.33203125 672.999023438 547.999023438 656.666015625 547.999023438 623.999023438 c 0
 547.999023438 550.666015625 524.666015625 452.499023438 477.999023438 329.499023438 c 0
 431.33203125 206.499023438 383.665039062 113.999023438 334.998046875 51.9990234375 c 0
 318.331054688 29.9990234375 304.331054688 15.33203125 292.998046875 7.9990234375 c 0
 281.665039062 0.666015625 270.33203125 -3.0009765625 258.999023438 -3.0009765625 c 0
 247.666015625 -3.0009765625 234.666015625 -2.333984375 219.999023438 -1.0009765625 c 1
 198.666015625 106.33203125 162.333007812 229.33203125 111 367.999023438 c 0
 59.6669921875 506.666015625 16 593.666015625 -20 628.999023438 c 1
 8 653.666015625 32.1669921875 665.999023438 52.5 665.999023438 c 0
 72.8330078125 665.999023438 89 651.666015625 101 622.999023438 c 0
 127 563.666015625 157.666992188 479.333007812 193 370 c 0
 228.333007812 260.666992188 256 165.666992188 276 85 c 1
 315.333007812 129 357 209.5 401 326.5 c 0
 445 443.5 467 540.333007812 467 617 c 0
 467 641 465.666992188 657.666992188 463 667 c 1
EndSplineSet
Validated: 1
Substitution2: "'c2sc' Capitals to Small Capitals in Latin lookup 0 subtable" Vsmall
EndChar

StartChar: W
Encoding: 87 87 56
Width: 942
GlyphClass: 2
Flags: W
LayerCount: 2
Fore
SplineSet
837 667 m 1
 855.666992188 671 870.997070312 672.997070312 882.997070312 672.997070312 c 0
 908.997070312 672.997070312 921.997070312 658.6640625 921.997070312 629.997070312 c 0
 921.997070312 552.6640625 900.1640625 452.831054688 856.497070312 330.498046875 c 0
 812.830078125 208.165039062 767.330078125 115.33203125 719.997070312 51.9990234375 c 0
 703.330078125 29.9990234375 689.830078125 15.33203125 679.497070312 7.9990234375 c 0
 669.1640625 0.666015625 658.331054688 -3.0009765625 646.998046875 -3.0009765625 c 0
 635.665039062 -3.0009765625 623.33203125 -2.333984375 609.999023438 -1.0009765625 c 1
 583.999023438 138.999023438 542.33203125 285.999023438 484.999023438 439.999023438 c 1
 463.666015625 365.999023438 437.166015625 292.83203125 405.499023438 220.499023438 c 0
 373.83203125 148.166015625 346.33203125 96.4990234375 322.999023438 65.4990234375 c 0
 299.666015625 34.4990234375 282.833007812 15.33203125 272.5 7.9990234375 c 0
 262.166992188 0.666015625 251.5 -3.0009765625 240.5 -3.0009765625 c 0
 229.5 -3.0009765625 217.333007812 -2.333984375 204 -1.0009765625 c 1
 184.666992188 105.666015625 150.833984375 228.499023438 102.500976562 367.499023438 c 0
 54.16796875 506.499023438 13.3349609375 593.666015625 -19.998046875 628.999023438 c 1
 7.3349609375 653.666015625 31.16796875 665.999023438 51.5009765625 665.999023438 c 0
 71.833984375 665.999023438 88.0009765625 651.666015625 100.000976562 622.999023438 c 0
 124.66796875 564.999023438 152.66796875 481.999023438 184.000976562 373.999023438 c 0
 215.333984375 265.999023438 240.666992188 169.666015625 260 84.9990234375 c 1
 296 128.33203125 334 208.499023438 374 325.499023438 c 0
 414 442.499023438 434 539.33203125 434 615.999023438 c 0
 434 639.999023438 432.666992188 656.999023438 430 666.999023438 c 1
 448.666992188 670.999023438 464 672.999023438 476 672.999023438 c 0
 502 672.999023438 515 658.666015625 515 629.999023438 c 0
 515 610.666015625 513.333007812 591.666015625 510 572.999023438 c 1
 554 503.666015625 606 340.999023438 666 84.9990234375 c 1
 702 128.999023438 740.166992188 209.33203125 780.5 325.999023438 c 0
 820.833007812 442.666015625 841 539.333007812 841 616 c 0
 841 640 839.666992188 657 837 667 c 1
EndSplineSet
Validated: 1
Substitution2: "'c2sc' Capitals to Small Capitals in Latin lookup 0 subtable" Wsmall
EndChar

StartChar: X
Encoding: 88 88 57
Width: 576
GlyphClass: 2
Flags: W
LayerCount: 2
Fore
SplineSet
25 43 m 0
 25 82.3330078125 98.998046875 182.997070312 246.998046875 344.997070312 c 1
 148.998046875 502.330078125 76.6650390625 595.997070312 29.998046875 625.997070312 c 1
 55.3310546875 657.330078125 79.998046875 672.997070312 103.998046875 672.997070312 c 0
 117.998046875 672.997070312 134.998046875 658.997070312 154.998046875 630.997070312 c 0
 197.665039062 569.6640625 245.998046875 494.331054688 299.998046875 404.998046875 c 1
 337.331054688 450.331054688 370.6640625 499.1640625 399.997070312 551.497070312 c 0
 429.330078125 603.830078125 445.997070312 643.997070312 449.997070312 671.997070312 c 1
 497.330078125 662.6640625 520.997070312 643.997070312 520.997070312 615.997070312 c 0
 520.997070312 597.997070312 501.6640625 561.497070312 462.997070312 506.497070312 c 0
 424.330078125 451.497070312 381.997070312 397.997070312 335.997070312 345.997070312 c 1
 439.997070312 168.6640625 517.997070312 64.3310546875 569.997070312 32.998046875 c 1
 544.6640625 4.3310546875 522.831054688 -10.001953125 504.498046875 -10.001953125 c 0
 486.165039062 -10.001953125 467.665039062 2.998046875 448.998046875 28.998046875 c 0
 409.665039062 80.998046875 354.33203125 166.331054688 282.999023438 284.998046875 c 1
 244.999023438 248.331054688 206.33203125 199.331054688 166.999023438 137.998046875 c 0
 127.666015625 76.6650390625 103.333007812 27.33203125 94 -10.0009765625 c 1
 48 -1.333984375 25 16.3330078125 25 43 c 0
EndSplineSet
Validated: 1
Substitution2: "'c2sc' Capitals to Small Capitals in Latin lookup 0 subtable" Xsmall
EndChar

StartChar: Y
Encoding: 89 89 58
Width: 501
GlyphClass: 2
Flags: W
LayerCount: 2
Fore
SplineSet
496 627 m 0
 496 610.333007812 470.666992188 563.166015625 420 485.499023438 c 0
 369.333007812 407.83203125 325 346.33203125 287 300.999023438 c 1
 287 215.999023438 l 2
 287 118.666015625 293.333007812 48.3330078125 306 5 c 1
 294 -0.3330078125 278.333007812 -3 259 -3 c 0
 239.666992188 -3 226.666992188 1.3330078125 220 10 c 0
 213.333007812 18.6669921875 210 33.333984375 210 54.0009765625 c 0
 210.666992188 115.333984375 211.333984375 174.666992188 212.000976562 232 c 2
 212.000976562 294 l 1
 115.333984375 476 41.333984375 584.333007812 -9.9990234375 619 c 1
 0.0009765625 632.333007812 7.333984375 641 12.0009765625 645 c 2
 26.0009765625 657 l 2
 34.0009765625 663.666992188 43.0009765625 667 53.0009765625 667 c 0
 69.66796875 667 85.66796875 655.666992188 101.000976562 633 c 0
 141.000976562 575 194.333984375 484.333007812 261.000976562 361 c 1
 293.000976562 403 327.16796875 459.166992188 363.500976562 529.5 c 0
 399.833984375 599.833007812 418.666992188 647.333007812 420 672 c 1
 470.666992188 668.666992188 496 653.666992188 496 627 c 0
EndSplineSet
Validated: 1
Substitution2: "'c2sc' Capitals to Small Capitals in Latin lookup 0 subtable" Ysmall
EndChar

StartChar: Z
Encoding: 90 90 59
Width: 535
GlyphClass: 2
Flags: W
LayerCount: 2
Fore
SplineSet
499 648 m 1
 509.666992188 636 515.000976562 622.333007812 515.000976562 607 c 0
 515.000976562 591.666992188 509.333984375 576.666992188 498.000976562 562 c 2
 94.0009765625 57 l 1
 118.000976562 54.3330078125 145.000976562 53 175.000976562 53 c 0
 304.333984375 53 409.666992188 63.6669921875 491 85 c 1
 497.666992188 67.6669921875 501 52.5 501 39.5 c 0
 501 26.5 495.333007812 17.3330078125 484 12 c 0
 458.666992188 0 394 -6 290 -6 c 0
 186 -6 104 -2 44 6 c 1
 32 22 26 39.6669921875 26 59 c 0
 26 78.3330078125 34.3330078125 98.3330078125 51 119 c 2
 428 600 l 1
 396.666992188 604 356 606 306 606 c 0
 212 606 128.666992188 597 56 579 c 1
 49.3330078125 595 46 609 46 621 c 0
 46 639.666992188 55.6669921875 651.666992188 75 657 c 0
 103 663.666992188 161.833007812 667 251.5 667 c 0
 341.166992188 667 423.666992188 660.666992188 499 648 c 1
EndSplineSet
Validated: 1
Substitution2: "'c2sc' Capitals to Small Capitals in Latin lookup 0 subtable" Zsmall
EndChar

StartChar: bracketleft
Encoding: 91 91 60
Width: 380
GlyphClass: 2
Flags: W
LayerCount: 2
Fore
SplineSet
216 664 m 1
 216.001953125 -134 l 1
 241.334960938 -132.666992188 265.16796875 -132 287.500976562 -132 c 0
 309.833984375 -132 324.166992188 -134.833007812 330.5 -140.5 c 0
 336.833007812 -146.166992188 340 -154 340 -164 c 0
 340 -174 338.666992188 -182.666992188 336 -190 c 1
 150 -190 l 1
 150 720 l 1
 336 720 l 1
 338.666992188 714.666992188 340 706 340 694 c 0
 340 672.666992188 325.5 662 296.5 662 c 0
 267.5 662 240.666992188 662.666992188 216 664 c 1
EndSplineSet
Validated: 1
EndChar

StartChar: backslash
Encoding: 92 92 61
Width: 258
GlyphClass: 2
Flags: W
LayerCount: 2
Fore
SplineSet
129 113 m 0
 66.3330078125 504.333007812 35 705 35 715 c 0
 35 733 47 742 71 742 c 0
 79 742 86 741 92 739 c 1
 97.3330078125 681.666992188 107.333007812 604.333984375 122 507.000976562 c 0
 184.666992188 111.000976562 216 -89.33203125 216 -93.9990234375 c 0
 216 -112.666015625 205 -121.999023438 183 -121.999023438 c 0
 175.666992188 -121.999023438 167.666992188 -120.999023438 159 -118.999023438 c 1
 153.666992188 -61.666015625 143.666992188 15.6669921875 129 113 c 0
EndSplineSet
Validated: 1
EndChar

StartChar: bracketright
Encoding: 93 93 62
Width: 350
GlyphClass: 2
Flags: W
LayerCount: 2
Fore
SplineSet
154 -134 m 1
 154.000976562 664 l 1
 129.333984375 662.666992188 106.166992188 662 84.5 662 c 0
 62.8330078125 662 48.3330078125 664.5 41 669.5 c 0
 33.6669921875 674.5 30 682.666992188 30 694 c 0
 30 705.333007812 31.3330078125 714 34 720 c 1
 220 720 l 1
 220 -190 l 1
 34 -190 l 1
 31.3330078125 -182.666992188 30 -174 30 -164 c 0
 30 -142.666992188 44.3330078125 -132 73 -132 c 0
 101.666992188 -132 128.666992188 -132.666992188 154 -134 c 1
EndSplineSet
Validated: 1
EndChar

StartChar: asciicircum
Encoding: 94 94 63
Width: 470
GlyphClass: 2
Flags: W
LayerCount: 2
Fore
SplineSet
236 582 m 1
 133.333007812 472 71.998046875 417.002929688 51.998046875 417.002929688 c 0
 44.6650390625 417.002929688 35.6650390625 422.3359375 24.998046875 433.002929688 c 1
 40.3310546875 459.002929688 71.8310546875 498.669921875 119.498046875 552.002929688 c 0
 167.165039062 605.3359375 205.665039062 646.3359375 234.998046875 675.002929688 c 1
 264.331054688 646.3359375 302.831054688 605.3359375 350.498046875 552.002929688 c 0
 398.165039062 498.669921875 429.665039062 459.002929688 444.998046875 433.002929688 c 1
 434.331054688 422.3359375 426.331054688 417.002929688 420.998046875 417.002929688 c 0
 415.665039062 417.002929688 409.33203125 419.169921875 401.999023438 423.502929688 c 0
 394.666015625 427.8359375 386.166015625 434.168945312 376.499023438 442.501953125 c 0
 366.83203125 450.834960938 357.33203125 459.16796875 347.999023438 467.500976562 c 0
 338.666015625 475.833984375 327.999023438 486.166992188 315.999023438 498.5 c 0
 303.999023438 510.833007812 294.166015625 521 286.499023438 529 c 0
 278.83203125 537 269.33203125 547 257.999023438 559 c 0
 246.666015625 571 239.333007812 578.666992188 236 582 c 1
EndSplineSet
Validated: 1
EndChar

StartChar: underscore
Encoding: 95 95 64
Width: 535
GlyphClass: 2
Flags: W
LayerCount: 2
Fore
SplineSet
499 -152 m 2
 348.000976562 -144 l 1
 205.000976562 -144 l 2
 129.000976562 -144 61.66796875 -146.666992188 3.0009765625 -152 c 1
 1.0009765625 -142 0.0009765625 -131.833007812 0.0009765625 -121.5 c 0
 0.0009765625 -111.166992188 3.0009765625 -101.666992188 9.0009765625 -93 c 0
 15.0009765625 -84.3330078125 24.0009765625 -80 36.0009765625 -80 c 0
 38.0009765625 -80 59.0009765625 -81.1669921875 99.0009765625 -83.5 c 0
 139.000976562 -85.8330078125 173.66796875 -87 203.000976562 -87 c 2
 345.000976562 -87 l 2
 429.66796875 -87 492.000976562 -84.6669921875 532.000976562 -80 c 1
 534.000976562 -86 535.000976562 -95.5 535.000976562 -108.5 c 0
 535.000976562 -121.5 531.66796875 -132 525.000976562 -140 c 0
 518.333984375 -148 509.666992188 -152 499 -152 c 2
EndSplineSet
Validated: 1
EndChar

StartChar: grave
Encoding: 96 96 65
Width: 201
GlyphClass: 2
Flags: W
LayerCount: 2
Fore
SplineSet
-15 702 m 1
 9.6669921875 674.666992188 35.666015625 650.500976562 62.9990234375 629.500976562 c 0
 90.33203125 608.500976562 109.999023438 593.16796875 121.999023438 583.500976562 c 0
 133.999023438 573.833984375 139.999023438 564.000976562 139.999023438 554.000976562 c 0
 139.999023438 544.000976562 134.666015625 534.333984375 123.999023438 525.000976562 c 1
 105.33203125 539.000976562 79.83203125 555.000976562 47.4990234375 573.000976562 c 0
 15.166015625 591.000976562 -9.1669921875 606.000976562 -25.5 618.000976562 c 0
 -41.8330078125 630.000976562 -50 643.66796875 -50 659.000976562 c 0
 -50 674.333984375 -38.3330078125 688.666992188 -15 702 c 1
EndSplineSet
Validated: 1
EndChar

StartChar: a
Encoding: 97 97 66
Width: 464
GlyphClass: 2
Flags: W
LayerCount: 2
Fore
SplineSet
392 312 m 2
 390 176.999023438 l 2
 390 100.33203125 396.333007812 42.9990234375 409 4.9990234375 c 1
 398.333007812 -0.333984375 385.5 -3.0009765625 370.5 -3.0009765625 c 0
 355.5 -3.0009765625 345 0.4990234375 339 7.4990234375 c 0
 333 14.4990234375 329 25.666015625 327 40.9990234375 c 1
 285.666992188 6.9990234375 243 -10.0009765625 199 -10.0009765625 c 0
 96.3330078125 -10.0009765625 45 36.9990234375 45 130.999023438 c 0
 45 164.999023438 53 189.999023438 69 205.999023438 c 0
 85 221.999023438 107 233.999023438 135 241.999023438 c 0
 185 255.33203125 248.333007812 264.33203125 325 268.999023438 c 1
 325 325.666015625 318 364.833007812 304 386.5 c 0
 290 408.166992188 260.333007812 419 215 419 c 0
 196.333007812 419 177 413 157 401 c 0
 137 389 122 371.666992188 112 349 c 1
 81.3330078125 355 66 368.333007812 66 389 c 0
 66 415 82 435.833007812 114 451.5 c 0
 146 467.166992188 187 475 237 475 c 0
 287 475 325.333007812 463.166992188 352 439.5 c 0
 378.666992188 415.833007812 392 373.333007812 392 312 c 2
324 217.999023438 m 1
 304.666992188 215.999023438 290.168945312 214.33203125 280.501953125 212.999023438 c 0
 270.834960938 211.666015625 257.834960938 209.999023438 241.501953125 207.999023438 c 0
 225.168945312 205.999023438 213.001953125 203.999023438 205.001953125 201.999023438 c 0
 197.001953125 199.999023438 187.168945312 197.33203125 175.501953125 193.999023438 c 0
 163.834960938 190.666015625 155.16796875 186.999023438 149.500976562 182.999023438 c 0
 143.833984375 178.999023438 138.000976562 174.666015625 132.000976562 169.999023438 c 0
 120.66796875 160.666015625 115.000976562 147.666015625 115.000976562 130.999023438 c 0
 115.000976562 100.999023438 123.66796875 78.83203125 141.000976562 64.4990234375 c 0
 158.333984375 50.166015625 180.333984375 42.9990234375 207.000976562 42.9990234375 c 0
 252.333984375 42.9990234375 290.666992188 57.9990234375 322 87.9990234375 c 1
 321.333007812 97.33203125 321 114.33203125 321 138.999023438 c 0
 321 163.666015625 322 189.999023438 324 217.999023438 c 1
EndSplineSet
Validated: 1
Substitution2: "'sups' Superscript lookup 0 subtable" a.superior
Substitution2: "'smcp' Lowercase to Small Capitals in Latin lookup 0 subtable" Asmall
EndChar

StartChar: b
Encoding: 98 98 67
Width: 508
GlyphClass: 2
Flags: W
LayerCount: 2
Fore
SplineSet
139 422 m 1
 187.666992188 457.333007812 238.66796875 475.000976562 292.000976562 475.000976562 c 0
 345.333984375 475.000976562 388.166992188 456.16796875 420.5 418.500976562 c 0
 452.833007812 380.833984375 469 325.000976562 469 251.000976562 c 0
 469 177.000976562 451 115.000976562 415 65.0009765625 c 0
 379 15.0009765625 325.666992188 -9.9990234375 255 -9.9990234375 c 0
 184.333007812 -9.9990234375 122.333007812 12.66796875 69 58.0009765625 c 1
 73.6669921875 98.0009765625 76 158.66796875 76 240.000976562 c 0
 76 321.333984375 74.3330078125 418.666992188 71 532 c 0
 67.6669921875 645.333007812 64 714.666015625 60 739.999023438 c 1
 68 741.999023438 80 742.999023438 96 742.999023438 c 0
 126 742.999023438 141 730.33203125 141 704.999023438 c 0
 141 696.33203125 140.666992188 652.33203125 140 572.999023438 c 0
 139.333007812 493.666015625 139 443.333007812 139 422 c 1
140.000976562 366.000976562 m 1
 141 218.001953125 l 2
 141 164.668945312 140 124.668945312 138 98.001953125 c 1
 177.333007812 63.3349609375 219.833007812 46.001953125 265.5 46.001953125 c 0
 311.166992188 46.001953125 344.833984375 65.1689453125 366.500976562 103.501953125 c 0
 388.16796875 141.834960938 399.000976562 189.16796875 399.000976562 245.500976562 c 0
 399.000976562 301.833984375 387.000976562 344.833984375 363.000976562 374.500976562 c 0
 339.000976562 404.16796875 309.000976562 419.000976562 273.000976562 419.000976562 c 0
 225.000976562 419.000976562 180.66796875 401.333984375 140.000976562 366.000976562 c 1
EndSplineSet
Validated: 1
Substitution2: "'smcp' Lowercase to Small Capitals in Latin lookup 0 subtable" Bsmall
Substitution2: "'sups' Superscript lookup 0 subtable" b.superior
EndChar

StartChar: c
Encoding: 99 99 68
Width: 447
GlyphClass: 2
Flags: W
LayerCount: 2
Fore
SplineSet
261 46 m 0
 281 46 301.333984375 50.33203125 322.000976562 58.9990234375 c 0
 342.66796875 67.666015625 357.334960938 80.666015625 366.001953125 97.9990234375 c 1
 392.668945312 87.33203125 406.001953125 73.9990234375 406.001953125 57.9990234375 c 0
 406.001953125 35.9990234375 390.834960938 19.166015625 360.501953125 7.4990234375 c 0
 330.168945312 -4.16796875 296.001953125 -10.0009765625 258.001953125 -10.0009765625 c 0
 197.334960938 -10.0009765625 146.66796875 9.83203125 106.000976562 49.4990234375 c 0
 65.333984375 89.166015625 45.0009765625 148.333007812 45.0009765625 227 c 0
 45.0009765625 269 51.66796875 306.5 65.0009765625 339.5 c 0
 78.333984375 372.5 96.0009765625 398.666992188 118.000976562 418 c 0
 162.66796875 456 211.66796875 475 265.000976562 475 c 0
 299.000976562 475 331.333984375 467.333007812 362.000976562 452 c 0
 392.66796875 436.666992188 408.000976562 415 408.000976562 387 c 0
 408.000976562 363 392.000976562 348.666992188 360.000976562 344 c 1
 353.333984375 368 339.166992188 386.5 317.5 399.5 c 0
 295.833007812 412.5 273 419 249 419 c 0
 211.666992188 419 180.166992188 402.5 154.5 369.5 c 0
 128.833007812 336.5 116 290 116 230 c 0
 116 170 129.5 124.333007812 156.5 93 c 0
 183.5 61.6669921875 218.333007812 46 261 46 c 0
EndSplineSet
Validated: 1
Substitution2: "'smcp' Lowercase to Small Capitals in Latin lookup 0 subtable" Csmall
Substitution2: "'sups' Superscript lookup 0 subtable" c.superior
EndChar

StartChar: d
Encoding: 100 100 69
Width: 516
GlyphClass: 2
Flags: W
LayerCount: 2
Fore
SplineSet
446 705 m 2
 437 223 l 2
 437 111.666992188 443.333007812 39 456 5 c 1
 445.333007812 -0.3330078125 432.666015625 -3 417.999023438 -3 c 0
 389.999023438 -3 375.33203125 13.6669921875 373.999023438 47 c 1
 333.999023438 9 288.83203125 -10 238.499023438 -10 c 0
 188.166015625 -10 143.333007812 12.8330078125 104 58.5 c 0
 64.6669921875 104.166992188 45 162.666992188 45 234 c 0
 45 305.333007812 65.5 363.333007812 106.5 408 c 0
 147.5 452.666992188 197 475 255 475 c 0
 295 475 333.666992188 463.666992188 371 441 c 1
 372.333007812 483.666992188 373 532.166992188 373 586.5 c 0
 373 640.833007812 370.333007812 692 365 740 c 1
 375.666992188 742 387.666992188 743 401 743 c 0
 431 743 446 730.333007812 446 705 c 2
369 389 m 1
 333.666992188 409 299.333007812 419.000976562 266 419.000976562 c 0
 219.333007812 419.000976562 182.5 403.16796875 155.5 371.500976562 c 0
 128.5 339.833984375 115 296.166992188 115 240.5 c 0
 115 184.833007812 129 138 157 100 c 0
 185 62 218.833007812 43 258.5 43 c 0
 298.166992188 43 335.666992188 62 371 100 c 1
 369.666992188 272 369 368.333007812 369 389 c 1
EndSplineSet
Validated: 1
Substitution2: "'smcp' Lowercase to Small Capitals in Latin lookup 0 subtable" Dsmall
Substitution2: "'sups' Superscript lookup 0 subtable" d.superior
EndChar

StartChar: e
Encoding: 101 101 70
Width: 470
GlyphClass: 2
Flags: W
LayerCount: 2
Fore
SplineSet
268 475 m 0
 314.666992188 475 352.498046875 461.833007812 381.498046875 435.5 c 0
 410.498046875 409.166992188 424.998046875 380.666992188 424.998046875 350 c 0
 424.998046875 319.333007812 420.331054688 295.333007812 410.998046875 278 c 0
 401.665039062 260.666992188 389.498046875 247 374.498046875 237 c 0
 359.498046875 227 337.998046875 219.333007812 309.998046875 214 c 0
 267.331054688 206 203.331054688 202 117.998046875 202 c 1
 123.331054688 154 137.831054688 116 161.498046875 88 c 0
 185.165039062 60 220.33203125 46 266.999023438 46 c 0
 313.666015625 46 346.666015625 63.3330078125 365.999023438 98 c 1
 392.666015625 87.3330078125 405.999023438 72.666015625 405.999023438 53.9990234375 c 0
 405.999023438 35.33203125 390.83203125 19.9990234375 360.499023438 7.9990234375 c 0
 330.166015625 -4.0009765625 296.333007812 -10.0009765625 259 -10.0009765625 c 0
 196.333007812 -10.0009765625 145 9.83203125 105 49.4990234375 c 0
 65 89.166015625 45 148.833007812 45 228.5 c 0
 45 308.166992188 67.1669921875 369.166992188 111.5 411.5 c 0
 155.833007812 453.833007812 208 475 268 475 c 0
263.998046875 420 m 0
 223.998046875 420 189.831054688 406.33203125 161.498046875 378.999023438 c 0
 133.165039062 351.666015625 118.33203125 309.333007812 116.999023438 252 c 1
 212.33203125 252 275.665039062 259 306.998046875 273 c 0
 320.331054688 279 331.831054688 287.666992188 341.498046875 299 c 0
 351.165039062 310.333007812 355.998046875 325.5 355.998046875 344.5 c 0
 355.998046875 363.5 347.165039062 380.833007812 329.498046875 396.5 c 0
 311.831054688 412.166992188 289.998046875 420 263.998046875 420 c 0
EndSplineSet
Validated: 1
Substitution2: "'smcp' Lowercase to Small Capitals in Latin lookup 0 subtable" Esmall
Substitution2: "'sups' Superscript lookup 0 subtable" e.superior
EndChar

StartChar: f
Encoding: 102 102 71
Width: 303
GlyphClass: 2
Flags: W
HStem: -3 21G<121 137> 409.001 56.001<7.31148 85.999 152 281.168> 659.002 56<176.458 306.016>
VStem: 84 68<9.37891 409.001 465.003 622.777>
LayerCount: 2
Fore
SplineSet
84 49 m 2
 85.9990234375 409.000976562 l 1
 63.9990234375 409.000976562 37.9990234375 407.333984375 7.9990234375 404.000976562 c 1
 5.9990234375 410.66796875 4.9990234375 419.66796875 4.9990234375 431.000976562 c 0
 4.9990234375 449.66796875 17.33203125 460.334960938 41.9990234375 463.001953125 c 0
 56.666015625 464.334960938 71.3330078125 465.001953125 86 465.001953125 c 1
 86 565.001953125 100.666992188 632.668945312 130 668.001953125 c 0
 156.666992188 699.334960938 196.666992188 715.001953125 250 715.001953125 c 0
 274 715.001953125 294.666992188 711.334960938 312 704.001953125 c 0
 329.333007812 696.668945312 338 686.668945312 338 674.001953125 c 0
 338 661.334960938 331.333007812 646.001953125 318 628.001953125 c 1
 295.333007812 648.668945312 267.333007812 659.001953125 234 659.001953125 c 0
 200.666992188 659.001953125 178.666992188 647.334960938 168 624.001953125 c 0
 157.333007812 600.668945312 152 563.3359375 152 512.002929688 c 2
 152 465.002929688 l 1
 216.666992188 465.002929688 262 466.3359375 288 469.002929688 c 1
 290.666992188 463.669921875 292 455.169921875 292 443.502929688 c 0
 292 431.8359375 288.5 423.668945312 281.5 419.001953125 c 0
 274.5 414.334960938 261.833007812 411.66796875 243.5 411.000976562 c 0
 225.166992188 410.333984375 194.666992188 410.000976562 152 410.000976562 c 1
 152 202.000976562 l 2
 152 113.333984375 158.333007812 47.6669921875 171 5 c 1
 159 -0.3330078125 145 -3 129 -3 c 0
 113 -3 101.5 1 94.5 9 c 0
 87.5 17 84 30.3330078125 84 49 c 2
EndSplineSet
Validated: 1
Substitution2: "'smcp' Lowercase to Small Capitals in Latin lookup 0 subtable" Fsmall
Substitution2: "'sups' Superscript lookup 0 subtable" f.superior
EndChar

StartChar: g
Encoding: 103 103 72
Width: 518
GlyphClass: 2
Flags: W
LayerCount: 2
Fore
SplineSet
142 -37 m 1
 117.333007812 -73.6669921875 105 -105.000976562 105 -131.000976562 c 0
 105 -174.333984375 145.333007812 -196.000976562 226 -196.000976562 c 0
 284.666992188 -196.000976562 329.333984375 -186.66796875 360.000976562 -168.000976562 c 0
 390.66796875 -149.333984375 406.000976562 -127.666992188 406.000976562 -103 c 0
 406.000976562 -78.3330078125 399.66796875 -62 387.000976562 -54 c 0
 374.333984375 -46 354.666992188 -42 328 -42 c 2
 225 -42 l 2
 187 -42 159.333007812 -40.3330078125 142 -37 c 1
326 201.999023438 m 0
 344.666992188 220.666015625 354 248.83203125 354 286.499023438 c 0
 354 324.166015625 343.166992188 355.666015625 321.5 380.999023438 c 0
 299.833007812 406.33203125 270.333007812 418.999023438 233 418.999023438 c 0
 153.666992188 418.999023438 114 380.999023438 114 304.999023438 c 0
 114 266.999023438 124.5 235.666015625 145.5 210.999023438 c 0
 166.5 186.33203125 197.166992188 173.999023438 237.5 173.999023438 c 0
 277.833007812 173.999023438 307.333007812 183.33203125 326 201.999023438 c 0
234 117.998046875 m 0
 214 117.998046875 195.66796875 119.999023438 179.000976562 123.999023438 c 1
 169.000976562 111.999023438 160.16796875 98.33203125 152.500976562 82.9990234375 c 0
 144.833984375 67.666015625 141.000976562 55.9990234375 141.000976562 47.9990234375 c 0
 141.000976562 31.33203125 163.000976562 22.9990234375 207.000976562 22.9990234375 c 2
 322.000976562 22.9990234375 l 2
 420.66796875 22.9990234375 470.000976562 -12.66796875 470.000976562 -84.0009765625 c 0
 470.000976562 -134.000976562 445.833984375 -174.500976562 397.500976562 -205.500976562 c 0
 349.16796875 -236.500976562 292.500976562 -252.000976562 227.500976562 -252.000976562 c 0
 162.500976562 -252.000976562 114.16796875 -240.66796875 82.5009765625 -218.000976562 c 0
 50.833984375 -195.333984375 35.0009765625 -166.000976562 35.0009765625 -130.000976562 c 0
 35.0009765625 -94.0009765625 57.0009765625 -58.66796875 101.000976562 -24.0009765625 c 1
 81.0009765625 -9.333984375 71.0009765625 5.9990234375 71.0009765625 21.9990234375 c 0
 71.0009765625 47.33203125 94.0009765625 85.6650390625 140.000976562 136.998046875 c 1
 76.0009765625 165.665039062 44.0009765625 218.665039062 44.0009765625 295.998046875 c 0
 44.0009765625 346.665039062 62.0009765625 389.165039062 98.0009765625 423.498046875 c 0
 134.000976562 457.831054688 178.16796875 474.998046875 230.500976562 474.998046875 c 0
 282.833984375 474.998046875 325.666992188 461.998046875 359 435.998046875 c 1
 387 473.331054688 417 491.998046875 449 491.998046875 c 0
 462.333007812 491.998046875 473.833007812 488.998046875 483.5 482.998046875 c 0
 493.166992188 476.998046875 498 468.831054688 498 458.498046875 c 0
 498 448.165039062 495.333007812 435.998046875 490 421.998046875 c 1
 484.666992188 423.331054688 473 423.998046875 455 423.998046875 c 0
 437 423.998046875 415.666992188 417.331054688 391 403.998046875 c 1
 413 373.331054688 424 337.331054688 424 295.998046875 c 0
 424 241.331054688 405.333007812 197.998046875 368 165.998046875 c 0
 330.666992188 133.998046875 286 117.998046875 234 117.998046875 c 0
EndSplineSet
Validated: 1
Substitution2: "'smcp' Lowercase to Small Capitals in Latin lookup 0 subtable" Gsmall
Substitution2: "'sups' Superscript lookup 0 subtable" g.superior
EndChar

StartChar: h
Encoding: 104 104 73
Width: 505
GlyphClass: 2
Flags: W
LayerCount: 2
Fore
SplineSet
357 48 m 2
 362.999023438 316.99609375 l 2
 362.999023438 346.99609375 353.999023438 371.49609375 335.999023438 390.49609375 c 0
 317.999023438 409.49609375 298.166015625 418.99609375 276.499023438 418.99609375 c 0
 254.83203125 418.99609375 230.33203125 412.829101562 202.999023438 400.49609375 c 0
 175.666015625 388.163085938 153.333007812 372.330078125 136 352.997070312 c 1
 133.333007812 258.330078125 132 189.330078125 132 145.997070312 c 0
 132 102.6640625 134.333007812 54.3310546875 139 0.998046875 c 1
 128.333007812 -1.001953125 117 -2.001953125 105 -2.001953125 c 0
 75 -2.001953125 60 10.6650390625 60 35.998046875 c 0
 60 41.3310546875 60.6669921875 70.6640625 62 123.997070312 c 0
 67.3330078125 282.6640625 70 414.497070312 70 519.497070312 c 0
 70 624.497070312 67.3330078125 697.997070312 62 739.997070312 c 1
 72.6669921875 741.997070312 84.6669921875 742.997070312 98 742.997070312 c 0
 128 742.997070312 143 730.830078125 143 706.497070312 c 0
 143 682.1640625 140.666992188 584.331054688 136 412.998046875 c 1
 184 454.331054688 237.666992188 474.998046875 297 474.998046875 c 0
 387 474.998046875 432 422.998046875 432 318.998046875 c 2
 428 155.998046875 l 2
 428 94.6650390625 433.666992188 44.33203125 445 4.9990234375 c 1
 431.666992188 -0.333984375 417.5 -3.0009765625 402.5 -3.0009765625 c 0
 387.5 -3.0009765625 376.166992188 0.83203125 368.5 8.4990234375 c 0
 360.833007812 16.166015625 357 29.3330078125 357 48 c 2
EndSplineSet
Validated: 1
Substitution2: "'smcp' Lowercase to Small Capitals in Latin lookup 0 subtable" Hsmall
Substitution2: "'sups' Superscript lookup 0 subtable" h.superior
EndChar

StartChar: i
Encoding: 105 105 74
Width: 213
GlyphClass: 2
Flags: W
LayerCount: 2
Fore
SplineSet
71 54 m 2
 73 230.998046875 l 2
 73 326.331054688 70.6669921875 404.331054688 66 464.998046875 c 1
 76.6669921875 466.998046875 88 467.998046875 100 467.998046875 c 0
 131.333007812 467.998046875 147 455.331054688 147 429.998046875 c 0
 147 426.665039062 146.333007812 413.33203125 145 389.999023438 c 0
 141 318.666015625 139 247.166015625 139 175.499023438 c 0
 139 103.83203125 145.333007812 46.9990234375 158 4.9990234375 c 1
 146 -0.333984375 131.833007812 -3.0009765625 115.5 -3.0009765625 c 0
 99.1669921875 -3.0009765625 87.6669921875 1.33203125 81 9.9990234375 c 0
 74.3330078125 18.666015625 71 33.3330078125 71 54 c 2
140 536.498046875 m 0
 129.333007812 526.165039062 117.166015625 520.999023438 103.499023438 520.999023438 c 0
 89.83203125 520.999023438 77.9990234375 525.999023438 67.9990234375 535.999023438 c 0
 57.9990234375 545.999023438 52.9990234375 558.666015625 52.9990234375 573.999023438 c 0
 52.9990234375 589.33203125 58.33203125 602.165039062 68.9990234375 612.498046875 c 0
 79.666015625 622.831054688 91.8330078125 627.998046875 105.5 627.998046875 c 0
 119.166992188 627.998046875 131 622.831054688 141 612.498046875 c 0
 151 602.165039062 156 589.498046875 156 574.498046875 c 0
 156 559.498046875 150.666992188 546.831054688 140 536.498046875 c 0
EndSplineSet
Validated: 1
Substitution2: "'smcp' Lowercase to Small Capitals in Latin lookup 0 subtable" Ismall
Substitution2: "'sups' Superscript lookup 0 subtable" i.superior
EndChar

StartChar: j
Encoding: 106 106 75
Width: 225
GlyphClass: 2
Flags: W
LayerCount: 2
Fore
SplineSet
83 -79 m 2
 80.0009765625 231 l 2
 80.0009765625 326.333007812 77.66796875 404.333007812 73.0009765625 465 c 1
 83.66796875 467 95.0009765625 468 107.000976562 468 c 0
 138.333984375 468 154.000976562 455.333007812 154.000976562 430 c 0
 154.000976562 427.333007812 153.333984375 416 152.000976562 396 c 0
 148.000976562 334.666992188 146.000976562 266 146.000976562 190 c 2
 150.000976562 -72 l 2
 150.000976562 -130.666992188 135.333984375 -175.5 106.000976562 -206.5 c 0
 76.66796875 -237.5 34.66796875 -253 -19.9990234375 -253 c 0
 -50.666015625 -253 -77.4990234375 -248 -100.499023438 -238 c 0
 -123.499023438 -228 -134.999023438 -215.5 -134.999023438 -200.5 c 0
 -134.999023438 -185.5 -126.33203125 -171.666992188 -108.999023438 -159 c 1
 -81.666015625 -187 -47.3330078125 -201 -6 -201 c 0
 20.6669921875 -201 42.1669921875 -191.333007812 58.5 -172 c 0
 74.8330078125 -152.666992188 83 -121.666992188 83 -79 c 2
149.000976562 536.5 m 0
 138.333984375 526.166992188 126.166992188 521.000976562 112.5 521.000976562 c 0
 98.8330078125 521.000976562 87 526.000976562 77 536.000976562 c 0
 67 546.000976562 62 558.66796875 62 574.000976562 c 0
 62 589.333984375 67.3330078125 602.166992188 78 612.5 c 0
 88.6669921875 622.833007812 100.833984375 628 114.500976562 628 c 0
 128.16796875 628 140.000976562 622.833007812 150.000976562 612.5 c 0
 160.000976562 602.166992188 165.000976562 589.5 165.000976562 574.5 c 0
 165.000976562 559.5 159.66796875 546.833007812 149.000976562 536.5 c 0
EndSplineSet
Validated: 1
Substitution2: "'smcp' Lowercase to Small Capitals in Latin lookup 0 subtable" Jsmall
Substitution2: "'sups' Superscript lookup 0 subtable" j.superior
EndChar

StartChar: k
Encoding: 107 107 76
Width: 477
GlyphClass: 2
Flags: W
LayerCount: 2
Fore
SplineSet
66 49 m 2
 67.99609375 335.005859375 l 1
 67.99609375 451.005859375 l 2
 67.99609375 608.338867188 65.3291015625 704.671875 59.99609375 740.004882812 c 1
 70.6630859375 742.004882812 82.330078125 743.004882812 94.9970703125 743.004882812 c 0
 125.6640625 743.004882812 140.997070312 730.337890625 140.997070312 705.004882812 c 0
 140.997070312 702.337890625 140.6640625 687.004882812 139.997070312 659.004882812 c 0
 135.997070312 556.337890625 133.997070312 472.670898438 133.997070312 408.00390625 c 1
 181.330078125 452.670898438 232.330078125 475.00390625 286.997070312 475.00390625 c 0
 330.330078125 475.00390625 363.330078125 463.170898438 385.997070312 439.50390625 c 0
 408.6640625 415.836914062 419.997070312 385.169921875 419.997070312 347.502929688 c 0
 419.997070312 309.8359375 407.497070312 276.168945312 382.497070312 246.501953125 c 0
 357.497070312 216.834960938 322.6640625 199.66796875 277.997070312 195.000976562 c 1
 313.330078125 136.333984375 339.830078125 97.833984375 357.497070312 79.5009765625 c 0
 375.1640625 61.16796875 394.331054688 52.0009765625 414.998046875 52.0009765625 c 0
 425.665039062 52.0009765625 434.33203125 53.333984375 440.999023438 56.0009765625 c 1
 446.999023438 44.0009765625 449.999023438 33.16796875 449.999023438 23.5009765625 c 0
 449.999023438 13.833984375 442.999023438 5.833984375 428.999023438 -0.4990234375 c 0
 414.999023438 -6.83203125 401.666015625 -9.9990234375 388.999023438 -9.9990234375 c 0
 362.999023438 -9.9990234375 338.999023438 2.0009765625 316.999023438 26.0009765625 c 0
 294.999023438 50.0009765625 276.33203125 74.833984375 260.999023438 100.500976562 c 0
 245.666015625 126.16796875 232.999023438 147.334960938 222.999023438 164.001953125 c 0
 212.999023438 180.668945312 206.33203125 192.001953125 202.999023438 198.001953125 c 1
 185.666015625 200.001953125 176.999023438 207.001953125 176.999023438 219.001953125 c 0
 176.999023438 226.334960938 178.666015625 234.334960938 181.999023438 243.001953125 c 1
 203.33203125 238.334960938 220.33203125 236.001953125 232.999023438 236.001953125 c 0
 269.666015625 236.001953125 297.999023438 246.168945312 317.999023438 266.501953125 c 0
 337.999023438 286.834960938 347.999023438 309.334960938 347.999023438 334.001953125 c 0
 347.999023438 358.668945312 341.166015625 379.001953125 327.499023438 395.001953125 c 0
 313.83203125 411.001953125 295.33203125 419.001953125 271.999023438 419.001953125 c 0
 248.666015625 419.001953125 224.333007812 412.168945312 199 398.501953125 c 0
 173.666992188 384.834960938 152 367.66796875 134 347.000976562 c 1
 134 202.000976562 l 2
 134 113.333984375 140.333007812 47.6669921875 153 5 c 1
 141 -0.3330078125 127 -3 111 -3 c 0
 95 -3 83.5 1 76.5 9 c 0
 69.5 17 66 30.3330078125 66 49 c 2
EndSplineSet
Validated: 1
Substitution2: "'smcp' Lowercase to Small Capitals in Latin lookup 0 subtable" Ksmall
Substitution2: "'sups' Superscript lookup 0 subtable" k.superior
EndChar

StartChar: l
Encoding: 108 108 77
Width: 213
GlyphClass: 2
Flags: W
HStem: -3 21G<103 119> 723.002 20G<88.6665 110.333>
VStem: 67.999 66.001<9.37891 681.941>
LayerCount: 2
Fore
SplineSet
66 49 m 2
 67.9990234375 335.002929688 l 1
 67.9990234375 451.002929688 l 2
 67.9990234375 608.3359375 65.33203125 704.668945312 59.9990234375 740.001953125 c 1
 70.666015625 742.001953125 82.3330078125 743.001953125 95 743.001953125 c 0
 125.666992188 743.001953125 141 730.334960938 141 705.001953125 c 0
 141 702.334960938 140.666992188 684.66796875 140 652.000976562 c 0
 136 530.66796875 134 432.66796875 134 358.000976562 c 2
 134 202.000976562 l 2
 134 113.333984375 140.333007812 47.6669921875 153 5 c 1
 141 -0.3330078125 127 -3 111 -3 c 0
 95 -3 83.5 1 76.5 9 c 0
 69.5 17 66 30.3330078125 66 49 c 2
EndSplineSet
Validated: 1
Substitution2: "'smcp' Lowercase to Small Capitals in Latin lookup 0 subtable" Lsmall
Substitution2: "'sups' Superscript lookup 0 subtable" l.superior
EndChar

StartChar: m
Encoding: 109 109 78
Width: 773
GlyphClass: 2
Flags: W
HStem: -2.00391 21G<103.999 124.999 380.999 401.999 663 678> 418.996 56.001<202.268 328.022 478.87 601.895>
VStem: 78.999 66<3.12389 379.655> 350.999 73<3.12413 382.65> 625 71<8.86244 390.631>
LayerCount: 2
Fore
SplineSet
625 48 m 2
 630.999023438 306.997070312 l 2
 630.999023438 344.997070312 623.166015625 373.1640625 607.499023438 391.497070312 c 0
 591.83203125 409.830078125 571.33203125 418.997070312 545.999023438 418.997070312 c 0
 507.33203125 418.997070312 465.999023438 401.330078125 421.999023438 365.997070312 c 1
 423.33203125 275.330078125 423.999023438 203.163085938 423.999023438 149.49609375 c 0
 423.999023438 95.8291015625 425.999023438 46.3291015625 429.999023438 0.99609375 c 1
 419.33203125 -1.00390625 407.999023438 -2.00390625 395.999023438 -2.00390625 c 0
 365.999023438 -2.00390625 350.999023438 10.6630859375 350.999023438 35.99609375 c 0
 350.999023438 38.6630859375 351.33203125 51.99609375 351.999023438 75.99609375 c 0
 354.666015625 133.329101562 355.999023438 210.329101562 355.999023438 306.99609375 c 0
 355.999023438 381.663085938 326.666015625 418.99609375 267.999023438 418.99609375 c 0
 229.999023438 418.99609375 188.999023438 400.663085938 144.999023438 363.99609375 c 1
 146.33203125 273.329101562 146.999023438 201.49609375 146.999023438 148.49609375 c 0
 146.999023438 95.49609375 148.999023438 46.3291015625 152.999023438 0.99609375 c 1
 142.33203125 -1.00390625 130.999023438 -2.00390625 118.999023438 -2.00390625 c 0
 88.9990234375 -2.00390625 73.9990234375 10.6630859375 73.9990234375 35.99609375 c 0
 73.9990234375 38.6630859375 74.83203125 63.1630859375 76.4990234375 109.49609375 c 0
 78.166015625 155.829101562 78.9990234375 201.99609375 78.9990234375 247.99609375 c 0
 78.9990234375 357.329101562 72.666015625 427.99609375 59.9990234375 459.99609375 c 1
 73.33203125 465.329101562 85.33203125 467.99609375 95.9990234375 467.99609375 c 0
 126.666015625 467.99609375 141.999023438 451.329101562 141.999023438 417.99609375 c 1
 162.666015625 434.663085938 187.333007812 448.330078125 216 458.997070312 c 0
 244.666992188 469.6640625 272.333984375 474.997070312 299.000976562 474.997070312 c 0
 353.66796875 474.997070312 390.66796875 453.330078125 410.000976562 409.997070312 c 1
 428.000976562 427.997070312 453.16796875 443.330078125 485.500976562 455.997070312 c 0
 517.833984375 468.6640625 550.166992188 474.997070312 582.5 474.997070312 c 0
 614.833007812 474.997070312 642.333007812 463.830078125 665 441.497070312 c 0
 687.666992188 419.1640625 699 383.331054688 699 333.998046875 c 2
 696 155.998046875 l 2
 696 94.6650390625 701.666992188 44.33203125 713 4.9990234375 c 1
 699.666992188 -0.333984375 685.5 -3.0009765625 670.5 -3.0009765625 c 0
 655.5 -3.0009765625 644.166992188 0.83203125 636.5 8.4990234375 c 0
 628.833007812 16.166015625 625 29.3330078125 625 48 c 2
EndSplineSet
Validated: 1
Substitution2: "'smcp' Lowercase to Small Capitals in Latin lookup 0 subtable" Msmall
Substitution2: "'sups' Superscript lookup 0 subtable" m.superior
EndChar

StartChar: n
Encoding: 110 110 79
Width: 519
GlyphClass: 2
Flags: W
LayerCount: 2
Fore
SplineSet
371 48 m 2
 377 306.998046875 l 2
 377 344.331054688 367.833007812 372.331054688 349.5 390.998046875 c 0
 331.166992188 409.665039062 307.666992188 418.998046875 279 418.998046875 c 0
 233.666992188 418.998046875 189 400.665039062 145 363.998046875 c 1
 146.333007812 273.331054688 147 201.498046875 147 148.498046875 c 0
 147 95.498046875 149 46.3310546875 153 0.998046875 c 1
 142.333007812 -1.001953125 131 -2.001953125 119 -2.001953125 c 0
 89 -2.001953125 74 10.6650390625 74 35.998046875 c 0
 74 38.6650390625 74.8330078125 63.1650390625 76.5 109.498046875 c 0
 78.1669921875 155.831054688 79 201.998046875 79 247.998046875 c 0
 79 357.331054688 72.6669921875 427.998046875 60 459.998046875 c 1
 73.3330078125 465.331054688 85.3330078125 467.998046875 96 467.998046875 c 0
 126.666992188 467.998046875 142 451.331054688 142 417.998046875 c 1
 162 433.331054688 187.666992188 446.6640625 219 457.997070312 c 0
 250.333007812 469.330078125 283.333007812 474.997070312 318 474.997070312 c 0
 352.666992188 474.997070312 382.5 463.830078125 407.5 441.497070312 c 0
 432.5 419.1640625 445 383.331054688 445 333.998046875 c 2
 442 155.998046875 l 2
 442 94.6650390625 447.666992188 44.33203125 459 4.9990234375 c 1
 445.666992188 -0.333984375 431.5 -3.0009765625 416.5 -3.0009765625 c 0
 401.5 -3.0009765625 390.166992188 0.83203125 382.5 8.4990234375 c 0
 374.833007812 16.166015625 371 29.3330078125 371 48 c 2
EndSplineSet
Validated: 1
Substitution2: "'smcp' Lowercase to Small Capitals in Latin lookup 0 subtable" Nsmall
Substitution2: "'sups' Superscript lookup 0 subtable" n.superior
EndChar

StartChar: o
Encoding: 111 111 80
Width: 525
GlyphClass: 2
Flags: W
LayerCount: 2
Fore
SplineSet
420 56 m 0
 380 12 327.5 -10 262.5 -10 c 0
 197.5 -10 145 12 105 56 c 0
 65 100 45 158.666992188 45 232 c 0
 45 305.333007812 65 364.166015625 105 408.499023438 c 0
 145 452.83203125 197.5 474.999023438 262.5 474.999023438 c 0
 327.5 474.999023438 380 452.83203125 420 408.499023438 c 0
 460 364.166015625 480 305.333007812 480 232 c 0
 480 158.666992188 460 100 420 56 c 0
371 93 m 0
 397 124.333007812 410 167.333984375 410 222.000976562 c 0
 410 276.66796875 396.666992188 323.16796875 370 361.500976562 c 0
 343.333007812 399.833984375 307 419.000976562 261 419.000976562 c 0
 215 419.000976562 179.166992188 403.16796875 153.5 371.500976562 c 0
 127.833007812 339.833984375 115 296.666992188 115 242 c 0
 115 187.333007812 128 141 154 103 c 0
 180 65 216.166992188 46 262.5 46 c 0
 308.833007812 46 345 61.6669921875 371 93 c 0
EndSplineSet
Validated: 1
Substitution2: "'smcp' Lowercase to Small Capitals in Latin lookup 0 subtable" Osmall
Substitution2: "'sups' Superscript lookup 0 subtable" o.superior
EndChar

StartChar: p
Encoding: 112 112 81
Width: 517
GlyphClass: 2
Flags: W
LayerCount: 2
Fore
SplineSet
76 -196 m 2
 79.0009765625 249.000976562 l 2
 79.0009765625 354.333984375 72.66796875 424.666992188 60.0009765625 460 c 1
 72.0009765625 465.333007812 85.0009765625 468 99.0009765625 468 c 0
 127.66796875 468 142.000976562 451.333007812 142.000976562 418 c 1
 192.66796875 456 244.16796875 475 296.500976562 475 c 0
 348.833984375 475 391.166992188 457.166992188 423.5 421.5 c 0
 455.833007812 385.833007812 472 331.666015625 472 258.999023438 c 0
 472 154.999023438 440.333007812 78.33203125 377 28.9990234375 c 0
 343.666992188 2.9990234375 305.5 -10.0009765625 262.5 -10.0009765625 c 0
 219.5 -10.0009765625 180.333007812 1.33203125 145 23.9990234375 c 1
 145 -89.333984375 147.333007812 -159.500976562 152 -186.500976562 c 0
 156.666992188 -213.500976562 161 -233.000976562 165 -245.000976562 c 1
 153 -250.333984375 138.5 -253.000976562 121.5 -253.000976562 c 0
 104.5 -253.000976562 92.6669921875 -248.66796875 86 -240.000976562 c 0
 79.3330078125 -231.333984375 76 -216.666992188 76 -196 c 2
147.000976562 76.0009765625 m 1
 177.66796875 56.0009765625 217.66796875 46.0009765625 267.000976562 46.0009765625 c 0
 297.000976562 46.0009765625 322.66796875 56.0009765625 344.000976562 76.0009765625 c 0
 382.000976562 113.333984375 401.000976562 169.333984375 401.000976562 244.000976562 c 0
 401.000976562 304.000976562 389.500976562 348.16796875 366.500976562 376.500976562 c 0
 343.500976562 404.833984375 311.66796875 419.000976562 271.000976562 419.000976562 c 0
 230.333984375 419.000976562 188.333984375 400.66796875 145.000976562 364.000976562 c 1
 146.333984375 217.333984375 147.000976562 121.333984375 147.000976562 76.0009765625 c 1
EndSplineSet
Validated: 1
Substitution2: "'smcp' Lowercase to Small Capitals in Latin lookup 0 subtable" Psmall
Substitution2: "'sups' Superscript lookup 0 subtable" p.superior
EndChar

StartChar: q
Encoding: 113 113 82
Width: 518
GlyphClass: 2
Flags: W
LayerCount: 2
Fore
SplineSet
374 39 m 1
 338 6.3330078125 294 -10 242 -10 c 0
 190 -10 144.166992188 13 104.5 59 c 0
 64.8330078125 105 45 164 45 236 c 0
 45 308 65.6669921875 365.833007812 107 409.5 c 0
 148.333007812 453.166992188 200 475 262 475 c 0
 336.666992188 475 401.666992188 452.333007812 457 407 c 1
 446.333007812 293 441 164.166992188 441 20.5 c 0
 441 -123.166992188 446.666992188 -211.666992188 458 -245 c 1
 444.666992188 -250.333007812 430 -253 414 -253 c 0
 384.666992188 -253 370 -236.166992188 370 -202.5 c 0
 370 -168.833007812 370.666992188 -124.333007812 372 -69 c 0
 373.333007812 -13.6669921875 374 22.3330078125 374 39 c 1
256 419 m 0
 216.666992188 419 183.333007812 403.166015625 156 371.499023438 c 0
 128.666992188 339.83203125 115 296.33203125 115 240.999023438 c 0
 115 185.666015625 128.833007812 139.333007812 156.5 102 c 0
 184.166992188 64.6669921875 219 46 261 46 c 0
 303 46 341 64.3330078125 375 101 c 1
 375.666992188 173 379 263 385 371 c 1
 350.333007812 403 307.333007812 419 256 419 c 0
EndSplineSet
Validated: 1
Substitution2: "'smcp' Lowercase to Small Capitals in Latin lookup 0 subtable" Qsmall
Substitution2: "'sups' Superscript lookup 0 subtable" q.superior
EndChar

StartChar: r
Encoding: 114 114 83
Width: 315
GlyphClass: 2
Flags: W
LayerCount: 2
Fore
SplineSet
65 54 m 2
 67.001953125 231 l 2
 67.001953125 326.333007812 64.6689453125 404.333007812 60.001953125 465 c 1
 70.6689453125 467 82.001953125 468 94.001953125 468 c 0
 122.668945312 468 137.001953125 455.333007812 137.001953125 430 c 0
 137.001953125 428.666992188 136.834960938 424.166992188 136.501953125 416.5 c 0
 136.168945312 408.833007812 136.001953125 401.666015625 136.001953125 394.999023438 c 1
 149.334960938 415.666015625 167.16796875 434.166015625 189.500976562 450.499023438 c 0
 211.833984375 466.83203125 232.333984375 474.999023438 251.000976562 474.999023438 c 0
 287.000976562 474.999023438 305.000976562 461.999023438 305.000976562 435.999023438 c 0
 305.000976562 423.33203125 298.333984375 408.33203125 285.000976562 390.999023438 c 1
 270.333984375 403.666015625 254.000976562 409.999023438 236.000976562 409.999023438 c 0
 218.000976562 409.999023438 199.66796875 402.666015625 181.000976562 387.999023438 c 0
 162.333984375 373.33203125 146.666992188 353.999023438 134 329.999023438 c 1
 133.333007812 307.33203125 133 257.999023438 133 181.999023438 c 0
 133 105.999023438 139.333007812 46.9990234375 152 4.9990234375 c 1
 140 -0.333984375 125.833007812 -3.0009765625 109.5 -3.0009765625 c 0
 93.1669921875 -3.0009765625 81.6669921875 1.33203125 75 9.9990234375 c 0
 68.3330078125 18.666015625 65 33.3330078125 65 54 c 2
EndSplineSet
Validated: 1
Substitution2: "'smcp' Lowercase to Small Capitals in Latin lookup 0 subtable" Rsmall
Substitution2: "'sups' Superscript lookup 0 subtable" r.superior
EndChar

StartChar: s
Encoding: 115 115 84
Width: 409
GlyphClass: 2
Flags: W
LayerCount: 2
Fore
SplineSet
310 354 m 1
 302.666992188 373.333007812 287.670898438 388.995117188 265.00390625 400.995117188 c 0
 242.336914062 412.995117188 219.169921875 418.995117188 195.502929688 418.995117188 c 0
 171.8359375 418.995117188 151.668945312 412.828125 135.001953125 400.495117188 c 0
 118.334960938 388.162109375 110.001953125 371.329101562 110.001953125 349.99609375 c 0
 110.001953125 328.663085938 118.834960938 312.330078125 136.501953125 300.997070312 c 0
 154.168945312 289.6640625 175.668945312 280.997070312 201.001953125 274.997070312 c 0
 226.334960938 268.997070312 251.66796875 262.1640625 277.000976562 254.497070312 c 0
 302.333984375 246.830078125 323.833984375 232.997070312 341.500976562 212.997070312 c 0
 359.16796875 192.997070312 368.000976562 166.997070312 368.000976562 134.997070312 c 0
 368.000976562 87.6640625 351.000976562 51.6640625 317.000976562 26.9970703125 c 0
 283.000976562 2.330078125 244.16796875 -10.0029296875 200.500976562 -10.0029296875 c 0
 156.833984375 -10.0029296875 119.166992188 -2.3359375 87.5 12.9970703125 c 0
 55.8330078125 28.330078125 40 47.330078125 40 69.9970703125 c 0
 40 89.330078125 55 103.330078125 85 111.997070312 c 1
 92.3330078125 90.6640625 108.166015625 74.3310546875 132.499023438 62.998046875 c 0
 156.83203125 51.6650390625 183.33203125 45.998046875 211.999023438 45.998046875 c 0
 240.666015625 45.998046875 263.833007812 52.3310546875 281.5 64.998046875 c 0
 299.166992188 77.6650390625 308 95.6650390625 308 118.998046875 c 0
 308 142.331054688 299.166992188 159.331054688 281.5 169.998046875 c 0
 263.833007812 180.665039062 242.333007812 188.83203125 217 194.499023438 c 0
 191.666992188 200.166015625 166.333984375 206.833007812 141.000976562 214.5 c 0
 115.66796875 222.166992188 94.16796875 236.666992188 76.5009765625 258 c 0
 58.833984375 279.333007812 50.0009765625 308.5 50.0009765625 345.5 c 0
 50.0009765625 382.5 67.16796875 413.333007812 101.500976562 438 c 0
 135.833984375 462.666992188 171.666992188 475 209 475 c 0
 246.333007812 475 280 468 310 454 c 0
 340 440 355 421.666992188 355 399 c 0
 355 376.333007812 340 361.333007812 310 354 c 1
EndSplineSet
Validated: 1
Substitution2: "'smcp' Lowercase to Small Capitals in Latin lookup 0 subtable" Ssmall
Substitution2: "'sups' Superscript lookup 0 subtable" s.superior
EndChar

StartChar: t
Encoding: 116 116 85
Width: 352
GlyphClass: 2
Flags: W
HStem: -10.001 53.002<184.827 307.33> 411 54.0029<1.46484 94 165 326.167>
VStem: 94 75<202.705 409.437 465.003 575.912> 94 67<67.5291 406.627>
LayerCount: 2
Fore
SplineSet
96 411 m 1xd0
 94 411 63 408.669921875 3 404.002929688 c 1
 1 410.002929688 0 419.502929688 0 432.502929688 c 0
 0 445.502929688 5 454.169921875 15 458.502929688 c 0
 25 462.8359375 42 465.002929688 66 465.002929688 c 2
 94 465.002929688 l 1
 92.6669921875 509.669921875 90.6669921875 547.002929688 88 577.002929688 c 1
 98 579.002929688 109 580.002929688 121 580.002929688 c 0
 153 580.002929688 169 567.3359375 169 542.002929688 c 0xe0
 169 532.669921875 167.666992188 506.669921875 165 464.002929688 c 1
 249.666992188 464.002929688 305.666992188 465.669921875 333 469.002929688 c 1
 335.666992188 463.669921875 337 455.169921875 337 443.502929688 c 0
 337 431.8359375 333.5 423.668945312 326.5 419.001953125 c 0
 319.5 414.334960938 306.5 411.66796875 287.5 411.000976562 c 0
 268.5 410.333984375 227 410.000976562 163 410.000976562 c 1
 161.666992188 338.000976562 161 267.833984375 161 199.500976562 c 0
 161 131.16796875 167.5 88.0009765625 180.5 70.0009765625 c 0
 193.5 52.0009765625 214.5 43.0009765625 243.5 43.0009765625 c 0
 272.5 43.0009765625 297 53.0009765625 317 73.0009765625 c 1
 329 60.333984375 335 47.6669921875 335 35 c 0
 335 22.3330078125 326.333007812 11.666015625 309 2.9990234375 c 0
 291.666992188 -5.66796875 270.666992188 -10.0009765625 246 -10.0009765625 c 0
 190.666992188 -10.0009765625 151.5 5.9990234375 128.5 37.9990234375 c 0
 105.5 69.9990234375 94 117.666015625 94 180.999023438 c 0
 95.3330078125 301.666015625 96 378.333007812 96 411 c 1xd0
EndSplineSet
Validated: 1
Substitution2: "'smcp' Lowercase to Small Capitals in Latin lookup 0 subtable" Tsmall
Substitution2: "'sups' Superscript lookup 0 subtable" t.superior
EndChar

StartChar: u
Encoding: 117 117 86
Width: 518
GlyphClass: 2
Flags: W
LayerCount: 2
Fore
SplineSet
443 430 m 2
 438.999023438 203.000976562 l 2
 438.999023438 118.333984375 445.33203125 52.333984375 457.999023438 5.0009765625 c 1
 444.666015625 -0.33203125 432.333007812 -2.9990234375 421 -2.9990234375 c 0
 390.333007812 -2.9990234375 375 13.66796875 375 47.0009765625 c 1
 327 9.0009765625 274 -9.9990234375 216 -9.9990234375 c 0
 121.333007812 -9.9990234375 74 37.0009765625 74 131.000976562 c 2
 77 309.000976562 l 2
 77 369.66796875 71.3330078125 420.000976562 60 460.000976562 c 1
 73.3330078125 465.333984375 87.5 468.000976562 102.5 468.000976562 c 0
 117.5 468.000976562 128.833007812 464.16796875 136.5 456.500976562 c 0
 144.166992188 448.833984375 148 435.666992188 148 417 c 2
 142 158 l 2
 142 122 150.833007812 94.3330078125 168.5 75 c 0
 186.166992188 55.6669921875 209 46 237 46 c 0
 285 46 330 64.3330078125 372 101 c 1
 371.333007812 129.666992188 371 183 371 261 c 0
 371 339 368.666992188 407 364 465 c 1
 374.666992188 467 386 468 398 468 c 0
 428 468 443 455.333007812 443 430 c 2
EndSplineSet
Validated: 1
Substitution2: "'smcp' Lowercase to Small Capitals in Latin lookup 0 subtable" Usmall
Substitution2: "'sups' Superscript lookup 0 subtable" u.superior
EndChar

StartChar: v
Encoding: 118 118 87
Width: 439
GlyphClass: 2
Flags: W
LayerCount: 2
Fore
SplineSet
368 475 m 0
 392.666992188 475 405.000976562 462.330078125 405.000976562 436.997070312 c 0
 405.000976562 391.6640625 388.500976562 323.831054688 355.500976562 233.498046875 c 0
 322.500976562 143.165039062 288.66796875 77.33203125 254.000976562 35.9990234375 c 0
 241.333984375 20.666015625 230.666992188 10.3330078125 222 5 c 0
 213.333007812 -0.3330078125 203.833007812 -3 193.5 -3 c 0
 183.166992188 -3 173 -2 163 0 c 1
 147.666992188 76.6669921875 122.333984375 163.5 87.0009765625 260.5 c 0
 51.66796875 357.5 21.66796875 418.333007812 -2.9990234375 443 c 1
 17.0009765625 461 35.333984375 470 52.0009765625 470 c 0
 68.66796875 470 82.0009765625 458.333007812 92.0009765625 435 c 0
 106.000976562 403 126.66796875 348 154.000976562 270 c 0
 181.333984375 192 201.666992188 126 215 72 c 1
 242.333007812 107.333007812 269.833007812 163.333007812 297.5 240 c 0
 325.166992188 316.666992188 339 383 339 439 c 0
 339 449.666992188 338 460 336 470 c 1
 346 473.333007812 356.666992188 475 368 475 c 0
EndSplineSet
Validated: 1
Substitution2: "'smcp' Lowercase to Small Capitals in Latin lookup 0 subtable" Vsmall
Substitution2: "'sups' Superscript lookup 0 subtable" v.superior
EndChar

StartChar: w
Encoding: 119 119 88
Width: 693
GlyphClass: 2
Flags: W
LayerCount: 2
Fore
SplineSet
622 475 m 0
 646.666992188 475 659.001953125 462.666992188 659.001953125 438 c 0
 659.001953125 413.333007812 653.168945312 378.333007812 641.501953125 333 c 0
 629.834960938 287.666992188 615.66796875 243 599.000976562 199 c 0
 556.333984375 93.6669921875 518.000976562 29 484.000976562 5 c 0
 476.000976562 -0.3330078125 467.16796875 -3 457.500976562 -3 c 0
 447.833984375 -3 438.000976562 -2 428.000976562 0 c 1
 410.66796875 88 384.334960938 183.333007812 349.001953125 286 c 1
 312.334960938 170 274.001953125 86.6669921875 234.001953125 36 c 0
 221.334960938 20.6669921875 211.16796875 10.333984375 203.500976562 5.0009765625 c 0
 195.833984375 -0.33203125 187.166992188 -2.9990234375 177.5 -2.9990234375 c 0
 167.833007812 -2.9990234375 158 -1.9990234375 148 0.0009765625 c 1
 133.333007812 76.66796875 110 163.66796875 78 261.000976562 c 0
 46 358.333984375 19 419.000976562 -3 443.000976562 c 1
 17 461.000976562 35.3330078125 470.000976562 52 470.000976562 c 0
 68.6669921875 470.000976562 82 458.333984375 92 435.000976562 c 0
 104 405.000976562 122 350.66796875 146 272.000976562 c 0
 170 193.333984375 188 126.666992188 200 72 c 1
 224.666992188 107.333007812 249.666992188 163.333007812 275 240 c 0
 300.333007812 316.666992188 313 382.666992188 313 438 c 0
 313 449.333007812 312 460 310 470 c 1
 320 473.333007812 330.666992188 475 342 475 c 0
 366.666992188 475 379 461.666992188 379 435 c 0
 379 408.333007812 378.666992188 392.666015625 378 387.999023438 c 0
 393.333007812 362.666015625 411 318.333007812 431 255 c 0
 451 191.666992188 467.333007812 130.666992188 480 72 c 1
 504.666992188 107.333007812 529.666992188 163.333007812 555 240 c 0
 580.333007812 316.666992188 593 382.666992188 593 438 c 0
 593 449.333007812 592 460 590 470 c 1
 600 473.333007812 610.666992188 475 622 475 c 0
EndSplineSet
Validated: 1
Substitution2: "'smcp' Lowercase to Small Capitals in Latin lookup 0 subtable" Wsmall
Substitution2: "'sups' Superscript lookup 0 subtable" w.superior
EndChar

StartChar: x
Encoding: 120 120 89
Width: 433
GlyphClass: 2
Flags: W
LayerCount: 2
Fore
SplineSet
327 475 m 1
 364.333007812 468.333007812 382.999023438 455.66796875 382.999023438 437.000976562 c 0
 382.999023438 407.000976562 339.999023438 343.333984375 253.999023438 246.000976562 c 1
 324.666015625 125.333984375 379.333007812 53.0009765625 418 29.0009765625 c 1
 398.666992188 3.0009765625 381.166992188 -9.9990234375 365.5 -9.9990234375 c 0
 349.833007812 -9.9990234375 335.333007812 -0.666015625 322 18.0009765625 c 0
 296 53.333984375 258 112.000976562 208 194.000976562 c 1
 180.666992188 162.66796875 153.666992188 126.834960938 127 86.501953125 c 0
 100.333007812 46.1689453125 84.3330078125 14.001953125 79 -9.998046875 c 1
 43 -3.998046875 25 8.6689453125 25 28.001953125 c 0
 25 45.3349609375 36 67.66796875 58 95.0009765625 c 0
 80 122.333984375 95.5 141.500976562 104.5 152.500976562 c 0
 113.5 163.500976562 128.166992188 180.16796875 148.5 202.500976562 c 0
 168.833007812 224.833984375 179.666015625 236.666992188 180.999023438 238 c 0
 113.666015625 348.666992188 62.666015625 415 27.9990234375 437 c 1
 48.666015625 462.333007812 66.666015625 475 81.9990234375 475 c 0
 97.33203125 475 111.999023438 466 125.999023438 448 c 0
 157.999023438 400.666992188 191.33203125 348.666992188 225.999023438 292 c 1
 251.33203125 324.666992188 273.83203125 358.666992188 293.499023438 394 c 0
 313.166015625 429.333007812 324.333007812 456.333007812 327 475 c 1
EndSplineSet
Validated: 1
Substitution2: "'smcp' Lowercase to Small Capitals in Latin lookup 0 subtable" Xsmall
Substitution2: "'sups' Superscript lookup 0 subtable" x.superior
EndChar

StartChar: y
Encoding: 121 121 90
Width: 441
GlyphClass: 2
Flags: W
LayerCount: 2
Fore
SplineSet
376 475 m 0
 399.333007812 475 411.000976562 460.502929688 411.000976562 431.502929688 c 0
 411.000976562 402.502929688 399.16796875 350.502929688 375.500976562 275.502929688 c 0
 351.833984375 200.502929688 323.666992188 128.3359375 291 59.0029296875 c 0
 232.333007812 -65.6640625 177 -160.331054688 125 -224.998046875 c 0
 111.666992188 -242.331054688 98.6669921875 -250.998046875 86 -250.998046875 c 0
 67.3330078125 -250.998046875 49 -237.665039062 31 -210.998046875 c 1
 51 -198.331054688 77.6669921875 -172.498046875 111 -133.498046875 c 0
 144.333007812 -94.498046875 173.333007812 -55.3310546875 198 -15.998046875 c 1
 174.666992188 61.3349609375 143 149.501953125 103 248.501953125 c 0
 63 347.501953125 28.6669921875 410.668945312 -0 438.001953125 c 1
 23.3330078125 459.334960938 42.5 470.001953125 57.5 470.001953125 c 0
 72.5 470.001953125 85.3330078125 459.334960938 96 438.001953125 c 0
 112 406.001953125 135.666992188 350.168945312 167 270.501953125 c 0
 198.333007812 190.834960938 221.666015625 124.66796875 236.999023438 72.0009765625 c 1
 265.666015625 134.000976562 290.833007812 200.66796875 312.5 272.000976562 c 0
 334.166992188 343.333984375 345 399.666992188 345 441 c 0
 345 444.333007812 344.333007812 454 343 470 c 1
 353 473.333007812 364 475 376 475 c 0
EndSplineSet
Validated: 1
Substitution2: "'smcp' Lowercase to Small Capitals in Latin lookup 0 subtable" Ysmall
Substitution2: "'sups' Superscript lookup 0 subtable" y.superior
EndChar

StartChar: z
Encoding: 122 122 91
Width: 454
GlyphClass: 2
Flags: W
HStem: -6.00098 55.001<82.6892 336.06> 413.999 57.001<66.2943 336.626>
LayerCount: 2
Fore
SplineSet
378 451 m 1
 388.666992188 440.333007812 394 425.166992188 394 405.5 c 0
 394 385.833007812 388.333007812 370.333007812 377 359 c 2
 82 52 l 1
 104.666992188 50 127 49 149 49 c 0
 220.333007812 49 294.333007812 59 371 79 c 1
 377 67 380 55.1669921875 380 43.5 c 0
 380 31.8330078125 377.166992188 23.166015625 371.5 17.4990234375 c 0
 365.833007812 11.83203125 360 7.9990234375 354 5.9990234375 c 0
 324 -2.0009765625 275.166992188 -6.0009765625 207.5 -6.0009765625 c 0
 139.833007812 -6.0009765625 84 -2.0009765625 40 5.9990234375 c 1
 30 19.9990234375 25 36.9990234375 25 56.9990234375 c 0
 25 76.9990234375 32.3330078125 94.33203125 47 108.999023438 c 2
 338 407.999023438 l 1
 300.666992188 411.999023438 264.666992188 413.999023438 230 413.999023438 c 0
 160.666992188 413.999023438 102 405.999023438 54 389.999023438 c 1
 48.6001845397 403.198865299 45.899920889 416.398707161 45.899920889 429.598549023 c 0
 45.899920889 431.065699349 45.9332802668 432.532849674 46 434 c 0
 46.6669921875 448.666992188 55 458.5 71 463.5 c 0
 87 468.5 127.833007812 471 193.5 471 c 0
 259.166992188 471 320.666992188 464.333007812 378 451 c 1
EndSplineSet
Validated: 1
Substitution2: "'smcp' Lowercase to Small Capitals in Latin lookup 0 subtable" Zsmall
Substitution2: "'sups' Superscript lookup 0 subtable" z.superior
EndChar

StartChar: braceleft
Encoding: 123 123 92
Width: 426
GlyphClass: 2
Flags: W
LayerCount: 2
Fore
SplineSet
182 286 m 1
 198.666992188 280 214.33203125 265.998046875 228.999023438 243.998046875 c 0
 243.666015625 221.998046875 250.999023438 200.665039062 250.999023438 179.998046875 c 2
 250.999023438 -19.001953125 l 2
 250.999023438 -33.001953125 251.499023438 -43.001953125 252.499023438 -49.001953125 c 0
 253.499023438 -55.001953125 256.33203125 -61.3349609375 260.999023438 -68.001953125 c 0
 268.33203125 -78.001953125 290.33203125 -83.001953125 326.999023438 -83.001953125 c 0
 343.666015625 -83.001953125 355.833007812 -85.501953125 363.5 -90.501953125 c 0
 371.166992188 -95.501953125 375 -103.834960938 375 -115.501953125 c 0
 375 -127.168945312 373.666992188 -135.668945312 371 -141.001953125 c 1
 362.333007812 -141.668945312 350.333007812 -142.001953125 335 -142.001953125 c 0
 277 -142.001953125 237.333007812 -133.168945312 216 -115.501953125 c 0
 194.666992188 -97.8349609375 184 -69.66796875 184 -31.0009765625 c 2
 184 177.999023438 l 2
 184 197.999023438 174.333007812 216.83203125 155 234.499023438 c 0
 135.666992188 252.166015625 107.333984375 260.999023438 70.0009765625 260.999023438 c 1
 70.0009765625 310.999023438 l 1
 107.333984375 310.999023438 135.833984375 319.999023438 155.500976562 337.999023438 c 0
 175.16796875 355.999023438 185.000976562 374.999023438 185.000976562 394.999023438 c 2
 185.000976562 603.999023438 l 2
 185.000976562 642.666015625 195.500976562 670.833007812 216.500976562 688.5 c 0
 237.500976562 706.166992188 277.000976562 715 335.000976562 715 c 0
 350.333984375 715 362.333984375 714.666992188 371.000976562 714 c 1
 373.66796875 708.666992188 375.000976562 700.166992188 375.000976562 688.5 c 0
 375.000976562 676.833007812 371.16796875 668.5 363.500976562 663.5 c 0
 355.833984375 658.5 339.166992188 656 313.5 656 c 0
 287.833007812 656 270.833007812 651.666992188 262.5 643 c 0
 254.166992188 634.333007812 250 617.333007812 250 592 c 2
 250 393 l 2
 250 372.333007812 242.833007812 350.833007812 228.5 328.5 c 0
 214.166992188 306.166992188 198.666992188 292 182 286 c 1
EndSplineSet
Validated: 1
EndChar

StartChar: bar
Encoding: 124 124 93
Width: 535
GlyphClass: 2
Flags: W
LayerCount: 2
Fore
SplineSet
237 136 m 2
 237 444 l 2
 237 601.333007812 234.333007812 697.666015625 229 732.999023438 c 1
 239.666992188 734.999023438 249.666992188 735.999023438 259 735.999023438 c 0
 289.666992188 735.999023438 305 723.33203125 305 697.999023438 c 0
 305 695.33203125 304.666992188 677.33203125 304 643.999023438 c 0
 300 523.33203125 298 425.665039062 298 350.998046875 c 2
 298 42.998046875 l 2
 298 -114.334960938 300.666992188 -210.66796875 306 -246.000976562 c 1
 295.333007812 -248.000976562 285.333007812 -249.000976562 276 -249.000976562 c 0
 245.333007812 -249.000976562 230 -236.333984375 230 -211.000976562 c 0
 230 -208.333984375 230.666992188 -190.666992188 232 -158 c 0
 235.333007812 -75.3330078125 237 22.6669921875 237 136 c 2
EndSplineSet
Validated: 1
EndChar

StartChar: braceright
Encoding: 125 125 94
Width: 404
GlyphClass: 2
Flags: W
LayerCount: 2
Fore
SplineSet
223 286 m 1
 206.333007812 292 190.830078125 306.169921875 176.497070312 328.502929688 c 0
 162.1640625 350.8359375 154.997070312 372.3359375 154.997070312 393.002929688 c 2
 154.997070312 592.002929688 l 2
 154.997070312 605.3359375 154.497070312 615.168945312 153.497070312 621.501953125 c 0
 152.497070312 627.834960938 149.330078125 634.001953125 143.997070312 640.001953125 c 0
 135.997070312 650.668945312 118.830078125 656.001953125 92.4970703125 656.001953125 c 0
 66.1640625 656.001953125 49.1640625 658.501953125 41.4970703125 663.501953125 c 0
 33.830078125 668.501953125 29.9970703125 676.834960938 29.9970703125 688.501953125 c 0
 29.9970703125 700.168945312 31.330078125 708.668945312 33.9970703125 714.001953125 c 1
 42.6640625 714.668945312 54.6640625 715.001953125 69.9970703125 715.001953125 c 0
 127.997070312 715.001953125 167.497070312 706.168945312 188.497070312 688.501953125 c 0
 209.497070312 670.834960938 219.997070312 642.66796875 219.997070312 604.000976562 c 2
 219.997070312 395.000976562 l 2
 219.997070312 375.000976562 229.830078125 356.000976562 249.497070312 338.000976562 c 0
 269.1640625 320.000976562 297.6640625 311.000976562 334.997070312 311.000976562 c 1
 334.997070312 261.000976562 l 1
 297.6640625 261.000976562 269.331054688 252.16796875 249.998046875 234.500976562 c 0
 230.665039062 216.833984375 220.998046875 198.000976562 220.998046875 178.000976562 c 2
 220.998046875 -30.9990234375 l 2
 220.998046875 -69.666015625 210.331054688 -97.8330078125 188.998046875 -115.5 c 0
 167.665039062 -133.166992188 127.998046875 -142 69.998046875 -142 c 0
 54.6650390625 -142 42.6650390625 -141.666992188 33.998046875 -141 c 1
 31.3310546875 -135.666992188 29.998046875 -127.166992188 29.998046875 -115.5 c 0
 29.998046875 -103.833007812 33.8310546875 -95.5 41.498046875 -90.5 c 0
 49.1650390625 -85.5 61.83203125 -83 79.4990234375 -83 c 0
 97.166015625 -83 111.166015625 -82 121.499023438 -80 c 0
 131.83203125 -78 139.33203125 -73.8330078125 143.999023438 -67.5 c 0
 148.666015625 -61.1669921875 151.499023438 -55 152.499023438 -49 c 0
 153.499023438 -43 153.999023438 -33 153.999023438 -19 c 2
 153.999023438 180 l 2
 153.999023438 200.666992188 161.33203125 222 175.999023438 244 c 0
 190.666015625 266 206.333007812 280 223 286 c 1
EndSplineSet
Validated: 1
EndChar

StartChar: asciitilde
Encoding: 126 126 95
Width: 546
GlyphClass: 2
Flags: W
LayerCount: 2
Fore
SplineSet
40 267 m 0
 40 308.333007812 72.66796875 329.000976562 138.000976562 329.000976562 c 0
 172.000976562 329.000976562 215.500976562 322.333984375 268.500976562 309.000976562 c 0
 321.500976562 295.66796875 360.333984375 289.000976562 385.000976562 289.000976562 c 0
 429.000976562 289.000976562 463.000976562 300.66796875 487.000976562 324.000976562 c 1
 499.66796875 307.333984375 506.000976562 289.666992188 506.000976562 271 c 0
 506.000976562 252.333007812 494.000976562 238 470.000976562 228 c 0
 446.000976562 218 420.66796875 213 394.000976562 213 c 0
 367.333984375 213 328.666992188 219.666992188 278 233 c 0
 227.333007812 246.333007812 188.333007812 253 161 253 c 0
 117 253 83 241.333007812 59 218 c 1
 46.3330078125 234.666992188 40 251 40 267 c 0
EndSplineSet
Validated: 1
EndChar

StartChar: exclamdown
Encoding: 161 161 96
Width: 311
GlyphClass: 2
Flags: W
LayerCount: 2
Fore
SplineSet
150 475 m 0
 166.666992188 475 181 469 193 457 c 0
 205 445 211 430 211 412 c 0
 211 394 205 378.833007812 193 366.5 c 0
 181 354.166992188 166.666992188 348 150 348 c 0
 133.333007812 348 119.166015625 354.166992188 107.499023438 366.5 c 0
 95.83203125 378.833007812 89.9990234375 394 89.9990234375 412 c 0
 89.9990234375 430 95.83203125 445 107.499023438 457 c 0
 119.166015625 469 133.333007812 475 150 475 c 0
192 114 m 0
 192 -54 197.999023438 -162.666015625 209.999023438 -211.999023438 c 1
 186.666015625 -216.666015625 169.333007812 -218.999023438 158 -218.999023438 c 0
 126.666992188 -218.999023438 111 -202.666015625 111 -169.999023438 c 0
 111 -151.33203125 114 -113.999023438 120 -57.9990234375 c 0
 126 -1.9990234375 129 50.0009765625 129 98.0009765625 c 2
 129 142.000976562 l 2
 129 195.333984375 123.666992188 236.666992188 113 266 c 1
 126.333007812 272.666992188 138.666015625 276 149.999023438 276 c 0
 176.666015625 276 190.333007812 260 191 228 c 0
 191.666992188 219.333007812 192 181.333007812 192 114 c 0
EndSplineSet
Validated: 1
Substitution2: "'c2sc' Capitals to Small Capitals in Latin lookup 0 subtable" exclamdownsmall
EndChar

StartChar: cent
Encoding: 162 162 97
Width: 535
GlyphClass: 2
Flags: W
LayerCount: 2
Fore
SplineSet
172 458 m 0
 148 427.333007812 136 386.5 136 335.5 c 0
 136 284.5 148 243.666992188 172 213 c 0
 196 182.333007812 227 162 265 152 c 1
 265 518 l 1
 227 508.666992188 196 488.666992188 172 458 c 0
427 456 m 1
 393.666992188 502 355.331054688 525 311.998046875 525 c 2
 303.998046875 525 l 1
 303.998046875 146 l 1
 313.998046875 146 l 2
 356.665039062 146 394.33203125 169 426.999023438 215 c 1
 455.666015625 208.333007812 469.999023438 193 469.999023438 169 c 0
 469.999023438 145 451.999023438 125.833007812 415.999023438 111.5 c 0
 379.999023438 97.1669921875 345.33203125 90 311.999023438 90 c 2
 303.999023438 90 l 1
 304.666015625 66 306.333007812 38 309 6 c 1
 294 4 l 2
 274.666992188 4 265 13 265 31 c 2
 265 94 l 1
 206.333007812 102.666992188 157.5 127 118.5 167 c 0
 79.5 207 60 263 60 335 c 0
 60 407 79.6669921875 463.166992188 119 503.5 c 0
 158.333007812 543.833007812 207 568.333007812 265 577 c 1
 264.333007812 593 262.666015625 623.666992188 259.999023438 669 c 1
 266.666015625 671 272.333007812 672 277 672 c 0
 295 672 304 663 304 645 c 2
 304 581 l 1
 312 581 l 2
 345.333007812 581 380 573.833007812 416 559.5 c 0
 452 545.166992188 470 526 470 502 c 0
 470 478 455.666992188 462.666992188 427 456 c 1
EndSplineSet
Validated: 1
EndChar

StartChar: sterling
Encoding: 163 163 98
Width: 535
GlyphClass: 2
Flags: W
LayerCount: 2
Fore
SplineSet
410 391 m 1
 412.666992188 385.666992188 414.001953125 376.666015625 414.001953125 363.999023438 c 0
 414.001953125 351.33203125 409.834960938 342.83203125 401.501953125 338.499023438 c 0
 393.168945312 334.166015625 377.3359375 331.999023438 354.002929688 331.999023438 c 0
 330.669921875 331.999023438 310.669921875 332.33203125 294.002929688 332.999023438 c 1
 297.3359375 317.666015625 299.002929688 303.333007812 299.002929688 290 c 0
 299.002929688 216.666992188 248.002929688 138.333984375 146.002929688 55.0009765625 c 1
 161.3359375 53.0009765625 190.3359375 52.0009765625 233.002929688 52.0009765625 c 0
 322.3359375 52.0009765625 395.668945312 62.66796875 453.001953125 84.0009765625 c 1
 463.001953125 69.333984375 468.001953125 55.1669921875 468.001953125 41.5 c 0
 468.001953125 27.8330078125 459.001953125 17.3330078125 441.001953125 10 c 0
 417.001953125 1.3330078125 361.668945312 -3 275.001953125 -3 c 0
 188.334960938 -3 123.001953125 1 79.001953125 9 c 1
 73.001953125 17 70.001953125 30.6669921875 70.001953125 50 c 1
 117.334960938 78.6669921875 154.16796875 113.333984375 180.500976562 154.000976562 c 0
 206.833984375 194.66796875 220.000976562 232.334960938 220.000976562 267.001953125 c 0
 220.000976562 287.668945312 216.000976562 310.668945312 208.000976562 336.001953125 c 1
 166.000976562 336.001953125 130.000976562 334.668945312 100.000976562 332.001953125 c 1
 98.0009765625 338.001953125 97.0009765625 343.334960938 97.0009765625 348.001953125 c 0
 97.0009765625 364.001953125 108.16796875 372.834960938 130.500976562 374.501953125 c 0
 152.833984375 376.168945312 173.333984375 377.001953125 192.000976562 377.001953125 c 1
 189.333984375 383.001953125 184.333984375 394.001953125 177.000976562 410.001953125 c 0
 169.66796875 426.001953125 164.66796875 438.001953125 162.000976562 446.001953125 c 0
 152.000976562 472.001953125 147.000976562 494.001953125 147.000976562 512.001953125 c 0
 147.000976562 551.334960938 161.500976562 588.001953125 190.500976562 622.001953125 c 0
 219.500976562 656.001953125 256.333984375 673.001953125 301.000976562 673.001953125 c 0
 320.333984375 673.001953125 338.166992188 668.168945312 354.5 658.501953125 c 0
 370.833007812 648.834960938 379 634.834960938 379 616.501953125 c 0
 379 598.168945312 367.666992188 583.668945312 345 573.001953125 c 1
 331 596.334960938 308.666992188 608.001953125 278 608.001953125 c 0
 260 608.001953125 244.666992188 602.334960938 232 591.001953125 c 0
 219.333007812 579.668945312 213 565.001953125 213 547.001953125 c 0
 213 529.001953125 216.5 511.668945312 223.5 495.001953125 c 0
 230.5 478.334960938 240 458.66796875 252 436.000976562 c 0
 264 413.333984375 273 394.666992188 279 380 c 1
 337 383.333007812 380.666992188 387 410 391 c 1
EndSplineSet
Validated: 1
Substitution2: "'onum' Oldstyle Figures Lookup 0" sterlingoldstyle
EndChar

StartChar: yen
Encoding: 165 165 99
Width: 535
GlyphClass: 2
Flags: W
LayerCount: 2
Fore
SplineSet
224 196 m 1
 215.000976562 196.001953125 l 2
 145.000976562 196.001953125 91.333984375 194.334960938 54.0009765625 191.001953125 c 1
 52.0009765625 198.334960938 51.0009765625 204.001953125 51.0009765625 208.001953125 c 0
 51.0009765625 226.001953125 60.0009765625 235.001953125 78.0009765625 235.001953125 c 2
 225.000976562 235.001953125 l 1
 225.000976562 306.001953125 l 1
 215.000976562 306.001953125 l 2
 145.000976562 306.001953125 91.333984375 304.334960938 54.0009765625 301.001953125 c 1
 52.0009765625 308.334960938 51.0009765625 314.001953125 51.0009765625 318.001953125 c 0
 51.0009765625 336.001953125 60.0009765625 345.001953125 78.0009765625 345.001953125 c 2
 205.000976562 345.001953125 l 1
 125.66796875 496.334960938 59.66796875 590.66796875 7.0009765625 628.000976562 c 1
 23.66796875 654.66796875 43.0009765625 668.000976562 65.0009765625 668.000976562 c 0
 78.333984375 668.000976562 93.0009765625 656.000976562 109.000976562 632.000976562 c 0
 167.000976562 547.333984375 221.333984375 457.666992188 272.000976562 363 c 1
 303.333984375 405 336.833984375 460.666992188 372.500976562 530 c 0
 408.16796875 599.333007812 426.66796875 646.333007812 428.000976562 671 c 0
 430.66796875 671.666992188 435.66796875 672 443.000976562 672 c 0
 473.66796875 672 489.000976562 659 489.000976562 633 c 0
 489.000976562 617.666992188 470.500976562 577.666992188 433.500976562 513 c 0
 396.500976562 448.333007812 360.000976562 392.333007812 324.000976562 345 c 1
 385.333984375 345 433.666992188 346.666992188 469 350 c 1
 471 335 l 2
 471 315.666992188 462 306 444 306 c 2
 292 306 l 1
 292 235 l 1
 307 235 l 2
 377 235 431 236.666992188 469 240 c 1
 471 225 l 2
 471 205.666992188 462 196 444 196 c 2
 292 196 l 1
 292 108 298 44.3330078125 310 5 c 1
 298 -0.3330078125 284 -3 268 -3 c 0
 238 -3 223 13.3330078125 223 46 c 0
 223.666992188 94.6669921875 224 144.666992188 224 196 c 1
EndSplineSet
Validated: 1
Substitution2: "'onum' Oldstyle Figures Lookup 0" yenoldstyle
EndChar

StartChar: brokenbar
Encoding: 166 166 100
Width: 535
GlyphClass: 2
Flags: W
LayerCount: 2
Fore
SplineSet
230 332 m 2
 237 534 l 1
 237 564 l 2
 237 642 234.333007812 698.666992188 229 734 c 1
 239.666992188 736 249.666992188 737 259 737 c 0
 289.666992188 737 305 724.333007812 305 699 c 2
 298 528 l 1
 298 489 l 2
 298 409 300.666992188 345 306 297 c 1
 295.333007812 295 285.333007812 294 276 294 c 0
 245.333007812 294 230 306.666992188 230 332 c 2
230 -211 m 2
 237 -9 l 1
 237 22 l 2
 237 100 234.333007812 156.666992188 229 192 c 1
 239.666992188 194 249.666992188 195 259 195 c 0
 289.666992188 195 305 182.333007812 305 157 c 2
 298 -14 l 1
 298 -54 l 2
 298 -134 300.666992188 -198 306 -246 c 1
 295.333007812 -248 285.333007812 -249 276 -249 c 0
 245.333007812 -249 230 -236.333007812 230 -211 c 2
EndSplineSet
Validated: 1
EndChar

StartChar: section
Encoding: 167 167 101
Width: 445
GlyphClass: 2
Flags: W
LayerCount: 2
Fore
SplineSet
129 406 m 1
 119.666992188 391.333007812 115 371.833007812 115 347.5 c 0
 115 323.166992188 126 302.666992188 148 286 c 0
 170 269.333007812 199.833007812 252.666015625 237.5 235.999023438 c 0
 275.166992188 219.33203125 303 203.33203125 321 187.999023438 c 1
 330.333007812 203.33203125 335 221.83203125 335 243.499023438 c 0
 335 265.166015625 327.5 283.833007812 312.5 299.5 c 0
 297.5 315.166992188 280.333007812 326.666992188 261 334 c 0
 197.666992188 359.333007812 153.666992188 383.333007812 129 406 c 1
81.5 251 m 0
 63.8330078125 273 55.0029296875 302.831054688 55.0029296875 340.498046875 c 0
 55.0029296875 378.165039062 70.669921875 410.998046875 102.002929688 438.998046875 c 1
 85.3359375 471.665039062 77.0029296875 502.665039062 77.0029296875 531.998046875 c 0
 77.0029296875 573.331054688 92.3359375 606.998046875 123.002929688 632.998046875 c 0
 153.669921875 658.998046875 194.002929688 671.998046875 244.002929688 671.998046875 c 0
 275.3359375 671.998046875 306.002929688 664.998046875 336.002929688 650.998046875 c 0
 366.002929688 636.998046875 381.002929688 618.665039062 381.002929688 595.998046875 c 0
 381.002929688 573.331054688 366.002929688 558.331054688 336.002929688 550.998046875 c 1
 328.669921875 570.331054688 313.669921875 585.998046875 291.002929688 597.998046875 c 0
 268.3359375 609.998046875 244.8359375 615.998046875 220.502929688 615.998046875 c 0
 196.169921875 615.998046875 176.002929688 610.165039062 160.002929688 598.498046875 c 0
 144.002929688 586.831054688 136.002929688 569.331054688 136.002929688 545.998046875 c 0
 136.002929688 522.665039062 142.3359375 502.498046875 155.002929688 485.498046875 c 0
 167.669921875 468.498046875 183.669921875 455.331054688 203.002929688 445.998046875 c 0
 222.3359375 436.665039062 243.168945312 426.33203125 265.501953125 414.999023438 c 0
 287.834960938 403.666015625 308.66796875 392.499023438 328.000976562 381.499023438 c 0
 347.333984375 370.499023438 363.333984375 354.666015625 376.000976562 333.999023438 c 0
 388.66796875 313.33203125 395.000976562 288.999023438 395.000976562 260.999023438 c 0
 395.000976562 219.666015625 379.66796875 184.333007812 349.000976562 155 c 1
 366.333984375 126.333007812 375.000976562 97.3330078125 375.000976562 68 c 0
 375.000976562 27.3330078125 359.66796875 -7.1669921875 329.000976562 -35.5 c 0
 298.333984375 -63.8330078125 259.166992188 -78 211.5 -78 c 0
 163.833007812 -78 124.166015625 -70.3330078125 92.4990234375 -55 c 0
 60.83203125 -39.6669921875 44.9990234375 -20.6669921875 44.9990234375 2 c 0
 44.9990234375 21.3330078125 59.9990234375 35.3330078125 89.9990234375 44 c 1
 105.33203125 0.6669921875 149.665039062 -21 222.998046875 -21 c 0
 249.665039062 -21 271.33203125 -14.8330078125 287.999023438 -2.5 c 0
 304.666015625 9.8330078125 312.999023438 29.3330078125 312.999023438 56 c 0
 312.999023438 82.6669921875 304.166015625 105 286.499023438 123 c 0
 268.83203125 141 247.33203125 155.5 221.999023438 166.5 c 0
 196.666015625 177.5 171.333007812 188.833007812 146 200.5 c 0
 120.666992188 212.166992188 99.1669921875 229 81.5 251 c 0
EndSplineSet
Validated: 1
EndChar

StartChar: dieresis
Encoding: 168 168 102
Width: 257
GlyphClass: 2
Flags: W
LayerCount: 2
Fore
SplineSet
252 536.5 m 0
 241.333007812 526.166992188 229.166015625 521.000976562 215.499023438 521.000976562 c 0
 201.83203125 521.000976562 189.999023438 526.000976562 179.999023438 536.000976562 c 0
 169.999023438 546.000976562 164.999023438 558.66796875 164.999023438 574.000976562 c 0
 164.999023438 589.333984375 170.33203125 602.166992188 180.999023438 612.5 c 0
 191.666015625 622.833007812 203.833007812 628 217.5 628 c 0
 231.166992188 628 243 622.833007812 253 612.5 c 0
 263 602.166992188 268 589.5 268 574.5 c 0
 268 559.5 262.666992188 546.833007812 252 536.5 c 0
74 536.500976562 m 0
 63.3330078125 526.16796875 51.166015625 521.001953125 37.4990234375 521.001953125 c 0
 23.83203125 521.001953125 11.9990234375 526.001953125 1.9990234375 536.001953125 c 0
 -8.0009765625 546.001953125 -13.0009765625 558.668945312 -13.0009765625 574.001953125 c 0
 -13.0009765625 589.334960938 -7.66796875 602.16796875 2.9990234375 612.500976562 c 0
 13.666015625 622.833984375 25.8330078125 628.000976562 39.5 628.000976562 c 0
 53.1669921875 628.000976562 65 622.833984375 75 612.500976562 c 0
 85 602.16796875 90 589.500976562 90 574.500976562 c 0
 90 559.500976562 84.6669921875 546.833984375 74 536.500976562 c 0
EndSplineSet
Validated: 1
EndChar

StartChar: copyright
Encoding: 169 169 103
Width: 888
GlyphClass: 2
Flags: W
LayerCount: 2
Fore
SplineSet
588 195 m 1
 607.333007812 184.333007812 616.999023438 171.333984375 616.999023438 156.000976562 c 0
 616.999023438 140.66796875 604.666015625 127.16796875 579.999023438 115.500976562 c 0
 555.33203125 103.833984375 528.33203125 98.0009765625 498.999023438 98.0009765625 c 0
 469.666015625 98.0009765625 443.166015625 101.833984375 419.499023438 109.500976562 c 0
 395.83203125 117.16796875 373.499023438 129.16796875 352.499023438 145.500976562 c 0
 331.499023438 161.833984375 314.666015625 184.833984375 301.999023438 214.500976562 c 0
 289.33203125 244.16796875 282.999023438 278.66796875 282.999023438 318.000976562 c 0
 282.999023438 393.333984375 303.83203125 450.500976562 345.499023438 489.500976562 c 0
 387.166015625 528.500976562 434.333007812 548.000976562 487 548.000976562 c 0
 530.333007812 548.000976562 566 536.000976562 594 512.000976562 c 0
 610 499.333984375 618 484.333984375 618 467.000976562 c 0
 618 444.333984375 603.666992188 431.000976562 575 427.000976562 c 1
 569 447.66796875 556.833007812 463.16796875 538.5 473.500976562 c 0
 520.166992188 483.833984375 500.666992188 489.000976562 480 489.000976562 c 0
 448 489.000976562 421.166992188 474.333984375 399.5 445.000976562 c 0
 377.833007812 415.66796875 367 374.16796875 367 320.500976562 c 0
 367 266.833984375 380.333007812 226.166992188 407 198.5 c 0
 433.666992188 170.833007812 466 157 504 157 c 0
 542 157 570 169.666992188 588 195 c 1
670.499023438 105.000976562 m 0
 723.499023438 159.66796875 749.999023438 231.169921875 749.999023438 319.502929688 c 0
 749.999023438 407.8359375 723.499023438 479.502929688 670.499023438 534.502929688 c 0
 617.499023438 589.502929688 552.666015625 617.002929688 475.999023438 617.002929688 c 0
 399.33203125 617.002929688 334.499023438 589.669921875 281.499023438 535.002929688 c 0
 228.499023438 480.3359375 201.999023438 408.668945312 201.999023438 320.001953125 c 0
 201.999023438 231.334960938 228.499023438 159.66796875 281.499023438 105.000976562 c 0
 334.499023438 50.333984375 399.33203125 23.0009765625 475.999023438 23.0009765625 c 0
 552.666015625 23.0009765625 617.499023438 50.333984375 670.499023438 105.000976562 c 0
721.999023438 573.002929688 m 0
 788.666015625 505.669921875 821.999023438 421.669921875 821.999023438 321.002929688 c 0
 821.999023438 220.3359375 788.499023438 136.002929688 721.499023438 68.0029296875 c 0
 654.499023438 0.0029296875 572.499023438 -33.9970703125 475.499023438 -33.9970703125 c 0
 378.499023438 -33.9970703125 296.666015625 -0.1640625 229.999023438 67.5029296875 c 0
 163.33203125 135.169921875 129.999023438 219.502929688 129.999023438 320.502929688 c 0
 129.999023438 421.502929688 163.33203125 505.669921875 229.999023438 573.002929688 c 0
 296.666015625 640.3359375 378.666015625 674.002929688 475.999023438 674.002929688 c 0
 573.33203125 674.002929688 655.33203125 640.3359375 721.999023438 573.002929688 c 0
EndSplineSet
Validated: 1
EndChar

StartChar: ordfeminine
Encoding: 170 170 104
Width: 302
GlyphClass: 2
Flags: W
LayerCount: 2
Fore
SplineSet
236 256 m 2
 147.998046875 264 l 2
 104.665039062 264 66.33203125 261.333007812 32.9990234375 256 c 1
 30.9990234375 264 29.9990234375 272.333007812 29.9990234375 281 c 0
 29.9990234375 289.666992188 32.9990234375 297.5 38.9990234375 304.5 c 0
 44.9990234375 311.5 53.9990234375 315 65.9990234375 315 c 0
 67.33203125 315 79.33203125 313.833007812 101.999023438 311.5 c 0
 124.666015625 309.166992188 152.499023438 308 185.499023438 308 c 0
 218.499023438 308 246.33203125 310.333007812 268.999023438 315 c 1
 270.999023438 307.666992188 271.999023438 299.5 271.999023438 290.5 c 0
 271.999023438 281.5 268.83203125 273.5 262.499023438 266.5 c 0
 256.166015625 259.5 247.333007812 256 236 256 c 2
249.998046875 553 m 2
 248.998046875 479 l 2
 248.998046875 435.666992188 252.331054688 404 258.998046875 384 c 1
 250.998046875 381.333007812 241.998046875 380 231.998046875 380 c 0
 213.331054688 380 202.998046875 388 200.998046875 404 c 1
 178.331054688 385.333007812 154.6640625 376 129.997070312 376 c 0
 71.9970703125 376 42.9970703125 402.333007812 42.9970703125 455 c 0
 42.9970703125 488.333007812 59.9970703125 509.333007812 93.9970703125 518 c 0
 122.6640625 526 157.997070312 530.666992188 199.997070312 532 c 1
 199.997070312 560 196.330078125 579.166992188 188.997070312 589.5 c 0
 181.6640625 599.833007812 169.331054688 605 151.998046875 605 c 0
 115.998046875 605 92.6650390625 593 81.998046875 569 c 1
 61.998046875 573.666992188 51.998046875 581.666992188 51.998046875 593 c 0
 51.998046875 608.333007812 61.998046875 620.5 81.998046875 629.5 c 0
 101.998046875 638.5 126.998046875 643 156.998046875 643 c 0
 186.998046875 643 209.998046875 636.5 225.998046875 623.5 c 0
 241.998046875 610.5 249.998046875 587 249.998046875 553 c 2
197.998046875 500 m 1
 143.998046875 494 112.665039062 486 103.998046875 476 c 0
 99.998046875 471.333007812 97.998046875 465 97.998046875 457 c 0
 97.998046875 427.666992188 112.665039062 413 141.998046875 413 c 0
 165.998046875 413 183.998046875 420 195.998046875 434 c 1
 195.998046875 459 l 2
 195.998046875 477 196.665039062 490.666992188 197.998046875 500 c 1
EndSplineSet
Validated: 1
EndChar

StartChar: guillemotleft
Encoding: 171 171 105
Width: 474
GlyphClass: 2
Flags: W
LayerCount: 2
Fore
SplineSet
308 235 m 1
 331.333007812 206.333007812 354.833007812 174.331054688 378.5 138.998046875 c 0
 402.166992188 103.665039062 414 81.498046875 414 72.498046875 c 0
 414 63.498046875 407.333007812 53.998046875 394 43.998046875 c 1
 350 80.6650390625 295 144.33203125 229 234.999023438 c 1
 295 325.666015625 350 389.333007812 394 426 c 1
 407.333007812 416 414 406.5 414 397.5 c 0
 414 388.5 402.166992188 366.333007812 378.5 331 c 0
 354.833007812 295.666992188 331.333007812 263.666992188 308 235 c 1
119 234.998046875 m 1
 142.333007812 206.331054688 165.833007812 174.329101562 189.5 138.99609375 c 0
 213.166992188 103.663085938 225 81.49609375 225 72.49609375 c 0
 225 63.49609375 218.333007812 53.99609375 205 43.99609375 c 1
 161 80.6630859375 106 144.330078125 40 234.997070312 c 1
 106 325.6640625 161 389.331054688 205 425.998046875 c 1
 218.333007812 415.998046875 225 406.498046875 225 397.498046875 c 0
 225 388.498046875 213.166992188 366.331054688 189.5 330.998046875 c 0
 165.833007812 295.665039062 142.333007812 263.665039062 119 234.998046875 c 1
EndSplineSet
Validated: 1
EndChar

StartChar: logicalnot
Encoding: 172 172 106
Width: 535
GlyphClass: 2
Flags: W
LayerCount: 2
Fore
SplineSet
447 324 m 1
 449 102.000976562 l 2
 449 83.333984375 446 70.1669921875 440 62.5 c 0
 434 54.8330078125 423.666992188 51 409 51 c 0
 394.333007812 51 381.666015625 53.6669921875 370.999023438 59 c 1
 382.33203125 96.3330078125 387.999023438 155.333007812 387.999023438 236 c 2
 387.999023438 272 l 1
 156.999023438 272 l 2
 119.666015625 272 86.3330078125 267 57 257 c 1
 52.3330078125 268.333007812 50 278.333007812 50 287 c 0
 50 311.666992188 64 324 92 324 c 2
 447 324 l 1
EndSplineSet
Validated: 1
EndChar

StartChar: registered
Encoding: 174 174 107
Width: 607
GlyphClass: 2
Flags: W
LayerCount: 2
Fore
SplineSet
498 440 m 0
 498 494.666992188 481.666992188 538.833984375 449 572.500976562 c 0
 416.333007812 606.16796875 376.166015625 623.000976562 328.499023438 623.000976562 c 0
 280.83203125 623.000976562 240.665039062 606.16796875 207.998046875 572.500976562 c 0
 175.331054688 538.833984375 158.998046875 494.666992188 158.998046875 440 c 0
 158.998046875 385.333007812 175.331054688 341.166015625 207.998046875 307.499023438 c 0
 240.665039062 273.83203125 280.83203125 256.999023438 328.499023438 256.999023438 c 0
 376.166015625 256.999023438 416.333007812 273.83203125 449 307.499023438 c 0
 481.666992188 341.166015625 498 385.333007812 498 440 c 0
557 440 m 0
 557 374 534.833007812 318.66796875 490.5 274.000976562 c 0
 446.166992188 229.333984375 392 207.000976562 328 207.000976562 c 0
 264 207.000976562 210 229.333984375 166 274.000976562 c 0
 122 318.66796875 100 374.16796875 100 440.500976562 c 0
 100 506.833984375 122 562.166992188 166 606.5 c 0
 210 650.833007812 264 673 328 673 c 0
 392 673 446.166992188 650.666992188 490.5 606 c 0
 534.833007812 561.333007812 557 506 557 440 c 0
240 348.000976562 m 2
 242.001953125 408.001953125 l 1
 242.001953125 477.001953125 l 2
 242.001953125 511.668945312 240.668945312 538.668945312 238.001953125 558.001953125 c 1
 279.334960938 561.334960938 306.334960938 563.001953125 319.001953125 563.001953125 c 0
 391.001953125 563.001953125 427.001953125 539.001953125 427.001953125 491.001953125 c 0
 427.001953125 455.001953125 405.668945312 432.668945312 363.001953125 424.001953125 c 1
 376.334960938 401.334960938 392.001953125 380.001953125 410.001953125 360.001953125 c 0
 415.334960938 354.668945312 422.66796875 352.001953125 432.000976562 352.001953125 c 0
 433.333984375 349.334960938 434.000976562 345.66796875 434.000976562 341.000976562 c 0
 434.000976562 329.000976562 425.500976562 323.000976562 408.500976562 323.000976562 c 0
 391.500976562 323.000976562 377.333984375 331.333984375 366.000976562 348.000976562 c 0
 364.000976562 351.333984375 356.16796875 362.166992188 342.500976562 380.5 c 0
 328.833984375 398.833007812 319.666992188 412 315 420 c 1
 307 420 299.666992188 421 293 423 c 1
 293 397 l 2
 293 367.666992188 295.666992188 345.333984375 301 330.000976562 c 1
 295 326.66796875 285 325.000976562 271 325.000976562 c 0
 250.333007812 325.000976562 240 332.66796875 240 348.000976562 c 2
293.001953125 449.001953125 m 1
 306.334960938 446.334960938 318.169921875 445.002929688 328.502929688 445.002929688 c 0
 338.8359375 445.002929688 349.502929688 448.669921875 360.502929688 456.002929688 c 0
 371.502929688 463.3359375 377.002929688 475.002929688 377.002929688 491.002929688 c 0
 377.002929688 517.669921875 356.3359375 531.002929688 315.002929688 531.002929688 c 0
 310.3359375 531.002929688 302.668945312 530.3359375 292.001953125 529.002929688 c 1
 292.668945312 522.3359375 293.001953125 495.668945312 293.001953125 449.001953125 c 1
EndSplineSet
Validated: 1
EndChar

StartChar: macron
Encoding: 175 175 108
Width: 272
GlyphClass: 2
Flags: W
LayerCount: 2
Fore
SplineSet
30 615 m 2
 131.999023438 609 l 1
 153.999023438 609 l 2
 197.999023438 609 236.666015625 611 269.999023438 615 c 1
 271.33203125 606.333007812 271.999023438 597.333007812 271.999023438 588 c 0
 271.999023438 563.333007812 261.999023438 551 241.999023438 551 c 0
 239.999023438 551 233.33203125 551.333007812 221.999023438 552 c 0
 186.666015625 555.333007812 155.333007812 557 128 557 c 2
 106 557 l 2
 66 557 31.3330078125 555 2 551 c 1
 0.6669921875 557.666992188 0 566.666992188 0 578 c 0
 0 602.666992188 10 615 30 615 c 2
EndSplineSet
Validated: 1
EndChar

StartChar: degree
Encoding: 176 176 109
Width: 406
GlyphClass: 2
Flags: W
LayerCount: 2
Fore
SplineSet
110 547 m 0
 110 516.333007812 117.666992188 491.333007812 133 472 c 0
 148.333007812 452.666992188 170.333007812 443 199 443 c 0
 227.666992188 443 250 453.166992188 266 473.5 c 0
 282 493.833007812 290 519.333007812 290 550 c 0
 290 580.666992188 282.5 605.833984375 267.5 625.500976562 c 0
 252.5 645.16796875 230.666992188 655.000976562 202 655.000976562 c 0
 173.333007812 655.000976562 150.833007812 644.66796875 134.5 624.000976562 c 0
 118.166992188 603.333984375 110 577.666992188 110 547 c 0
90.5 438 m 0
 62.1669921875 466.666992188 48.0009765625 503.166015625 48.0009765625 547.499023438 c 0
 48.0009765625 591.83203125 62.5009765625 628.83203125 91.5009765625 658.499023438 c 0
 120.500976562 688.166015625 157.333984375 702.999023438 202.000976562 702.999023438 c 0
 246.66796875 702.999023438 283.000976562 688.499023438 311.000976562 659.499023438 c 0
 339.000976562 630.499023438 353.000976562 593.83203125 353.000976562 549.499023438 c 0
 353.000976562 505.166015625 338.66796875 468.333007812 310.000976562 439 c 0
 281.333984375 409.666992188 244.666992188 395 200 395 c 0
 155.333007812 395 118.833007812 409.333007812 90.5 438 c 0
EndSplineSet
Validated: 1
EndChar

StartChar: plusminus
Encoding: 177 177 110
Width: 535
GlyphClass: 2
Flags: W
LayerCount: 2
Fore
SplineSet
420 6 m 2
 264.000976562 14 l 2
 188.000976562 14 120.66796875 11.3330078125 62.0009765625 6 c 1
 60.0009765625 16 59.0009765625 26.1669921875 59.0009765625 36.5 c 0
 59.0009765625 46.8330078125 62.0009765625 56.3330078125 68.0009765625 65 c 0
 74.0009765625 73.6669921875 83.0009765625 78 95.0009765625 78 c 0
 97.0009765625 78 118.000976562 76.8330078125 158.000976562 74.5 c 0
 198.000976562 72.1669921875 247.000976562 71 305.000976562 71 c 0
 363.000976562 71 412.333984375 73.3330078125 453.000976562 78 c 1
 455.000976562 72 456.000976562 62.5 456.000976562 49.5 c 0
 456.000976562 36.5 452.66796875 26 446.000976562 18 c 0
 439.333984375 10 430.666992188 6 420 6 c 2
303.000976562 445 m 2
 296.001953125 320.001953125 l 1
 368.001953125 320.001953125 427.001953125 322.668945312 473.001953125 328.001953125 c 1
 475.001953125 322.001953125 476.001953125 312.501953125 476.001953125 299.501953125 c 0
 476.001953125 286.501953125 472.668945312 276.001953125 466.001953125 268.001953125 c 0
 459.334960938 260.001953125 450.66796875 256.001953125 440.000976562 256.001953125 c 2
 295.000976562 263.001953125 l 1
 295.000976562 223.668945312 297.66796875 174.668945312 303.000976562 116.001953125 c 1
 293.000976562 114.001953125 282.66796875 113.001953125 272.000976562 113.001953125 c 0
 261.333984375 113.001953125 251.833984375 116.168945312 243.500976562 122.501953125 c 0
 235.16796875 128.834960938 231.000976562 135.834960938 231.000976562 143.501953125 c 0
 231.000976562 151.168945312 232.000976562 165.668945312 234.000976562 187.001953125 c 0
 236.000976562 208.334960938 237.333984375 234.001953125 238.000976562 264.001953125 c 1
 180.000976562 263.334960938 121.333984375 260.66796875 62.0009765625 256.000976562 c 1
 60.0009765625 266.000976562 59.0009765625 276.16796875 59.0009765625 286.500976562 c 0
 59.0009765625 296.833984375 62.0009765625 306.333984375 68.0009765625 315.000976562 c 0
 74.0009765625 323.66796875 83.0009765625 328.000976562 95.0009765625 328.000976562 c 2
 239.000976562 321.000976562 l 1
 239.000976562 379.66796875 236.333984375 432.000976562 231.000976562 478.000976562 c 1
 237.000976562 480.000976562 246.500976562 481.000976562 259.500976562 481.000976562 c 0
 272.500976562 481.000976562 283.000976562 477.66796875 291.000976562 471.000976562 c 0
 299.000976562 464.333984375 303.000976562 455.666992188 303.000976562 445 c 2
EndSplineSet
Validated: 1
EndChar

StartChar: two.superior
Encoding: 178 178 111
Width: 362
GlyphClass: 2
Flags: W
HStem: 427 47<82 306.187> 832 45<98.2247 219.366>
VStem: 247 56<670.835 804.586>
LayerCount: 2
Fore
SplineSet
63 777 m 1
 46 779 38 787 38 800 c 0
 38 818 53 835 81 852 c 0
 109 869 141 877 175 877 c 0
 209 877 239 866 265 845 c 0
 291 824 303 795 303 757 c 0
 303 734 299 712 292 693 c 0
 285 674 271 653 252 630 c 0
 233 607 211 585 186 563 c 0
 161 541 127 512 82 476 c 1
 97 475 124 474 160 474 c 0
 196 474 226 475 248 477 c 0
 270 479 293 484 315 492 c 1
 321 480 324 469 324 459 c 0
 324 449 318 441 307 437 c 0
 290 430 251 427 190 427 c 0
 129 427 86 427 59 428 c 0
 38 428 27 438 27 459 c 0
 27 463 28 466 28 468 c 0
 119 551 178 609 206 642 c 0
 234 675 247 706 247 736 c 0
 247 766 239 790 223 807 c 0
 207 824 189 832 168 832 c 0
 147 832 128 827 109 817 c 0
 90 807 75 793 63 777 c 1
EndSplineSet
Validated: 1
EndChar

StartChar: three.superior
Encoding: 179 179 112
Width: 368
GlyphClass: 2
Flags: W
HStem: 422 44<72.6615 220.722> 644 37<105 195.135> 833 44<105.92 220.474>
VStem: 239 58<715.92 813.755> 255 58<499.833 607.382>
LayerCount: 2
Fore
SplineSet
220 673 m 1xf0
 256 659 280 642 293 623 c 0
 306 604 313 582 313 556 c 0
 313 520 298 489 269 462 c 0
 240 435 200 422 149 422 c 0
 114 422 88 426 70 435 c 0
 52 444 43 455 43 466 c 0
 43 481 51 490 68 492 c 1
 84 475 109 466 145 466 c 0
 181 466 208 475 227 493 c 0
 246 511 255 531 255 555 c 0xe8
 255 579 244 600 222 618 c 0
 200 636 170 644 131 644 c 0
 124 644 119 645 116 646 c 0
 108 648 104 655 104 670 c 0
 104 674 105 678 105 681 c 1
 150 681 184 689 206 706 c 0
 228 723 239 741 239 762 c 0
 239 783 233 800 220 813 c 0
 207 826 191 833 172 833 c 0
 153 833 136 828 120 820 c 0
 104 812 91 799 81 783 c 1
 72 783 65 785 60 790 c 0
 55 795 52 800 52 806 c 0
 52 822 65 837 90 853 c 0
 115 869 146 877 181 877 c 0
 216 877 244 867 265 847 c 0
 286 827 297 803 297 775 c 0
 297 754 291 735 278 717 c 0
 265 699 246 684 220 673 c 1xf0
EndSplineSet
Validated: 1
EndChar

StartChar: acute
Encoding: 180 180 113
Width: 201
GlyphClass: 2
Flags: W
LayerCount: 2
Fore
SplineSet
216 702 m 1
 239.333007812 688.666992188 250.999023438 674.333007812 250.999023438 659 c 0
 250.999023438 643.666992188 243.166015625 630.5 227.499023438 619.5 c 0
 211.83203125 608.5 184.83203125 591.833007812 146.499023438 569.5 c 0
 108.166015625 547.166992188 84.666015625 532 75.9990234375 524 c 1
 65.33203125 533.333007812 59.9990234375 543.333007812 59.9990234375 554 c 0
 59.9990234375 564.666992188 65.33203125 574.166992188 75.9990234375 582.5 c 0
 86.666015625 590.833007812 105.833007812 605.333007812 133.5 626 c 0
 161.166992188 646.666992188 188.666992188 672 216 702 c 1
EndSplineSet
Validated: 1
EndChar

StartChar: mu
Encoding: 181 181 114
Width: 513
GlyphClass: 2
Flags: W
LayerCount: 2
Fore
SplineSet
438 430 m 2
 434 203.001953125 l 2
 434 118.334960938 440.333007812 52.3349609375 453 5.001953125 c 1
 439.666992188 -0.3310546875 427.333984375 -2.998046875 416.000976562 -2.998046875 c 0
 385.333984375 -2.998046875 370.000976562 13.6689453125 370.000976562 47.001953125 c 1
 350.000976562 30.3349609375 326.000976562 16.66796875 298.000976562 6.0009765625 c 0
 270.000976562 -4.666015625 240.16796875 -9.9990234375 208.500976562 -9.9990234375 c 0
 176.833984375 -9.9990234375 149.666992188 0.0009765625 127 20.0009765625 c 1
 121.666992188 -2.666015625 119 -26.3330078125 119 -51 c 0
 119 -111 131.333007812 -175.666992188 156 -245 c 1
 144 -250.333007812 129.5 -253 112.5 -253 c 0
 95.5 -253 83.6669921875 -248.666992188 77 -240 c 0
 70.3330078125 -231.333007812 67 -216.666015625 67 -195.999023438 c 0
 67 -103.999023438 67.6669921875 5.333984375 69 132.000976562 c 2
 72 309.000976562 l 2
 72 369.66796875 66.3330078125 420.000976562 55 460.000976562 c 1
 68.3330078125 465.333984375 82.5 468.000976562 97.5 468.000976562 c 0
 112.5 468.000976562 123.833007812 464.16796875 131.5 456.500976562 c 0
 139.166992188 448.833984375 143 435.666992188 143 417 c 2
 137 158 l 2
 137 122 145.833007812 94.3330078125 163.5 75 c 0
 181.166992188 55.6669921875 204 46 232 46 c 0
 280 46 325 64.3330078125 367 101 c 1
 366.333007812 129.666992188 366 183 366 261 c 0
 366 339 363.666992188 407 359 465 c 1
 369.666992188 467 381 468 393 468 c 0
 423 468 438 455.333007812 438 430 c 2
EndSplineSet
Validated: 1
EndChar

StartChar: paragraph
Encoding: 182 182 115
Width: 483
GlyphClass: 2
Flags: W
LayerCount: 2
Fore
SplineSet
225 575 m 2
 371.000976562 571.000976562 l 2
 408.333984375 571.000976562 437.333984375 571.333984375 458.000976562 572.000976562 c 1
 461.333984375 562.000976562 463.000976562 554.000976562 463.000976562 548.000976562 c 0
 463.000976562 525.333984375 443.66796875 514.000976562 405.000976562 514.000976562 c 2
 383.000976562 514.000976562 l 1
 374.333984375 412.66796875 370.000976562 296.66796875 370.000976562 166.000976562 c 2
 374.000976562 -74.9990234375 l 2
 374.000976562 -90.9990234375 370.66796875 -103.499023438 364.000976562 -112.499023438 c 0
 357.333984375 -121.499023438 346.000976562 -125.999023438 330.000976562 -125.999023438 c 0
 314.000976562 -125.999023438 299.333984375 -123.33203125 286.000976562 -117.999023438 c 1
 297.333984375 -85.9990234375 303.000976562 4.0009765625 303.000976562 152.000976562 c 0
 303.000976562 300.000976562 306.333984375 420.66796875 313.000976562 514.000976562 c 1
 282.333984375 514.000976562 264.000976562 514.66796875 258.000976562 516.000976562 c 1
 251.333984375 455.333984375 248.000976562 361.666992188 248.000976562 235 c 0
 248.000976562 223.666992188 233.000976562 218 203.000976562 218 c 0
 159.66796875 218 122.500976562 234.166992188 91.5009765625 266.5 c 0
 60.5009765625 298.833007812 45.0009765625 341.833007812 45.0009765625 395.5 c 0
 45.0009765625 449.166992188 62.16796875 492.5 96.5009765625 525.5 c 0
 130.833984375 558.5 173.666992188 575 225 575 c 2
EndSplineSet
Validated: 1
EndChar

StartChar: periodcentered
Encoding: 183 183 116
Width: 201
GlyphClass: 2
Flags: W
LayerCount: 2
Fore
SplineSet
101 197 m 0
 84.3330078125 197 70 203 58 215 c 0
 46 227 40 242 40 260 c 0
 40 278 46 293.166992188 58 305.5 c 0
 70 317.833007812 84.3330078125 324 101 324 c 0
 117.666992188 324 131.833984375 317.833007812 143.500976562 305.5 c 0
 155.16796875 293.166992188 161.000976562 278 161.000976562 260 c 0
 161.000976562 242 155.16796875 227 143.500976562 215 c 0
 131.833984375 203 117.666992188 197 101 197 c 0
EndSplineSet
Validated: 1
EndChar

StartChar: cedilla
Encoding: 184 184 117
Width: 155
GlyphClass: 2
Flags: W
LayerCount: 2
Fore
SplineSet
92 32 m 1
 129.000976562 26.998046875 l 1
 117.000976562 -9.001953125 111.000976562 -28.001953125 111.000976562 -30.001953125 c 0
 111.000976562 -32.001953125 111.16796875 -34.001953125 111.500976562 -36.001953125 c 0
 111.833984375 -38.001953125 112.666992188 -39.6689453125 114 -41.001953125 c 0
 115.333007812 -42.3349609375 116.333007812 -43.66796875 117 -45.0009765625 c 0
 117.666992188 -46.333984375 119.166992188 -47.833984375 121.5 -49.5009765625 c 0
 123.833007812 -51.16796875 125.333007812 -52.3349609375 126 -53.001953125 c 0
 131.333007812 -56.3349609375 135.333007812 -58.66796875 138 -60.0009765625 c 0
 169.333007812 -78.0009765625 185 -101.000976562 185 -129.000976562 c 0
 185 -157.000976562 173.5 -181.16796875 150.5 -201.500976562 c 0
 127.5 -221.833984375 99 -232.000976562 65 -232.000976562 c 0
 41.6669921875 -232.000976562 30 -223.66796875 30 -207.000976562 c 0
 30 -196.333984375 34.3330078125 -186.666992188 43 -178 c 1
 53 -184 63.3330078125 -187 74 -187 c 0
 107.333007812 -187 124 -173.666992188 124 -147 c 0
 124 -131.666992188 113.833007812 -115.5 93.5 -98.5 c 0
 73.1669921875 -81.5 63 -66.6669921875 63 -54 c 0
 63 -32 72.6669921875 -3.3330078125 92 32 c 1
EndSplineSet
Validated: 1
EndChar

StartChar: one.superior
Encoding: 185 185 118
Width: 362
GlyphClass: 2
Flags: W
HStem: 424 44<79.3428 163 217.953 291.621>
VStem: 164 51<468 834>
LayerCount: 2
Fore
SplineSet
163 468 m 1
 164 666 l 2
 164 729 164 785 162 834 c 1
 114 829 87 826 79 825 c 1
 78 830 77 835 77 839 c 0
 77 856 86 866 104 868 c 0
 153 875 183 879 191 879 c 0
 211 879 221 870 221 853 c 0
 221 849 221 837 220 815 c 0
 217 748 215 689 215 637 c 2
 215 596 l 2
 215 538 217 494 220 466 c 1
 251 466 274 467 290 469 c 1
 292 463 292 457 292 452 c 0
 292 433 284 423 266 423 c 2
 156 425 l 2
 121 425 97 424 83 424 c 1
 81 432 79 437 79 442 c 0
 79 459 92 468 118 468 c 2
 163 468 l 1
EndSplineSet
Validated: 1
EndChar

StartChar: ordmasculine
Encoding: 186 186 119
Width: 315
GlyphClass: 2
Flags: W
LayerCount: 2
Fore
SplineSet
243 256 m 2
 154.998046875 264 l 2
 111.665039062 264 73.33203125 261.333007812 39.9990234375 256 c 1
 37.9990234375 264 36.9990234375 272.333007812 36.9990234375 281 c 0
 36.9990234375 289.666992188 39.9990234375 297.5 45.9990234375 304.5 c 0
 51.9990234375 311.5 60.9990234375 315 72.9990234375 315 c 0
 74.33203125 315 86.33203125 313.833007812 108.999023438 311.5 c 0
 131.666015625 309.166992188 159.499023438 308 192.499023438 308 c 0
 225.499023438 308 253.33203125 310.333007812 275.999023438 315 c 1
 277.999023438 307.666992188 278.999023438 299.5 278.999023438 290.5 c 0
 278.999023438 281.5 275.83203125 273.5 269.499023438 266.5 c 0
 263.166015625 259.5 254.333007812 256 243 256 c 2
249.998046875 412 m 0
 226.665039062 388 195.83203125 376.001953125 157.499023438 376.001953125 c 0
 119.166015625 376.001953125 88.3330078125 388.168945312 65 412.501953125 c 0
 41.6669921875 436.834960938 30 469.16796875 30 509.500976562 c 0
 30 549.833984375 41.6669921875 582.166992188 65 606.5 c 0
 88.3330078125 630.833007812 119.166015625 643 157.499023438 643 c 0
 195.83203125 643 226.665039062 630.833007812 249.998046875 606.5 c 0
 273.331054688 582.166992188 284.998046875 549.666992188 284.998046875 509 c 0
 284.998046875 468.333007812 273.331054688 436 249.998046875 412 c 0
211.998046875 438.501953125 m 0
 225.331054688 454.168945312 231.997070312 475.833984375 231.997070312 503.500976562 c 0
 231.997070312 531.16796875 225.330078125 554.834960938 211.997070312 574.501953125 c 0
 198.6640625 594.168945312 180.331054688 604.001953125 156.998046875 604.001953125 c 0
 133.665039062 604.001953125 115.665039062 596.168945312 102.998046875 580.501953125 c 0
 90.3310546875 564.834960938 83.998046875 543.001953125 83.998046875 515.001953125 c 0
 83.998046875 487.001953125 90.498046875 463.334960938 103.498046875 444.001953125 c 0
 116.498046875 424.668945312 134.498046875 415.001953125 157.498046875 415.001953125 c 0
 180.498046875 415.001953125 198.665039062 422.834960938 211.998046875 438.501953125 c 0
EndSplineSet
Validated: 1
EndChar

StartChar: guillemotright
Encoding: 187 187 120
Width: 474
GlyphClass: 2
Flags: W
LayerCount: 2
Fore
SplineSet
146 235 m 1
 122.666992188 263.666992188 99.1669921875 295.668945312 75.5 331.001953125 c 0
 51.8330078125 366.334960938 40 388.501953125 40 397.501953125 c 0
 40 406.501953125 46.6669921875 416.001953125 60 426.001953125 c 1
 104 389.334960938 159 325.66796875 225 235.000976562 c 1
 159 144.333984375 104 80.6669921875 60 44 c 1
 46.6669921875 54 40 63.5 40 72.5 c 0
 40 81.5 51.8330078125 103.666992188 75.5 139 c 0
 99.1669921875 174.333007812 122.666992188 206.333007812 146 235 c 1
335 235.001953125 m 1
 311.666992188 263.668945312 288.166992188 295.670898438 264.5 331.00390625 c 0
 240.833007812 366.336914062 229 388.50390625 229 397.50390625 c 0
 229 406.50390625 235.666992188 416.00390625 249 426.00390625 c 1
 293 389.336914062 348 325.669921875 414 235.002929688 c 1
 348 144.3359375 293 80.6689453125 249 44.001953125 c 1
 235.666992188 54.001953125 229 63.501953125 229 72.501953125 c 0
 229 81.501953125 240.833007812 103.668945312 264.5 139.001953125 c 0
 288.166992188 174.334960938 311.666992188 206.334960938 335 235.001953125 c 1
EndSplineSet
Validated: 1
EndChar

